<?xml version="1.0" encoding="utf-8"?>
<!-- Generator: Adobe Illustrator 19.1.1, SVG Export Plug-In . SVG Version: 6.00 Build 0)  -->
<svg version="1.1" id="Calque_1" xmlns="http://www.w3.org/2000/svg" xmlns:xlink="http://www.w3.org/1999/xlink" x="0px" y="0px"
	 viewBox="0 0 60 60" style="enable-background:new 0 0 60 60;" xml:space="preserve">
<style type="text/css">
	.st0{fill:none;}
	.st1{fill:#FFFFFF;}
</style>
<rect class="st0" width="60" height="60"/>
<g>
	<path class="st1" d="M3.9,28.2c0,0,3.8-3.8,11.4-3.8c3.9,0,6.4,1,8.8,1.9c2,0.8,4,1.6,6.9,1.9c-0.1-0.3-0.1-0.5-0.2-0.8
		c-2.6-0.3-4.5-1-6.5-1.8c-2.4-1-5-2-9-2c-8,0-11.8,3.8-12,4c-0.1,0.1-0.1,0.4,0,0.5C3.5,28.4,3.7,28.4,3.9,28.2z"/>
	<path class="st1" d="M3.9,32.1c0,0,3.8-3.8,11.4-3.8c3.9,0,6.4,1,8.8,1.9c2.4,1,4.9,2,8.8,2H33c-0.1-0.1-0.2-0.2-0.2-0.3l-0.2-0.4
		c-3.6-0.1-5.8-0.9-8.2-1.9s-5-2-9-2c-8,0-11.8,3.8-12,4c-0.1,0.1-0.1,0.4,0,0.5C3.5,32.2,3.7,32.2,3.9,32.1z"/>
	<path class="st1" d="M24.3,33.4c-2.4-1-5-2-9-2c-8,0-11.8,3.8-12,4c-0.1,0.1-0.1,0.4,0,0.5c0.2,0.1,0.4,0.1,0.5,0
		c0,0,3.8-3.8,11.4-3.8c3.9,0,6.4,1,8.8,1.9c2.4,1,4.9,2,8.8,2c0.8,0,1.5,0,2.2-0.1c0,0,0,0,0-0.1c0.3-0.4,0.6-0.7,1.1-0.8
		c-1,0.1-2.1,0.2-3.3,0.2C29.1,35.3,26.8,34.4,24.3,33.4z"/>
	<path class="st1" d="M38.6,34.9v-0.3c-0.4,0.1-0.8,0.2-1.3,0.3c0.3,0,0.6,0.1,0.9,0.2C38.3,35,38.4,34.9,38.6,34.9z"/>
	<path class="st1" d="M32.9,39.2c-3.8,0-6.1-0.9-8.5-1.9s-5-2-9-2c-8,0-11.8,3.8-12,4c-0.1,0.1-0.1,0.4,0,0.5c0.2,0.1,0.4,0.1,0.5,0
		c0,0,3.8-3.8,11.4-3.8c3.9,0,6.4,1,8.8,1.9c2.4,1,4.9,2,8.8,2c0.8,0,1.5,0,2.2-0.1L35,39.1C34.3,39.1,33.6,39.2,32.9,39.2z"/>
	<path class="st1" d="M56.7,27.2l-3.3-1.7h-0.1c-0.1,0-0.2,0-0.2,0.1c-0.1,0.1,0,0.2,0.1,0.3l2.9,1.5l-3,1l-0.3-0.8
		c0-0.1-0.1-0.1-0.2-0.1c0,0,0,0-0.1,0s-0.2,0.2-0.1,0.3l0.3,0.8L50.8,29L49,28.1h-0.1c-0.1,0-0.2,0-0.2,0.1c-0.1,0.1,0,0.2,0.1,0.3
		l1.4,0.7l-5.1,1.6v-5.3l1.1,1.1c0,0,0.1,0.1,0.2,0.1c0.1,0,0.1,0,0.2-0.1c0.1-0.1,0.1-0.2,0-0.3l-1.5-1.5V23H46
		c0.1,0,0.2-0.1,0.2-0.2s-0.1-0.2-0.2-0.2h-0.8v-3.2l2.3,2.3c0,0,0.1,0.1,0.2,0.1c0.1,0,0.1,0,0.2-0.1c0.1-0.1,0.1-0.2,0-0.3
		l-2.7-2.7c0,0-0.1-0.1-0.2-0.1s-0.1,0-0.2,0.1l-2.7,2.7c-0.1,0.1-0.1,0.2,0,0.3c0,0,0.1,0.1,0.2,0.1c0.1,0,0.1,0,0.2-0.1l2.3-2.3
		v3.2H44c-0.1,0-0.2,0.1-0.2,0.2S43.9,23,44,23h0.8v1.9l-1.5,1.5c-0.1,0.1-0.1,0.2,0,0.3c0,0,0.1,0.1,0.2,0.1c0.1,0,0.1,0,0.2-0.1
		l1.1-1.1v5.3L42.2,30l-1-0.3l-1.5-0.5l1.4-0.7c0.1-0.1,0.1-0.2,0.1-0.3c0-0.1-0.1-0.1-0.2-0.1h-0.1L39.1,29l-1.8-0.6l0.2-0.6
		l0.1-0.2c0-0.1,0-0.2-0.1-0.3c0,0,0,0-0.1,0s-0.2,0.1-0.2,0.1L37,28l-0.1,0.3l-0.7-0.2l-1.8-0.6l-0.6-0.2l2.9-1.5
		c0.1-0.1,0.1-0.2,0.1-0.3c0-0.1-0.1-0.1-0.2-0.1h-0.1l-3.3,1.7c-0.1,0.1-0.1,0.2-0.1,0.3v0.1l0.4,0.7l1.3,2.5
		c0,0.1,0.1,0.1,0.2,0.1h0.1c0.1-0.1,0.1-0.2,0.1-0.3L34,28.3l-0.3-0.6l1.5,0.5l1.6,0.5l-0.3,0.8c0,0.1,0,0.2,0.1,0.3c0,0,0,0,0.1,0
		s0.2-0.1,0.2-0.1l0.3-0.8l1.8,0.6l0.5,1l0.4,0.7l0.1,0.1c0,0.1,0.1,0.1,0.2,0.1h0.1c0.1-0.1,0.1-0.2,0.1-0.3L40.2,31l-0.3-0.7
		l-0.3-0.7l1.1,0.4l1.1,0.3l2.9,1l-0.6,0.9l-0.8,1.1l-1.7,2.3l-0.2-1.2L41.2,34c0-0.1-0.1-0.2-0.2-0.2l0,0c-0.1,0-0.2,0.1-0.2,0.2
		l0.1,0.5l0.2,1.5L40,37.6l-0.7-0.5h-0.1c-0.1,0-0.1,0-0.2,0.1c-0.1,0.1,0,0.2,0,0.3l0.7,0.5l-0.1,0.1l-0.8,1.1l-1,1.4l-0.2-1.1
		l-0.1-0.8l-0.2-1.4c0-0.1-0.1-0.2-0.2-0.2l0,0c-0.1,0-0.2,0.1-0.2,0.2l0.2,1.4l0.1,0.8l0.2,1.6c0,0.1,0.1,0.2,0.2,0.2l0,0l3.7-0.6
		c0.1,0,0.2-0.1,0.2-0.2c0-0.1-0.1-0.2-0.2-0.2l0,0l-3.2,0.5l1.3-1.8l0.5-0.7l0.5,0.4l0.2,0.1h0.1c0.1,0,0.1,0,0.2-0.1
		c0.1-0.1,0-0.2,0-0.3l0,0l-0.7-0.5l0,0l1.1-1.5l1.8-0.3h0.2c0.1,0,0.2-0.1,0.2-0.2c0,0,0,0,0-0.1s-0.1-0.2-0.2-0.2l0,0l-1.6,0.3
		l3.1-4.3l3.1,4.3l-1.6-0.3l0,0c-0.1,0-0.2,0.1-0.2,0.2c0,0.1,0.1,0.2,0.2,0.2l2,0.3l1.1,1.5l-0.7,0.5c-0.1,0.1-0.1,0.2,0,0.3
		c0,0.1,0.1,0.1,0.2,0.1H49l0.7-0.5l1.9,2.6l-3.2-0.5l0,0c-0.1,0-0.2,0.1-0.2,0.2c0,0.1,0.1,0.2,0.2,0.2l3.7,0.6l0,0
		c0.1,0,0.2-0.1,0.2-0.2l0.6-3.7c0-0.1-0.1-0.2-0.2-0.2l0,0c-0.1,0-0.2,0.1-0.2,0.2L52,40.5L50.1,38l0.7-0.5c0.1-0.1,0.1-0.2,0-0.3
		c0-0.1-0.1-0.1-0.2-0.1h-0.1l-0.7,0.5l-1.1-1.5l0.3-2c0-0.1-0.1-0.2-0.2-0.2l0,0c-0.1,0-0.2,0.1-0.2,0.2l-0.3,1.6l-3.1-4.3l5.1-1.6
		l-0.7,1.4c-0.1,0.1,0,0.2,0.1,0.3h0.1c0.1,0,0.2,0,0.2-0.1l0.9-1.8l1.8-0.6l0.3,0.8c0,0.1,0.1,0.1,0.2,0.1c0,0,0,0,0.1,0
		s0.2-0.2,0.1-0.3l-0.3-0.8l3-1l-1.5,2.9c-0.1,0.1,0,0.2,0.1,0.3h0.1c0.1,0,0.2,0,0.2-0.1l1.7-3.3C56.8,27.4,56.8,27.2,56.7,27.2z"
		/>
</g>
</svg>
