<?xml version="1.0" encoding="utf-8"?>
<!-- Generator: Adobe Illustrator 19.1.1, SVG Export Plug-In . SVG Version: 6.00 Build 0)  -->
<svg version="1.1" id="Calque_1" xmlns="http://www.w3.org/2000/svg" xmlns:xlink="http://www.w3.org/1999/xlink" x="0px" y="0px"
	 viewBox="0 0 60 60" style="enable-background:new 0 0 60 60;" xml:space="preserve">
<style type="text/css">
	.st0{fill:none;}
	.st1{fill:#FFFFFF;}
</style>
<rect class="st0" width="60" height="60"/>
<g>
	<path class="st1" d="M3.9,27.5c0,0,5-5,15.1-5c5.2,0,8.4,1.3,11.6,2.6c3.2,1.3,6.5,2.6,11.7,2.6c10.4,0,14.5-4.4,14.6-4.6
		c0.2-0.2,0.2-0.5,0-0.7s-0.5-0.2-0.7,0c0,0-4,4.3-13.9,4.3c-5,0-8.1-1.2-11.3-2.5s-6.6-2.6-12-2.6c-10.6,0-15.6,5.1-15.9,5.3
		c-0.2,0.2-0.2,0.5,0,0.7C3.3,27.7,3.7,27.7,3.9,27.5z"/>
	<path class="st1" d="M56.1,27.5c0,0-4,4.3-13.9,4.3c-5,0-8.1-1.2-11.3-2.5s-6.6-2.6-12-2.6C8.3,26.7,3.3,31.8,3,32
		c-0.2,0.2-0.2,0.5,0,0.7s0.5,0.2,0.7,0c0,0,5-5,15.1-5c5.2,0,8.4,1.3,11.6,2.6c3.2,1.3,6.5,2.6,11.7,2.6c10.4,0,14.5-4.4,14.6-4.6
		c0.2-0.2,0.2-0.5,0-0.7C56.6,27.3,56.3,27.3,56.1,27.5z"/>
	<path class="st1" d="M56.1,32.6c0,0-4,4.3-13.9,4.3c-5,0-8.1-1.2-11.3-2.5s-6.6-2.6-12-2.6C8.4,31.7,3.4,36.8,3.1,37
		c-0.2,0.2-0.2,0.5,0,0.7s0.5,0.2,0.7,0c0,0,5-5,15.1-5c5.2,0,8.4,1.3,11.6,2.6s6.5,2.6,11.7,2.6c10.4,0,14.5-4.4,14.6-4.6
		c0.2-0.2,0.2-0.5,0-0.7C56.6,32.4,56.3,32.4,56.1,32.6z"/>
	<path class="st1" d="M56.1,37.7c0,0-4,4.3-13.9,4.3c-5,0-8.1-1.2-11.3-2.5s-6.6-2.6-12-2.6C8.3,36.9,3.3,42,3,42.2
		c-0.2,0.2-0.2,0.5,0,0.7s0.5,0.2,0.7,0c0,0,5-5,15.1-5c5.2,0,8.4,1.3,11.6,2.6s6.5,2.6,11.7,2.6c10.4,0,14.5-4.4,14.6-4.6
		c0.2-0.2,0.2-0.5,0-0.7C56.6,37.5,56.3,37.5,56.1,37.7z"/>
</g>
</svg>
