<?xml version="1.0" encoding="utf-8"?>
<!-- Generator: Adobe Illustrator 19.1.1, SVG Export Plug-In . SVG Version: 6.00 Build 0)  -->
<svg version="1.1" id="Calque_1" xmlns="http://www.w3.org/2000/svg" xmlns:xlink="http://www.w3.org/1999/xlink" x="0px" y="0px"
	 viewBox="0 0 60 60" style="enable-background:new 0 0 60 60;" xml:space="preserve">
<style type="text/css">
	.st0{fill:none;}
	.st1{fill:#FFFFFF;}
</style>
<rect class="st0" width="60" height="60"/>
<g>
	<path class="st1" d="M44.4,21.7c0.2-0.7,0.3-1.5,0.3-2.3c0-4.7-3.9-8.6-8.6-8.6c-1.9,0-3.7,0.6-5.2,1.8c-1.5-1.2-3.3-1.8-5.2-1.8
		c-4.7,0-8.6,3.9-8.6,8.6c0,0.6,0.1,1.3,0.2,1.9c-4.2,0.6-7.4,4.2-7.4,8.5c0,4.7,3.9,8.6,8.6,8.6c1.8,0,3.6-0.6,5.1-1.7
		c1.5,1.1,3.3,1.7,5.1,1.7c2.5,0,4.9-1.1,6.6-3c1.6,1.9,4,3,6.6,3c4.7,0,8.6-3.9,8.6-8.6C50.3,26.1,47.9,22.9,44.4,21.7z M41.6,37.5
		c-2.4,0-4.7-1.2-6.2-3.1L35,33.8l-0.4,0.6c-1.4,2-3.7,3.1-6.2,3.1c-1.8,0-3.4-0.6-4.8-1.7l-0.3-0.3L23,35.8c-1.4,1.1-3,1.7-4.8,1.7
		c-4.2,0-7.6-3.4-7.6-7.6c0-4,3.1-7.3,7.1-7.6h0.6l-0.2-0.6c-0.2-0.7-0.3-1.5-0.3-2.2c0-4.2,3.4-7.6,7.6-7.6c1.8,0,3.5,0.6,4.9,1.8
		l0.3,0.3l0.3-0.3c1.4-1.2,3.1-1.8,4.9-1.8c4.2,0,7.6,3.4,7.6,7.6c0,0.8-0.1,1.6-0.4,2.4l-0.2,0.5l0.5,0.1c3.3,0.9,5.6,3.9,5.6,7.3
		C49.3,34,45.8,37.5,41.6,37.5z"/>
	<circle class="st1" cx="22.7" cy="39" r="0.5"/>
	<circle class="st1" cx="21.9" cy="41.4" r="0.5"/>
	<circle class="st1" cx="21.1" cy="43.9" r="0.5"/>
	<circle class="st1" cx="20.2" cy="46.3" r="0.5"/>
	<circle class="st1" cx="19.4" cy="48.7" r="0.5"/>
	<circle class="st1" cx="29.1" cy="39" r="0.5"/>
	<circle class="st1" cx="28.3" cy="41.4" r="0.5"/>
	<circle class="st1" cx="27.5" cy="43.9" r="0.5"/>
	<circle class="st1" cx="26.7" cy="46.3" r="0.5"/>
	<circle class="st1" cx="25.9" cy="48.7" r="0.5"/>
	<circle class="st1" cx="35.5" cy="39" r="0.5"/>
	<circle class="st1" cx="34.7" cy="41.4" r="0.5"/>
	<circle class="st1" cx="33.9" cy="43.9" r="0.5"/>
	<circle class="st1" cx="33.1" cy="46.3" r="0.5"/>
	<circle class="st1" cx="32.3" cy="48.7" r="0.5"/>
</g>
</svg>
