<?xml version="1.0" encoding="utf-8"?>
<!-- Generator: Adobe Illustrator 19.1.1, SVG Export Plug-In . SVG Version: 6.00 Build 0)  -->
<svg version="1.1" id="Calque_1" xmlns="http://www.w3.org/2000/svg" xmlns:xlink="http://www.w3.org/1999/xlink" x="0px" y="0px"
	 viewBox="0 0 60 60" style="enable-background:new 0 0 60 60;" xml:space="preserve">
<style type="text/css">
	.st0{fill:none;}
	.st1{fill:#FFFFFF;}
</style>
<rect class="st0" width="60" height="60"/>
<g>
	<path class="st1" d="M30,13.2c0.3,0,0.5-0.2,0.5-0.5V1.3c0-0.3-0.2-0.5-0.5-0.5S29.5,1,29.5,1.3v11.4C29.5,13,29.7,13.2,30,13.2z"
		/>
	<path class="st1" d="M17.4,18.1c0.1,0.1,0.2,0.1,0.4,0.1s0.3,0,0.4-0.1c0.2-0.2,0.2-0.5,0-0.7L10,9.3c-0.2-0.2-0.5-0.2-0.7,0
		s-0.2,0.5,0,0.7L17.4,18.1z"/>
	<path class="st1" d="M13.2,30c0-0.3-0.2-0.5-0.5-0.5H1.3c-0.3,0-0.5,0.2-0.5,0.5s0.2,0.5,0.5,0.5h11.4C13,30.5,13.2,30.3,13.2,30z"
		/>
	<path class="st1" d="M17.4,41.9L9.3,50c-0.2,0.2-0.2,0.5,0,0.7c0.1,0.1,0.2,0.1,0.4,0.1s0.3,0,0.4-0.1l8.1-8.1
		c0.2-0.2,0.2-0.5,0-0.7S17.6,41.7,17.4,41.9z"/>
	<path class="st1" d="M58.8,29.5H47.3c-0.3,0-0.5,0.2-0.5,0.5s0.2,0.5,0.5,0.5h11.4c0.3,0,0.5-0.2,0.5-0.5S59,29.5,58.8,29.5z"/>
	<path class="st1" d="M42.2,18.3c0.1,0,0.3,0,0.4-0.1l8.1-8.1c0.2-0.2,0.2-0.5,0-0.7s-0.5-0.2-0.7,0l-8.1,8.1
		c-0.2,0.2-0.2,0.5,0,0.7C42,18.2,42.1,18.3,42.2,18.3z"/>
	<path class="st1" d="M53.3,38.2c0.1-0.5,0.2-1,0.2-1.5c0-3.3-2.7-6-6-6c-1.1,0-2.1,0.3-3,0.8c0-0.5,0.1-1,0.1-1.5
		c0-8-6.5-14.5-14.5-14.5S15.6,22,15.6,30c0,7.7,6.1,14.1,13.8,14.4c0.1,0.8,0.3,1.6,0.7,2.3c-0.3,0-0.5,0.2-0.5,0.5v11.4
		c0,0.3,0.2,0.5,0.5,0.5s0.5-0.2,0.5-0.5v-11c1.1,1.4,2.8,2.4,4.8,2.4c1.3,0,2.5-0.4,3.5-1.1c1,0.7,2.2,1.1,3.5,1.1
		c1.7,0,3.3-0.7,4.5-2c0.6,0.6,1.3,1.1,2,1.5l1.2,1.2c0.1,0.1,0.2,0.1,0.4,0.1s0.3,0,0.4-0.1c0.2-0.2,0.2-0.5,0-0.7l0,0
		c0.2,0,0.4,0,0.5,0c3.3,0,6-2.7,6-6C57.3,41.4,55.6,39.1,53.3,38.2z M51.2,49c-0.7,0-1.3-0.1-1.9-0.4c-0.9-0.4-1.6-0.9-2.2-1.7
		l-0.4-0.6l-0.4,0.6c0,0,0,0-0.1,0.1c-1,1.3-2.4,2-4,2c-1.2,0-2.3-0.4-3.2-1.1l-0.3-0.3l-0.3,0.3c-0.9,0.7-2,1.1-3.2,1.1
		c-2.6,0-4.7-1.9-5-4.4c0-0.2,0-0.3-0.1-0.5V44c0-0.1,0-0.2,0-0.4c0.2-2.5,2.2-4.5,4.7-4.7h0.6l-0.2-0.6c-0.1-0.5-0.2-1-0.2-1.5
		c0-2.8,2.3-5,5-5c1.1,0,2.1,0.4,3,1c0.1,0.1,0.2,0.1,0.3,0.2l0.2,0.1l0.2,0.1l0.3-0.3c0,0,0,0,0.1,0c0.9-0.7,2-1.2,3.2-1.2
		c2.8,0,5,2.3,5,5c0,0.5-0.1,1.1-0.3,1.6l0,0.6l0.5,0.1c2.2,0.6,3.7,2.6,3.7,4.9C56.3,46.7,54,49,51.2,49z M16.5,30.1
		c0-7.4,6-13.5,13.5-13.5c7.4,0,13.5,6,13.5,13.5c0,0.5,0,1.1-0.1,1.6c-0.9-0.6-2-0.9-3.1-0.9c-3.3,0-6,2.7-6,6c0,0.4,0,0.8,0.1,1.2
		c-2.7,0.5-4.8,2.8-5,5.6C22.2,43.2,16.5,37.3,16.5,30.1z"/>
</g>
</svg>
