<?xml version="1.0" encoding="utf-8"?>
<!-- Generator: Adobe Illustrator 19.1.1, SVG Export Plug-In . SVG Version: 6.00 Build 0)  -->
<svg version="1.1" id="Calque_1" xmlns="http://www.w3.org/2000/svg" xmlns:xlink="http://www.w3.org/1999/xlink" x="0px" y="0px"
	 viewBox="0 0 60 60" style="enable-background:new 0 0 60 60;" xml:space="preserve">
<style type="text/css">
	.st0{fill:none;}
	.st1{fill:#FFFFFF;}
</style>
<rect class="st0" width="60" height="60"/>
<g>
	<path class="st1" d="M13.2,30c0-0.3-0.2-0.5-0.5-0.5H1.3c-0.3,0-0.5,0.2-0.5,0.5s0.2,0.5,0.5,0.5h11.4C13,30.5,13.2,30.3,13.2,30z"
		/>
	<path class="st1" d="M30,46.8c-0.3,0-0.5,0.2-0.5,0.5v11.4c0,0.3,0.2,0.5,0.5,0.5s0.5-0.2,0.5-0.5V47.3C30.5,47,30.3,46.8,30,46.8z
		"/>
	<path class="st1" d="M42.6,41.9c-0.2-0.2-0.5-0.2-0.7,0s-0.2,0.5,0,0.7l8.1,8.1c0.1,0.1,0.2,0.1,0.4,0.1s0.3,0,0.4-0.1
		c0.2-0.2,0.2-0.5,0-0.7L42.6,41.9z"/>
	<path class="st1" d="M58.8,29.5H47.3c-0.1,0-0.1,0-0.2,0H47c0.1-0.5,0.2-1,0.2-1.5c0-2.5-1.5-4.6-3.7-5.6l0,0c0-2.6-1.6-4.8-4-5.7
		c0.1-0.5,0.2-1,0.2-1.5c0-3.3-2.7-6-6-6c-1.1,0-2.2,0.3-3.2,0.9V1.3c0-0.3-0.2-0.5-0.5-0.5S29.5,1,29.5,1.3v8.8
		c-0.9-0.5-2-0.8-3-0.8c-3.3,0-6,2.7-6,6c0,0.4,0,0.8,0.1,1.2c-0.9,0.1-1.7,0.5-2.4,1c0,0,0,0,0-0.1L10,9.3c-0.2-0.2-0.5-0.2-0.7,0
		s-0.2,0.5,0,0.7l8.1,8.1c-1.1,1.1-1.9,2.6-1.9,4.3c0,1.1,0.3,2.1,0.8,3c-0.1,0.3-0.2,0.5-0.2,0.8C14.8,27.3,14,29,14,30.8
		c0,0.4,0,0.8,0.1,1.2c-2.9,0.5-5,3-5,6c0,3.3,2.7,6,6,6c0.1,0,0.2,0,0.3,0l-6,6c-0.2,0.2-0.2,0.5,0,0.7c0.1,0.1,0.2,0.1,0.4,0.1
		s0.3,0,0.4-0.1l7.1-7.1c0.5-0.2,1-0.4,1.4-0.7c1,0.7,2.2,1.1,3.5,1.1c0.8,0,1.7-0.2,2.4-0.5c1.7,0.7,3.6,1.1,5.6,1.1
		c4.3,0,8.2-1.9,10.9-5c1.1,1,2.6,1.6,4.1,1.6c3.3,0,6-2.7,6-6c0-1.9-0.9-3.6-2.3-4.7h10c0.3,0,0.5-0.2,0.5-0.5S59,29.5,58.8,29.5z
		 M41.5,38.8c-0.1-0.1-0.2-0.2-0.3-0.4c-0.1-0.1-0.2-0.2-0.3-0.3L40.8,38l-0.4-0.5L40,38.1c-0.8,1.1-2.1,1.9-3.5,2
		c0.3-0.7,0.4-1.5,0.4-2.3c0-2.6-1.6-4.8-4-5.7c0.1-0.5,0.2-1,0.2-1.5c0-1.3-0.4-2.5-1.1-3.5c0.3-0.2,0.6-0.5,0.9-0.8
		c1.1,1.3,2.8,2,4.5,2c2.2,0,4.1-1.2,5.2-3c0.1-0.2,0.2-0.4,0.3-0.6s0.2-0.4,0.3-0.7c0.1-0.2,0.1-0.5,0.2-0.7
		c1.7,0.8,2.8,2.5,2.8,4.5c0,0.5-0.1,1.1-0.3,1.6l-0.2,0.5l0.5,0.1c2.2,0.6,3.7,2.6,3.7,4.9c0,2.8-2.3,5-5,5
		C43.7,40.2,42.4,39.7,41.5,38.8z M25.6,42.8c0.3-0.2,0.6-0.5,0.9-0.8c0.6,0.7,1.3,1.2,2.2,1.5C27.6,43.4,26.5,43.1,25.6,42.8z
		 M22,43c-1.2,0-2.3-0.4-3.2-1.1l-0.3-0.3l-0.3,0.3c0,0-0.1,0-0.1,0.1c-0.5,0.4-1,0.6-1.6,0.8C16,43,15.5,43,15,43c-2.8,0-5-2.3-5-5
		c0-2.6,2.1-4.8,4.7-5h0.6l-0.2-0.6c-0.1-0.5-0.2-1-0.2-1.5c0-0.9,0.3-1.8,0.7-2.5c0.2-0.3,0.4-0.6,0.6-0.9c0.2-0.2,0.4-0.4,0.7-0.6
		c0.1-0.1,0.2-0.1,0.2-0.2c0.1-0.1,0.3-0.2,0.4-0.2c0.2-0.1,0.3-0.2,0.5-0.2c0.6-0.2,1.2-0.4,1.9-0.4c1.2,0,2.3,0.4,3.3,1.2l0.2,0.2
		l0.1,0.1l0.3-0.3c0.4-0.3,0.8-0.6,1.2-0.8c0.6-0.3,1.3-0.4,2-0.4c0.4,0,0.8,0.1,1.2,0.2c0.2,0,0.3,0.1,0.5,0.1
		c0.2,0.1,0.3,0.1,0.5,0.2c0.4,0.2,0.8,0.5,1.2,0.8c0.1,0.1,0.3,0.2,0.4,0.4c0.1,0.1,0.2,0.3,0.3,0.4c0.6,0.8,1,1.9,1,3
		c0,0.5-0.1,1.1-0.3,1.6l-0.2,0.5l0.5,0.1c2.2,0.6,3.7,2.6,3.7,4.9c0,0.8-0.2,1.6-0.6,2.3c-0.1,0.2-0.2,0.3-0.3,0.5
		s-0.2,0.3-0.3,0.4C33.9,42.2,32.5,43,31,43c-1.6,0-3.1-0.8-4.1-2.1l-0.1-0.1l-0.3-0.5l-0.2,0.2l-0.2,0.3c-0.4,0.6-1,1.1-1.7,1.5
		c-0.2,0.1-0.4,0.2-0.6,0.3s-0.5,0.2-0.7,0.2C22.8,42.9,22.4,43,22,43z M21.2,17.4h0.6l-0.2-0.6c-0.1-0.5-0.2-1-0.2-1.5
		c0-2.8,2.3-5,5-5c1.1,0,2.1,0.4,3,1c0.1,0.1,0.2,0.1,0.2,0.2l0.3,0.3l0.3-0.3c0,0,0.1,0,0.1-0.1c0.9-0.7,2-1.1,3.2-1.1
		c2.8,0,5,2.3,5,5c0,0.5-0.1,1.1-0.3,1.6L38,17.4l0.5,0.1c2.1,0.6,3.6,2.4,3.7,4.6c0,0.1,0,0.2,0,0.3c0,0.1,0,0.2,0,0.2v0.1
		c0,0.1,0,0.3,0,0.4s0,0.3-0.1,0.4C42,23.7,42,24,41.9,24.2c-0.7,1.9-2.6,3.2-4.7,3.2c-1.6,0-3.1-0.8-4.1-2.1L33,24.8l-0.4,0.6
		c-0.3,0.4-0.7,0.8-1.2,1.1c-0.5-0.5-1.1-0.9-1.7-1.2c-0.2-0.1-0.3-0.1-0.5-0.2s-0.3-0.1-0.5-0.2c-0.5-0.1-1.1-0.2-1.6-0.2
		c-1.3,0-2.5,0.4-3.6,1.2c-1-0.8-2.3-1.2-3.6-1.2c-0.9,0-1.8,0.2-2.6,0.6l0,0c-0.1-0.2-0.2-0.4-0.3-0.6c-0.1-0.2-0.2-0.4-0.3-0.6
		c-0.2-0.5-0.3-1.1-0.3-1.7C16.5,19.8,18.6,17.6,21.2,17.4z M34.6,42.7c0.6-0.4,1-0.9,1.4-1.5c0.7,0,1.4-0.1,2.1-0.4
		C37,41.6,35.9,42.3,34.6,42.7z"/>
	<path class="st1" d="M42.2,18.3c0.1,0,0.3,0,0.4-0.1l8.1-8.1c0.2-0.2,0.2-0.5,0-0.7s-0.5-0.2-0.7,0l-8.1,8.1
		c-0.2,0.2-0.2,0.5,0,0.7C42,18.2,42.1,18.3,42.2,18.3z"/>
</g>
</svg>
