<?xml version="1.0" encoding="utf-8"?>
<!-- Generator: Adobe Illustrator 19.1.1, SVG Export Plug-In . SVG Version: 6.00 Build 0)  -->
<svg version="1.1" id="Calque_1" xmlns="http://www.w3.org/2000/svg" xmlns:xlink="http://www.w3.org/1999/xlink" x="0px" y="0px"
	 viewBox="0 0 60 60" style="enable-background:new 0 0 60 60;" xml:space="preserve">
<style type="text/css">
	.st0{fill:none;}
	.st1{fill:#FFFFFF;}
</style>
<rect class="st0" width="60" height="60"/>
<path class="st1" d="M49.8,33.1c0.1-0.5,0.2-1,0.2-1.5c0-3.3-2.7-6-6-6c-0.5,0-0.9,0.1-1.4,0.2c-0.5-1.8-1.9-3.3-3.7-3.9
	c0.1-0.5,0.2-1,0.2-1.5c0-3.3-2.7-6-6-6c-1.3,0-2.5,0.4-3.6,1.2c-1-0.8-2.3-1.2-3.6-1.2c-3.3,0-6,2.7-6,6c0,0.4,0,0.8,0.1,1.2
	c-2.7,0.4-4.7,2.6-5,5.3c-2.1,0.9-3.6,3.1-3.6,5.5c0,0.4,0,0.8,0.1,1.2c-2.9,0.5-5,3-5,6c0,3.3,2.7,6,6,6c1.2,0,2.5-0.4,3.5-1.1
	c1,0.7,2.2,1.1,3.5,1.1c1.7,0,3.3-0.7,4.5-2c1.1,1.3,2.8,2,4.5,2c1.1,0,2.1-0.3,3-0.8c0.2,0,0.4,0,0.6,0c1.2,0,2.5-0.4,3.5-1.1
	c1,0.7,2.2,1.1,3.5,1.1c1.7,0,3.3-0.7,4.5-2c1.1,1.3,2.8,2,4.5,2c3.3,0,6-2.7,6-6C53.8,36.3,52.1,34,49.8,33.1z M47.7,43.9
	c-1.6,0-3.1-0.8-4.1-2.1l-0.4-0.6l-0.4,0.6c-1,1.3-2.5,2.1-4.1,2.1c-1.2,0-2.3-0.4-3.2-1.1l-0.3-0.3L35,42.7
	c-0.7,0.6-1.6,0.9-2.4,1.1c1.1-1.1,1.7-2.6,1.7-4.2c0-2.5-1.5-4.7-3.8-5.6c0.3-0.1,0.7-0.2,1-0.2h0.6l-0.2-0.6
	c-0.1-0.3-0.2-0.7-0.2-1c0.2-0.2,0.4-0.3,0.5-0.5c1.1,1.3,2.8,2,4.5,2c3.3,0,6-2.7,6-6c0-0.3,0-0.5-0.1-0.8c0.4-0.1,0.8-0.2,1.2-0.2
	c2.8,0,5,2.3,5,5c0,0.5-0.1,1.1-0.3,1.6l-0.2,0.5l0.5,0.1c2.2,0.6,3.7,2.6,3.7,4.9C52.8,41.6,50.5,43.9,47.7,43.9z M29.5,44.4
	c-0.4,0.1-0.9,0.2-1.3,0.2c-1.6,0-3.1-0.8-4.1-2.1L23.7,42l-0.4,0.6c-1,1.3-2.5,2.1-4.1,2.1c-1.2,0-2.3-0.4-3.2-1.1l-0.3-0.3
	l-0.3,0.3c-0.9,0.7-2,1.1-3.2,1.1c-2.8,0-5-2.3-5-5c0-2.6,2.1-4.8,4.7-5h0.6l-0.2-0.6c-0.1-0.5-0.2-1-0.2-1.5c0-1.9,1.1-3.5,2.6-4.4
	c0.2-0.1,0.3-0.2,0.5-0.3c0.2-0.1,0.3-0.1,0.5-0.2c0.5-0.1,1-0.2,1.5-0.2c1.2,0,2.4,0.4,3.3,1.2l0.3,0.3l0.3-0.3
	c0.9-0.8,2.1-1.2,3.3-1.2c2.7,0,5,2.2,5,4.9v0.1c0,0.1,0,0.3,0,0.4c0,0.2,0,0.3-0.1,0.5c0,0,0,0,0,0.1c0,0.2-0.1,0.4-0.1,0.6v0.1
	L29,34.6h0.1l0.4,0.1c2.2,0.6,3.7,2.6,3.7,4.9c0,1.8-0.9,3.3-2.3,4.2c-0.2,0.1-0.4,0.3-0.7,0.4C30,44.3,29.8,44.3,29.5,44.4z
	 M20.5,22.5h0.6l-0.2-0.6c-0.1-0.5-0.2-1-0.2-1.5c0-2.8,2.3-5,5-5c1.2,0,2.4,0.4,3.3,1.2l0.3,0.3l0.3-0.3c0.9-0.8,2.1-1.2,3.3-1.2
	c2.8,0,5,2.3,5,5c0,0.5-0.1,1.1-0.3,1.6l-0.2,0.5l0.5,0.1c1.7,0.5,3,1.8,3.5,3.4c0,0.2,0.1,0.3,0.1,0.5s0,0.3,0.1,0.5
	c0,0.1,0,0.3,0,0.4c0,2.8-2.3,5-5,5c-1.6,0-3.1-0.8-4.1-2.1L32.2,30l-0.4,0.5l0,0c-0.2,0.3-0.4,0.5-0.6,0.7s-0.3,0.3-0.5,0.4
	c-0.1,0.1-0.2,0.1-0.3,0.2c-0.3-3.1-2.9-5.4-6-5.4c-1.3,0-2.5,0.4-3.6,1.2c-1-0.8-2.3-1.2-3.6-1.2c-0.5,0-0.9,0.1-1.4,0.2
	C16.3,24.4,18.2,22.7,20.5,22.5z"/>
</svg>
