<?xml version="1.0" encoding="utf-8"?>
<!-- Generator: Adobe Illustrator 19.1.1, SVG Export Plug-In . SVG Version: 6.00 Build 0)  -->
<svg version="1.1" id="Calque_1" xmlns="http://www.w3.org/2000/svg" xmlns:xlink="http://www.w3.org/1999/xlink" x="0px" y="0px"
	 viewBox="0 0 60 60" style="enable-background:new 0 0 60 60;" xml:space="preserve">
<style type="text/css">
	.st0{fill:none;}
	.st1{fill:#FFFFFF;}
</style>
<rect class="st0" width="60" height="60"/>
<path class="st1" d="M51.1,33.5l-3.3-5.7c-0.1-0.2-0.3-0.3-0.5-0.3c-0.1,0-0.2,0-0.3,0.1s-0.2,0.2-0.3,0.4c0,0.2,0,0.3,0.1,0.5
	l2.6,4.4l-4.6-1.2l0.3-1.1c0.1-0.3-0.1-0.7-0.4-0.8c-0.1,0-0.1,0-0.2,0c-0.3,0-0.5,0.2-0.6,0.5l-0.3,1.1l-2.9-0.8l-1.8-3
	c-0.1-0.2-0.3-0.3-0.5-0.3c-0.1,0-0.2,0-0.3,0.1s-0.2,0.2-0.3,0.4c0,0.2,0,0.3,0.1,0.5l1.1,2l-8.2-2.2l4.6-7.1l0.5,2.2
	c0.1,0.3,0.3,0.5,0.6,0.5h0.1c0.1,0,0.2-0.1,0.3-0.1c0.2-0.2,0.3-0.4,0.2-0.6l-0.7-3.4l1.6-2.5l1,0.6c0.1,0.1,0.2,0.1,0.3,0.1
	s0.3-0.1,0.4-0.1c0.1,0,0.1-0.1,0.1-0.1c0.2-0.3,0.1-0.7-0.2-0.9l-1-0.6l2.6-4l1.1,5c0.1,0.3,0.3,0.5,0.6,0.5H43
	c0.1,0,0.2-0.1,0.3-0.1c0.2-0.2,0.3-0.4,0.2-0.6L42,10c-0.1-0.3-0.3-0.5-0.6-0.5h-0.1l-6.5,1.4c-0.2,0-0.3,0.1-0.4,0.3
	c-0.1,0.1-0.1,0.3-0.1,0.5c0.1,0.3,0.3,0.5,0.6,0.5H35l5-1.1l-2.6,4l-1-0.6c-0.1-0.1-0.2-0.1-0.3-0.1c-0.2,0-0.4,0.1-0.5,0.3
	c-0.2,0.3-0.1,0.7,0.2,0.9l1,0.6l-1.6,2.5l-3.4,0.7c-0.2,0-0.3,0.1-0.4,0.3c-0.1,0.1-0.1,0.3-0.1,0.5c0.1,0.3,0.3,0.5,0.6,0.5H32
	l2.2-0.5l-4.6,7.1l-5.3-6.6l2.2,0.2l0,0h0.1c0.1,0,0.3-0.1,0.4-0.1c0.1-0.1,0.2-0.3,0.2-0.4c0-0.3-0.2-0.7-0.6-0.7l-3.5-0.4L21.2,17
	l0.9-0.7c0.1-0.1,0.2-0.3,0.2-0.4c0-0.2,0-0.3-0.1-0.5c-0.1-0.1-0.3-0.2-0.5-0.2c-0.1,0-0.3,0.1-0.4,0.1L20.4,16l-3-3.7l5.1,0.5l0,0
	h0.1c0.1,0,0.3-0.1,0.4-0.1c0.1-0.1,0.2-0.3,0.2-0.4c0-0.3-0.2-0.7-0.6-0.7L16,10.9l0,0h-0.1c-0.3,0-0.6,0.2-0.6,0.6L14.7,18
	c0,0.2,0,0.3,0.1,0.5s0.3,0.2,0.4,0.2l0,0h0.1c0.1,0,0.3-0.1,0.4-0.1c0.1-0.1,0.2-0.3,0.2-0.4l0.5-5.1l3,3.7l-0.9,0.7
	c-0.1,0.1-0.2,0.3-0.2,0.4c0,0.2,0,0.3,0.1,0.5c0.1,0.1,0.3,0.2,0.5,0.2c0.1,0,0.3-0.1,0.4-0.1l0.9-0.7l1.9,2.3l-0.4,3.5
	c0,0.2,0,0.3,0.1,0.5s0.3,0.2,0.4,0.2l0,0h0.1c0.1,0,0.3-0.1,0.4-0.1c0.1-0.1,0.2-0.3,0.2-0.4l0.2-2.2l5.3,6.6l-7.9,3l0.9-2.1
	c0.1-0.2,0.1-0.3,0-0.5s-0.2-0.3-0.3-0.4c-0.1,0-0.2-0.1-0.3-0.1c-0.3,0-0.5,0.1-0.6,0.4L19,31.7l-2.8,1.1l-0.4-1.1
	c-0.1-0.2-0.3-0.4-0.6-0.4c-0.1,0-0.2,0-0.2,0c-0.3,0.1-0.5,0.5-0.4,0.8l0.4,1.1l-4.4,1.7l2.1-4.7c0.1-0.2,0.1-0.3,0-0.5
	s-0.2-0.3-0.3-0.4c-0.1,0-0.2-0.1-0.3-0.1c-0.3,0-0.5,0.1-0.6,0.4l-2.7,6.1c-0.1,0.2-0.1,0.3,0,0.5s0.2,0.3,0.3,0.4l6.1,2.7
	c0.1,0,0.2,0.1,0.3,0.1s0.3-0.1,0.4-0.1c0.1-0.1,0.1-0.1,0.2-0.2c0.1-0.2,0.1-0.3,0-0.5s-0.2-0.3-0.3-0.4l-4.7-2.1l4.4-1.7l0.4,1.1
	c0.1,0.2,0.3,0.4,0.6,0.4c0.1,0,0.2,0,0.2,0c0.1,0,0.1-0.1,0.2-0.1c0.2-0.2,0.3-0.5,0.2-0.7L16.7,34l2.8-1.1l3.2,1.4
	c0.1,0,0.2,0.1,0.3,0.1c0.1,0,0.3-0.1,0.4-0.1c0.1-0.1,0.1-0.1,0.2-0.2c0.1-0.2,0.1-0.3,0-0.5s-0.2-0.3-0.3-0.4l-2.1-0.9l7.9-3
	l0.5,8.4l-1.7-1.5C27.7,36,27.6,36,27.4,36s-0.4,0.1-0.5,0.2c-0.1,0.1-0.2,0.3-0.2,0.5s0.1,0.3,0.2,0.4l2.6,2.4l0.2,3l-1.2,0.1
	c-0.3,0-0.6,0.3-0.6,0.7c0,0.3,0.3,0.6,0.6,0.6l1.2-0.1l0.3,4.7L26.3,45c-0.1-0.1-0.3-0.2-0.4-0.2c-0.2,0-0.4,0.1-0.5,0.2
	c-0.2,0.3-0.2,0.7,0.1,0.9l4.9,4.4c0.1,0.1,0.3,0.2,0.4,0.2s0.3-0.1,0.4-0.1c0,0,0.1,0,0.1-0.1l4.4-4.9c0.2-0.3,0.2-0.7,0-0.9
	c-0.1-0.1-0.3-0.2-0.4-0.2c-0.2,0-0.4,0.1-0.5,0.2l-3.4,3.8l-0.3-4.7l1.2-0.1c0.1,0,0.3-0.1,0.4-0.1c0.2-0.1,0.2-0.3,0.2-0.5
	c0-0.3-0.3-0.6-0.6-0.6l-1.3,0l-0.2-3l2.4-2.6c0.2-0.3,0.2-0.7,0-0.9c-0.1-0.1-0.3-0.2-0.4-0.2c-0.2,0-0.4,0.1-0.5,0.2l-1.5,1.7
	l-0.5-8.4l8.2,2.2l-2,1.1c-0.1,0.1-0.3,0.2-0.3,0.4s0,0.3,0.1,0.5s0.3,0.3,0.5,0.3c0.1,0,0.2,0,0.3-0.1l3-1.8l2.9,0.8l-0.3,1.1
	c0,0.2,0,0.3,0.1,0.5c0.1,0.1,0.2,0.3,0.4,0.3c0.1,0,0.1,0,0.2,0c0.1,0,0.3-0.1,0.4-0.1c0.1-0.1,0.2-0.2,0.2-0.3l0.3-1.1l4.6,1.2
	l-4.4,2.6c-0.1,0.1-0.2,0.2-0.3,0.4s0,0.3,0.1,0.5s0.3,0.3,0.5,0.3c0.1,0,0.2,0,0.3-0.1l5.7-3.3c0,0,0.1,0,0.1-0.1
	C51.2,34.1,51.2,33.8,51.1,33.5z"/>
</svg>
