<?xml version="1.0" encoding="utf-8"?>
<!-- Generator: Adobe Illustrator 19.1.1, SVG Export Plug-In . SVG Version: 6.00 Build 0)  -->
<svg version="1.1" id="Calque_1" xmlns="http://www.w3.org/2000/svg" xmlns:xlink="http://www.w3.org/1999/xlink" x="0px" y="0px"
	 viewBox="0 0 60 60" style="enable-background:new 0 0 60 60;" xml:space="preserve">
<style type="text/css">
	.st0{fill:none;}
	.st1{fill:#FFFFFF;}
</style>
<rect class="st0" width="60" height="60"/>
<g>
	<path class="st1" d="M49.5,18.2c0-0.1-0.1-0.1-0.2-0.2l-1.5-0.5l0,0h-0.1c-0.1,0-0.3,0.1-0.3,0.2s0,0.2,0,0.3
		c0,0.1,0.1,0.1,0.2,0.2l0.7,0.3l-0.4,0.2v-0.1c-0.1-0.1-0.2-0.2-0.3-0.2h-0.1h-0.1c-0.2,0.1-0.2,0.3-0.2,0.5V19h-0.3l-0.7-0.3l0,0
		h-0.1c-0.1,0-0.3,0.1-0.3,0.2s0,0.2,0,0.3s0.1,0.1,0.2,0.2h0.1L44.8,20l-0.2-1.3h0.1c0.1,0,0.1,0.1,0.2,0.1c0.1,0,0.2-0.1,0.3-0.1
		c0.1-0.1,0.1-0.2,0.1-0.3c0-0.1-0.1-0.2-0.1-0.2l-0.6-0.5l-0.1-0.4h0.1c0.1,0,0.2-0.1,0.2-0.1c0.1-0.1,0.1-0.2,0.1-0.3
		c0-0.2-0.2-0.3-0.3-0.3h-0.1l-0.1-0.5l0.6,0.5c0.1,0,0.1,0.1,0.2,0.1c0.1,0,0.2-0.1,0.3-0.1c0.1-0.1,0.1-0.4-0.1-0.5l-1.2-1
		C44.1,15,44,15,43.9,15l0,0c-0.1,0-0.2,0-0.3,0.1l-1,1.2c-0.1,0.1-0.1,0.2-0.1,0.3c0,0.1,0.1,0.2,0.1,0.2c0.1,0,0.1,0.1,0.2,0.1
		c0.1,0,0.2-0.1,0.3-0.1l0.5-0.6l0.1,0.5h-0.1c-0.1,0-0.2,0.1-0.2,0.1c-0.1,0.1-0.1,0.2-0.1,0.3c0,0.2,0.2,0.3,0.3,0.3h0.1l0.1,0.4
		l-0.5,0.6c-0.1,0.1-0.1,0.4,0.1,0.5c0.1,0,0.1,0.1,0.2,0.1c0.1,0,0.2-0.1,0.3-0.1v-0.1l0.2,1.3l-1.3-0.3h0.1
		c0.1-0.1,0.1-0.1,0.1-0.2s0-0.2-0.1-0.3c-0.1-0.1-0.2-0.2-0.3-0.2s-0.1,0-0.2,0.1l-0.6,0.4l-0.4-0.1v-0.1c0-0.2-0.1-0.4-0.3-0.4
		l0,0l0,0c-0.2,0-0.3,0.1-0.3,0.3v0.1l-0.5-0.1l0.6-0.4c0.1-0.1,0.1-0.1,0.1-0.2s0-0.2-0.1-0.3c-0.1-0.1-0.2-0.2-0.3-0.2
		s-0.1,0-0.2,0.1l-1.3,0.9C39,19.3,39,19.3,39,19.4s0,0.2,0.1,0.3L40,21c0.1,0.1,0.2,0.2,0.3,0.2s0.1,0,0.2-0.1
		c0.1-0.1,0.1-0.1,0.1-0.2s0-0.2-0.1-0.3L40.2,20l0.5,0.1v0.1c0,0.2,0.1,0.4,0.3,0.4l0,0l0,0c0.2,0,0.3-0.1,0.3-0.3v-0.1l0.4,0.1
		l0.4,0.6c0.1,0.1,0.2,0.2,0.3,0.2s0.1,0,0.2-0.1c0.1-0.1,0.1-0.1,0.1-0.2s0-0.2-0.1-0.3v-0.1l1.3,0.3l-0.6,1.1v-0.1
		c0-0.1-0.2-0.2-0.3-0.2l0,0h-0.1c-0.2,0-0.3,0.2-0.2,0.4l0.2,0.7L42.7,23h-0.1h-0.1h-0.1c-0.1,0-0.2,0.1-0.3,0.2
		c0,0.1-0.1,0.2,0,0.3c0,0.1,0.1,0.2,0.2,0.2h0.1l-0.2,0.4L42,23.4c0-0.1-0.2-0.2-0.3-0.2l0,0h-0.1c-0.2,0-0.3,0.2-0.2,0.4l0.4,1.5
		c0,0.1,0.2,0.2,0.3,0.2l0,0h0.1l1.5-0.4c0.2-0.1,0.3-0.2,0.2-0.4c0-0.1-0.2-0.2-0.3-0.2l0,0h-0.1l-0.7,0.2L43,24h0.1h0.1h0.1
		c0.1,0,0.2-0.1,0.3-0.2c0.1-0.2,0-0.4-0.1-0.5h-0.1l0.2-0.4l0.7-0.2c0.1,0,0.2-0.1,0.2-0.2s0.1-0.2,0-0.3c0-0.1-0.2-0.2-0.3-0.2
		l0,0h-0.1H44l0.6-1.1l0.9,0.9h-0.1l0,0c-0.2,0-0.3,0.1-0.4,0.3c0,0.1,0,0.2,0.1,0.2c0.1,0.1,0.1,0.1,0.2,0.1h0.8l0.3,0.3l-0.1,0.1
		c-0.1,0.1-0.1,0.1-0.1,0.2s0,0.2,0.1,0.2c0.1,0.1,0.2,0.1,0.3,0.1s0.2,0,0.2-0.1l0.1-0.1l0.3,0.3h-0.8l0,0c-0.2,0-0.3,0.1-0.4,0.3
		c0,0.1,0,0.2,0.1,0.2c0.1,0.1,0.1,0.1,0.2,0.1l1.6,0.1l0,0l0,0c0.2,0,0.3-0.2,0.3-0.3l0.1-1.6c0-0.2-0.1-0.3-0.3-0.4l0,0
		c-0.2,0-0.3,0.1-0.4,0.3v0.8l-0.3-0.3l0.1-0.1c0.1-0.1,0.1-0.3,0-0.5c-0.1-0.1-0.2-0.1-0.3-0.1s-0.2,0-0.2,0.1l-0.1,0.1l-0.3-0.3
		V21c0-0.2-0.1-0.3-0.3-0.4l0,0c-0.2,0-0.3,0.1-0.4,0.3V21l-0.9-0.9l1.2-0.5v0.1c0,0.1,0,0.2,0,0.3c0,0.1,0.1,0.1,0.2,0.2l0,0h0.1
		c0.2,0,0.3-0.1,0.3-0.2l0.3-0.7l0.4-0.2v0.1c0.1,0.1,0.2,0.2,0.3,0.2l0,0h0.1c0.2-0.1,0.2-0.3,0.2-0.5v-0.1l0.4-0.2l-0.3,0.7
		c0,0.1,0,0.2,0,0.3c0,0.1,0.1,0.1,0.2,0.2l0,0h0.1c0.2,0,0.3-0.1,0.3-0.2l0.5-1.5C49.6,18.3,49.6,18.2,49.5,18.2z"/>
	<path class="st1" d="M30.5,22.1L29,21.5l0,0h-0.1c-0.1,0-0.3,0.1-0.3,0.2s0,0.2,0,0.3c0,0.1,0.1,0.1,0.2,0.2l0.7,0.3l-0.4,0.2v-0.1
		c-0.1-0.1-0.2-0.2-0.3-0.2h-0.1h-0.1c-0.2,0.1-0.2,0.3-0.2,0.5V23L28,23.2l-0.7-0.3l0,0h-0.1c-0.1,0-0.3,0.1-0.3,0.2s0,0.2,0,0.3
		c0,0.1,0.1,0.1,0.2,0.2h0.1L26,24l-0.2-1.3h0.1c0.1,0,0.1,0.1,0.2,0.1s0.2-0.1,0.3-0.1c0.1-0.1,0.1-0.2,0.1-0.3
		c0-0.1-0.1-0.2-0.1-0.2l-0.6-0.5l-0.1-0.4h0.1c0.1,0,0.2-0.1,0.2-0.1c0.1-0.1,0.1-0.2,0.1-0.3c0-0.2-0.2-0.3-0.3-0.3h-0.1l-0.1-0.5
		l0.6,0.5c0.1,0,0.1,0.1,0.2,0.1s0.2-0.1,0.3-0.1c0.1-0.1,0.1-0.2,0.1-0.3c0-0.1-0.1-0.2-0.1-0.2l-1.2-1c-0.1,0-0.1-0.1-0.2-0.1
		s-0.2,0-0.3,0.1l-1,1.2c-0.1,0.1-0.1,0.4,0.1,0.5c0.1,0,0.1,0.1,0.2,0.1s0.2-0.1,0.3-0.1l0.5-0.6l0.1,0.5h-0.1
		c-0.2,0-0.3,0.2-0.3,0.4c0,0.2,0.2,0.3,0.3,0.3h0.1l0.1,0.4l-0.5,0.6c-0.1,0.1-0.1,0.2-0.1,0.3c0,0.1,0.1,0.2,0.1,0.2
		c0.1,0,0.1,0.1,0.2,0.1s0.2-0.1,0.3-0.1v-0.1l0.2,1.3l-1.3-0.3h0.1c0.1-0.1,0.1-0.1,0.1-0.2s0-0.2-0.1-0.3
		c-0.1-0.1-0.2-0.2-0.3-0.2c-0.1,0-0.1,0-0.2,0.1l-0.6,0.4l-0.4-0.1v-0.1c0-0.2-0.1-0.4-0.3-0.4l0,0l0,0c-0.2,0-0.3,0.1-0.3,0.3v0.1
		l-0.5-0.1l0.6-0.4c0.1-0.1,0.1-0.1,0.1-0.2s0-0.2-0.1-0.3c-0.1-0.1-0.2-0.2-0.3-0.2c-0.1,0-0.1,0-0.2,0.1l-1.3,0.9
		c-0.1,0.1-0.1,0.1-0.1,0.2s0,0.2,0.1,0.3l0.9,1.3c0.1,0.1,0.2,0.2,0.3,0.2c0.1,0,0.1,0,0.2-0.1S22,25,22,24.9s0-0.2-0.1-0.3
		L21.4,24l0.5,0.1v0.1c0,0.2,0.1,0.4,0.3,0.4l0,0l0,0c0.2,0,0.3-0.1,0.3-0.3v-0.1l0.4,0.1l0.4,0.6c0.1,0.1,0.2,0.2,0.3,0.2
		c0.1,0,0.1,0,0.2-0.1c0.2,0,0.2,0,0.2-0.1s0-0.2-0.1-0.3v-0.1l1.3,0.3l-0.6,1.1v-0.1c0-0.1-0.2-0.2-0.3-0.2l0,0h-0.1
		c-0.2,0-0.3,0.2-0.2,0.4l0.2,0.7L24,27.1h-0.1h-0.1h-0.1c-0.1,0-0.2,0.1-0.3,0.2c-0.1,0.2,0,0.4,0.1,0.5h0.1l-0.2,0.4l-0.2-0.7
		c0-0.1-0.2-0.2-0.3-0.2l0,0h-0.1c-0.2,0-0.3,0.2-0.2,0.4l0.4,1.5c0,0.1,0.2,0.2,0.3,0.2l0,0h0.1l1.5-0.4c0.1,0,0.2-0.1,0.2-0.2
		s0.1-0.2,0-0.3c0-0.1-0.2-0.2-0.3-0.2l0,0h-0.1L24,28.5l0.2-0.4h0.1h0.1h0.1c0.1,0,0.2-0.1,0.3-0.2c0.1-0.2,0-0.4-0.1-0.5h-0.1
		l0.2-0.4l0.7-0.2c0.1,0,0.2-0.1,0.2-0.2s0.1-0.2,0-0.3c0-0.1-0.2-0.2-0.3-0.2l0,0h-0.1h-0.1l0.6-1.1l0.9,0.9h-0.1l0,0
		c-0.2,0-0.3,0.1-0.4,0.3c0,0.2,0.1,0.3,0.3,0.4h0.8l0.3,0.3L27.5,27c-0.1,0.1-0.1,0.3,0,0.5c0.1,0.1,0.2,0.1,0.3,0.1
		c0.1,0,0.2,0,0.2-0.1l0.1-0.1l0.3,0.3h-0.8l0,0c-0.2,0-0.3,0.1-0.4,0.3c0,0.1,0,0.2,0.1,0.2c0.1,0.1,0.1,0.1,0.2,0.1l1.6,0.1l0,0
		l0,0c0.2,0,0.3-0.2,0.3-0.3l0.1-1.6c0-0.1,0-0.2-0.1-0.2c-0.1-0.1-0.1-0.1-0.2-0.1l0,0c-0.2,0-0.3,0.1-0.4,0.3v0.8L28.5,27l0.1-0.1
		c0.1-0.1,0.1-0.1,0.1-0.2s0-0.2-0.1-0.2c-0.1-0.1-0.2-0.1-0.3-0.1c-0.1,0-0.2,0-0.2,0.1L28,26.6l-0.3-0.3v-0.8c0-0.1,0-0.2-0.1-0.2
		c-0.1-0.1-0.1-0.1-0.2-0.1l0,0c-0.2,0-0.3,0.1-0.4,0.3v0.1l-0.9-0.9l1.2-0.5v0.1c0,0.1,0,0.2,0,0.3c0,0.1,0.1,0.1,0.2,0.2l0,0h0.1
		c0.2,0,0.3-0.1,0.3-0.2l0.3-0.7l0.4-0.2v0.1c0.1,0.1,0.2,0.2,0.3,0.2l0,0H29c0.2-0.1,0.2-0.3,0.2-0.5v-0.1l0.4-0.2l-0.3,0.7
		c0,0.1,0,0.2,0,0.3c0,0.1,0.1,0.1,0.2,0.2l0,0h0.1c0.2,0,0.3-0.1,0.3-0.2l0.5-1.5c0-0.1,0-0.2,0-0.3C30.7,22.2,30.6,22.1,30.5,22.1
		z"/>
	<path class="st1" d="M33.8,19.7c0-0.1,0.1-0.2,0-0.3c0-0.1-0.2-0.2-0.3-0.2l0,0h-0.1l-0.7,0.2l0.2-0.4H33h0.1h0.1
		c0.1,0,0.2-0.1,0.3-0.2c0-0.1,0.1-0.2,0-0.3c0-0.1-0.1-0.2-0.2-0.2h-0.1l0.2-0.4l0.7-0.2c0.2-0.1,0.3-0.2,0.2-0.4
		c0-0.1-0.2-0.2-0.3-0.2l0,0h-0.1h-0.1l0.6-1.1l0.9,0.9h-0.1l0,0c-0.2,0-0.3,0.1-0.4,0.3c0,0.1,0,0.2,0.1,0.2
		c0.1,0.1,0.1,0.1,0.2,0.1h0.8l0.3,0.3l-0.1,0.1c-0.1,0.1-0.1,0.3,0,0.5c0.1,0.1,0.2,0.1,0.3,0.1s0.2,0,0.2-0.1l0.1-0.1l0.3,0.3
		h-0.8l0,0c-0.2,0-0.3,0.1-0.4,0.3c0,0.1,0,0.2,0.1,0.2c0.1,0.1,0.1,0.1,0.2,0.1l1.6,0.1l0,0l0,0c0.2,0,0.3-0.2,0.3-0.3l0.1-1.6
		c0-0.2-0.1-0.3-0.3-0.4l0,0c-0.2,0-0.3,0.1-0.4,0.3v0.8l-0.3-0.3l0.1-0.1c0.1-0.1,0.1-0.1,0.1-0.2s0-0.2-0.1-0.2
		c-0.1-0.1-0.2-0.1-0.3-0.1s-0.2,0-0.2,0.1l-0.1,0.1l-0.3-0.3v-0.8c0-0.2-0.1-0.3-0.3-0.4l0,0c-0.2,0-0.3,0.1-0.4,0.3v0.1l-0.9-0.9
		l1.2-0.5V15c0,0.1,0,0.2,0,0.3s0.1,0.1,0.2,0.2l0,0h0.1c0.2,0,0.3-0.1,0.3-0.2l0.3-0.7l0.4-0.2v0.1c0.1,0.1,0.2,0.2,0.3,0.2l0,0
		h0.1c0.2-0.1,0.2-0.3,0.2-0.5v-0.1l0.4-0.2l-0.3,0.7c0,0.1,0,0.2,0,0.3s0.1,0.1,0.2,0.2l0,0h0.1c0.2,0,0.3-0.1,0.3-0.2l0.5-1.5
		c0-0.1,0-0.2,0-0.3s-0.1-0.1-0.2-0.2l-1.5-0.5l0,0h-0.1c-0.1,0-0.3,0.1-0.3,0.2c0,0.1,0,0.2,0,0.3s0.1,0.1,0.2,0.2l0.7,0.3
		l-0.4,0.2v-0.1c-0.1-0.1-0.2-0.2-0.3-0.2H37h-0.1c-0.2,0.1-0.2,0.3-0.2,0.5v0.1l0.1,0.1l-0.7-0.3l0,0H36c-0.1,0-0.3,0.1-0.3,0.2
		c0,0.1,0,0.2,0,0.3s0.1,0.1,0.2,0.2H36L34.8,15l-0.2-1.3h0.1c0.1,0,0.1,0.1,0.2,0.1c0.1,0,0.2-0.1,0.3-0.1c0.1-0.1,0.1-0.4-0.1-0.5
		l-0.6-0.5l-0.1-0.4h0.1c0.1,0,0.2-0.1,0.2-0.1c0.1-0.1,0.1-0.2,0.1-0.3c0-0.2-0.2-0.3-0.3-0.3h-0.1l-0.1-0.5l0.6,0.5
		c0.1,0,0.1,0.1,0.2,0.1c0.1,0,0.2-0.1,0.3-0.1c0.1-0.1,0.1-0.2,0.1-0.3s-0.1-0.2-0.1-0.2l-1.2-1C34,10.1,34,10,33.9,10l0,0
		c-0.1,0-0.2,0-0.3,0.1l-1,1.2c-0.1,0.1-0.1,0.2-0.1,0.3s0.1,0.2,0.1,0.2c0.1,0,0.1,0.1,0.2,0.1c0.1,0,0.2-0.1,0.3-0.1l0.5-0.6
		l0.1,0.5h-0.1c-0.1,0-0.2,0.1-0.2,0.1c-0.1,0.1-0.1,0.2-0.1,0.3c0,0.2,0.2,0.3,0.3,0.3h0.1l0.1,0.4l-0.5,0.6
		c-0.1,0.1-0.1,0.4,0.1,0.5c0.1,0,0.1,0.1,0.2,0.1c0.1,0,0.2-0.1,0.3-0.1v-0.1l0.2,1.3l-1.3-0.3h0.1c0.1-0.1,0.1-0.1,0.1-0.2
		c0-0.1,0-0.2-0.1-0.3s-0.2-0.2-0.3-0.2s-0.1,0-0.2,0.1l-0.6,0.4l-0.4-0.1v-0.1c0-0.2-0.1-0.4-0.3-0.4l0,0l0,0
		c-0.2,0-0.3,0.1-0.3,0.3v0.1l-0.5-0.1l0.6-0.4c0.1-0.1,0.1-0.1,0.1-0.2c0-0.1,0-0.2-0.1-0.3s-0.2-0.2-0.3-0.2c-0.1,0-0.1,0-0.2,0.1
		l-1.3,0.9C29,14.3,29,14.3,29,14.4c0,0.1,0,0.2,0.1,0.3L30,16c0.1,0.1,0.2,0.2,0.3,0.2c0.1,0,0.1,0,0.2-0.1s0.1-0.1,0.1-0.2
		c0-0.1,0-0.2-0.1-0.3L30.2,15l0.5,0.1v0.1c0,0.2,0.1,0.4,0.3,0.4l0,0l0,0c0.2,0,0.3-0.1,0.3-0.3v-0.1l0.4,0.1l0.4,0.6
		c0.1,0.1,0.2,0.2,0.3,0.2s0.1,0,0.2-0.1c0.1-0.1,0.1-0.1,0.1-0.2c0-0.1,0-0.2-0.1-0.3v-0.1l1.3,0.3l-0.6,1.1v-0.1
		c0-0.1-0.2-0.2-0.3-0.2l0,0h-0.1c-0.1,0-0.2,0.1-0.2,0.2s-0.1,0.2,0,0.3l0.2,0.7l-0.2,0.4h-0.1h-0.1h-0.1c-0.1,0-0.2,0.1-0.3,0.2
		c0,0.1-0.1,0.2,0,0.3c0,0.1,0.1,0.2,0.2,0.2h0.1l-0.2,0.4L32,18.5c0-0.1-0.2-0.2-0.3-0.2l0,0h-0.1c-0.1,0-0.2,0.1-0.2,0.2
		s-0.1,0.2,0,0.3l0.4,1.5c0,0.1,0.2,0.2,0.3,0.2l0,0h0.1l1.5-0.4C33.7,19.9,33.8,19.8,33.8,19.7z"/>
	<path class="st1" d="M14.8,19.1L14.8,19.1L14.8,19.1L14.8,19.1l0.6-0.9l0.7,0.9l0,0l0,0c-0.2,0-0.3,0.1-0.4,0.3
		c0,0.1,0,0.2,0.1,0.2c0.1,0.1,0.1,0.1,0.2,0.1l0.7,0.1l0.2,0.3h-0.1c-0.1,0.1-0.2,0.3-0.1,0.5c0.1,0.1,0.2,0.1,0.3,0.1
		c0.1,0,0.1,0,0.2-0.1h0.1l0.2,0.3l-0.7-0.1l0,0c-0.2,0-0.3,0.1-0.4,0.3c0,0.1,0,0.2,0.1,0.2c0.1,0.1,0.1,0.1,0.2,0.1l1.5,0.2l0,0
		l0,0c0.2,0,0.3-0.1,0.3-0.3l0.2-1.5c0-0.2-0.1-0.4-0.3-0.4l0,0c-0.2,0-0.3,0.1-0.4,0.3l-0.1,0.7l-0.2-0.3h0.1
		c0.1-0.1,0.2-0.3,0.1-0.5c-0.1-0.1-0.2-0.1-0.3-0.1l0,0c-0.1,0-0.1,0-0.2,0.1h-0.1l-0.2-0.3l0.1-0.7c0-0.2-0.1-0.4-0.3-0.4l0,0
		c-0.2,0-0.3,0.1-0.4,0.3l0,0l-0.7-0.9l1.1-0.4l0,0c0,0.1,0,0.2,0,0.3c0,0.1,0.1,0.2,0.2,0.2h0.1h0.1c0.1,0,0.2-0.1,0.3-0.2l0.3-0.6
		l0.4-0.1v0.1c0,0.1,0.2,0.2,0.3,0.2l0,0h0.1c0.2-0.1,0.3-0.3,0.2-0.4v-0.1l0.4-0.1L19,17.2c0,0.1,0,0.2,0,0.3
		c0,0.1,0.1,0.2,0.2,0.2h0.1h0.1c0.1,0,0.2-0.1,0.3-0.2l0.6-1.3c0-0.1,0-0.2,0-0.3c0-0.1-0.1-0.2-0.2-0.2l-1.3-0.6h-0.1h-0.1
		c-0.1,0-0.2,0.1-0.3,0.2c0,0.1,0,0.2,0,0.3s0.1,0.2,0.2,0.2L19,16l-0.4,0.1V16c0-0.1-0.2-0.2-0.3-0.2l0,0h-0.1
		C18,15.9,18,16.1,18,16.3v0.1l-0.4,0.1L17,16.1h-0.1h-0.1c-0.1,0-0.2,0.1-0.3,0.2c0,0.1,0,0.2,0,0.3c0,0.1,0.1,0.2,0.2,0.2l0,0
		l-1.1,0.4v-1.1l0,0c0.1,0.1,0.1,0.1,0.2,0.1c0.1,0,0.2,0,0.2-0.1c0.1-0.1,0.1-0.3,0-0.5L15.7,15v-0.4h0.1c0.1,0,0.2,0,0.2-0.1
		s0.1-0.1,0.1-0.2c0-0.2-0.2-0.3-0.3-0.3h-0.1v-0.4l0.5,0.5c0.1,0.1,0.1,0.1,0.2,0.1s0.2,0,0.2-0.1c0.1-0.1,0.1-0.3,0-0.5l-1.1-1
		c-0.1-0.1-0.1-0.1-0.2-0.1c-0.1,0-0.2,0-0.2,0.1l-1,1.1C14,13.8,14,13.8,14,13.9c0,0.1,0,0.2,0.1,0.2c0.1,0.1,0.1,0.1,0.2,0.1
		c0.1,0,0.2,0,0.2-0.1l0.5-0.5V14h-0.1c-0.1,0-0.2,0-0.2,0.1s-0.1,0.1-0.1,0.2c0,0.2,0.2,0.3,0.3,0.3H15V15l-0.5,0.5
		c-0.1,0.1-0.1,0.1-0.1,0.2c0,0.1,0,0.2,0.1,0.2c0.1,0.1,0.1,0.1,0.2,0.1c0.1,0,0.2,0,0.2-0.1l0,0V17l-1.1-0.3l0,0
		c0.1,0,0.1-0.1,0.2-0.2s0-0.2,0-0.3c-0.1-0.1-0.2-0.2-0.3-0.2h-0.1h-0.1L13,16.5l-0.4-0.1v-0.1c0.1-0.2,0-0.4-0.2-0.4l0,0h-0.1
		c-0.1,0-0.3,0.1-0.3,0.2v0.1l-0.4-0.1l0.6-0.3c0.1,0,0.1-0.1,0.2-0.2c0-0.1,0-0.2,0-0.3c-0.1-0.1-0.2-0.2-0.3-0.2H12h-0.1l-1.3,0.7
		c-0.1,0-0.1,0.1-0.2,0.2c0,0.1,0,0.2,0,0.3l0.7,1.3c0.1,0.1,0.2,0.2,0.3,0.2h0.1h0.1c0.1,0,0.1-0.1,0.2-0.2c0-0.1,0-0.2,0-0.3
		l-0.3-0.6l0.4,0.1v0.1c-0.1,0.2,0,0.4,0.2,0.4l0,0h0.1c0.2,0,0.3-0.1,0.3-0.2V17l0.4,0.1l0.3,0.6c0.1,0.1,0.2,0.2,0.3,0.2h0.1h0.1
		c0.1,0,0.1-0.1,0.2-0.2c0-0.1,0-0.2,0-0.3l0,0l1.1,0.3l-0.7,0.9l0,0c0-0.2-0.2-0.3-0.3-0.3l0,0l0,0c-0.2,0-0.3,0.2-0.3,0.4l0.1,0.7
		l-0.2,0.3h-0.1c-0.1,0-0.1-0.1-0.2-0.1c-0.1,0-0.2,0.1-0.3,0.1c-0.1,0.1-0.1,0.2-0.1,0.3c0,0.1,0.1,0.2,0.1,0.2h0.1l-0.2,0.3
		L12.7,20c0-0.2-0.2-0.3-0.3-0.3l0,0l0,0c-0.1,0-0.2,0.1-0.2,0.1C12,20,12,20.1,12,20.2l0.3,1.4c0,0.2,0.2,0.3,0.3,0.3l0,0l0,0
		l1.4-0.3c0.1,0,0.2-0.1,0.2-0.1s0.1-0.2,0.1-0.3c0-0.2-0.2-0.3-0.3-0.3l0,0l0,0L13.4,21l0.2-0.3h0.1c0.1,0,0.1,0.1,0.2,0.1
		c0.1,0,0.2-0.1,0.3-0.1c0.1-0.1,0.1-0.2,0.1-0.3c0-0.1-0.1-0.2-0.1-0.2h-0.1l0.2-0.3l0.7-0.1c0.2,0,0.3-0.2,0.3-0.4
		C15.1,19.2,15,19.1,14.8,19.1z"/>
	<path class="st1" d="M20.1,33.7l0.1,0.2c-0.1,0.1-0.2,0.3-0.1,0.4l0.1,0.1c-0.2,0-0.3,0.1-0.3,0.3s0.1,0.3,0.3,0.4l1.1,0.2
		c0.2,0,0.3-0.1,0.4-0.3l0.2-1.1c0-0.2-0.1-0.3-0.3-0.4l0,0c-0.2,0-0.3,0.1-0.3,0.3c0,0,0-0.1-0.1-0.1c-0.1-0.1-0.2-0.1-0.3-0.1
		h-0.1l-0.1,0.1l-0.1-0.2l0.1-0.5c0-0.1,0-0.2-0.1-0.2c-0.1-0.1-0.1-0.1-0.2-0.1l0,0c-0.2,0-0.3,0.1-0.3,0.2l-0.4-0.5l0.6-0.2v0.1
		c0,0.1,0.1,0.1,0.2,0.2h0.1h0.1c0.1,0,0.2-0.1,0.3-0.2l0.2-0.5l0.2-0.1c0,0.1,0.2,0.2,0.3,0.2l0,0h0.1c0,0,0.1,0,0.1-0.1
		c0,0.1,0,0.2,0,0.2c0,0.1,0.1,0.1,0.2,0.2h0.1h0.1c0.1,0,0.2-0.1,0.3-0.2l0.5-1c0-0.1,0-0.2,0-0.2s-0.1-0.1-0.2-0.2l-1-0.5h-0.1
		h-0.1c-0.1,0-0.2,0.1-0.3,0.2c0,0.1,0,0.2,0,0.2c0,0.1,0.1,0.1,0.1,0.2l0,0l0,0h-0.1c-0.2,0.1-0.3,0.2-0.2,0.4L20.9,31l-0.5-0.2
		h-0.1h-0.1c-0.1,0-0.2,0.1-0.3,0.2c0,0.1,0,0.2,0,0.2s0,0.1,0.1,0.1l-0.6,0.2v-0.7h0.1c0.1,0,0.2,0,0.2-0.1c0.1-0.1,0.1-0.3,0-0.4
		L19.4,30v-0.2c0.1,0,0.2,0,0.2-0.1c0.1-0.1,0.1-0.1,0.1-0.2s0-0.1,0-0.1l0.1,0.1h0.1c0.1,0,0.2,0,0.2-0.1c0.1-0.1,0.1-0.3,0-0.4
		l-0.8-1h-0.1h-0.1c-0.1,0-0.2,0-0.2,0.1l-0.8,0.8c-0.1,0.1-0.1,0.3,0,0.4l0.1,0.1h0.1c0.1,0,0.2,0,0.2-0.1v0.1
		c0,0.2,0.1,0.3,0.3,0.3l0,0v0.2l-0.4,0.4c-0.1,0.1-0.1,0.3,0,0.4l0.1,0.1h0.1c0.1,0,0.1,0,0.1,0v0.7L18,31.3l0.1-0.1
		c0-0.1,0-0.2,0-0.2c-0.1-0.1-0.2-0.2-0.3-0.2h-0.1h-0.1L17.1,31l0,0c0-0.2,0-0.3-0.2-0.4l0,0h-0.1c0,0,0,0-0.1,0
		c0.1,0,0.1-0.1,0.1-0.2s0-0.2,0-0.2c-0.1-0.1-0.2-0.2-0.3-0.2h-0.1h-0.1l-1,0.5c-0.1,0-0.1,0.1-0.2,0.2c0,0.1,0,0.2,0,0.2l0.5,1
		c0.1,0.1,0.2,0.2,0.3,0.2H16h0.1c0.1,0,0.1-0.1,0.2-0.2c0-0.1,0-0.2,0-0.2l0.1,0.1l0,0h0.1c0.1,0,0.3-0.1,0.3-0.2l0.2,0.1l0.2,0.5
		c0.1,0.1,0.2,0.2,0.3,0.2h0.1h0.1c0.1,0,0.1-0.1,0.2-0.2v-0.1l0.7,0.2l-0.4,0.6c-0.1-0.1-0.2-0.2-0.3-0.2l0,0l0,0
		c-0.1,0-0.2,0.1-0.2,0.1c0,0.1-0.1,0.2-0.1,0.2l0.1,0.5l-0.1,0.2h-0.1h-0.1c-0.1,0-0.2,0.1-0.3,0.1c0,0,0,0.1-0.1,0.1
		c0-0.1-0.2-0.2-0.3-0.2l0,0l0,0c-0.1,0-0.2,0.1-0.2,0.1c0,0.1-0.1,0.2-0.1,0.2l0.2,1.1c0,0.2,0.2,0.3,0.3,0.3l0,0l0,0l1.1-0.2
		c0.1,0,0.2-0.1,0.2-0.1c0-0.1,0.1-0.2,0.1-0.2c0-0.2-0.2-0.3-0.3-0.3l0,0l0,0l0.1-0.1c0.1-0.1,0.1-0.3-0.1-0.4l0.1-0.2l0.5-0.1
		c0.2,0,0.3-0.2,0.3-0.4c0-0.1-0.1-0.2-0.3-0.3l0.4-0.6l0.4,0.6c-0.1,0-0.2,0.1-0.3,0.3c0,0.1,0,0.2,0.1,0.2s0.1,0.1,0.2,0.1
		L20.1,33.7z"/>
	<path class="st1" d="M29.3,43.2C29.2,43.1,29.1,43,29,43h-0.1h-0.1c-0.1,0-0.1,0.1-0.2,0.2c0,0.1,0,0.2,0,0.3l0.3,0.7L28.5,44v-0.1
		c0.1-0.2,0-0.4-0.2-0.4l0,0h-0.1l0,0c-0.2,0-0.3,0.1-0.3,0.2v0.1l-0.4-0.2l-0.3-0.7c-0.1-0.1-0.2-0.2-0.3-0.2h-0.1h-0.1
		c-0.1,0-0.1,0.1-0.2,0.2c0,0.1,0,0.2,0,0.3v0.1l-1.2-0.5l0.8-1v0.1c0,0.2,0.2,0.3,0.3,0.3c0.2,0,0.4-0.2,0.3-0.4L26.6,41l0.3-0.3
		l0.1,0.1c0.1,0,0.1,0.1,0.2,0.1s0.2,0,0.3-0.1c0.1-0.1,0.1-0.2,0.1-0.3s-0.1-0.2-0.1-0.2l-0.1-0.1l0.3-0.4l0.1,0.8
		c0,0.2,0.2,0.3,0.3,0.3c0.2,0,0.4-0.2,0.3-0.4l-0.2-1.6c0-0.2-0.2-0.3-0.3-0.3l0,0l0,0l-1.6,0.2c-0.1,0-0.2,0.1-0.2,0.1
		C26,39,26,39.1,26,39.2c0,0.2,0.2,0.3,0.3,0.3l0.8-0.1l-0.3,0.4l-0.1-0.1c-0.1,0-0.1-0.1-0.2-0.1l0,0c-0.1,0-0.2,0-0.3,0.1
		c-0.1,0.1-0.1,0.4,0.1,0.5l0.1,0.1l-0.3,0.3l-0.8,0.1c-0.2,0-0.3,0.2-0.3,0.4s0.2,0.3,0.3,0.3h0.1l-0.8,1l-0.7-1.1H24l0,0l0,0
		c0.2,0,0.3-0.1,0.3-0.3s-0.1-0.4-0.3-0.4l-0.7-0.2L23.1,40l0.1-0.1c0.2-0.1,0.2-0.3,0.1-0.5c-0.1-0.1-0.2-0.1-0.3-0.2l0,0
		c-0.1,0-0.1,0-0.2,0.1l0.2,0.3l-0.3-0.4l0.7,0.1l0,0l0,0c0.2,0,0.3-0.1,0.3-0.3c0-0.1,0-0.2-0.1-0.3s-0.1-0.1-0.2-0.1L22,38.4l0,0
		l0,0l0,0l0,0c-0.2,0-0.3,0.1-0.3,0.3l-0.3,1.5c0,0.1,0,0.2,0.1,0.3s0.1,0.1,0.2,0.1l0,0l0,0c0.2,0,0.3-0.1,0.3-0.3l0.1-0.7l0.3,0.4
		h-0.1c-0.2,0.1-0.2,0.3-0.1,0.5c0.1,0.1,0.2,0.2,0.3,0.2c0.1,0,0.1,0,0.2-0.1l0.1-0.1l0.2,0.4l-0.2,0.7c0,0.1,0,0.2,0.1,0.3
		C23,42,23,42,23.1,42.1l0,0l0,0c0.2,0,0.3-0.1,0.3-0.3v-0.1l0.7,1.1L23,43.1V43c0-0.1,0.1-0.2,0-0.3c0-0.1-0.1-0.2-0.2-0.2h-0.1
		h-0.1l0,0c-0.1,0-0.3,0.1-0.3,0.2l-0.4,0.7l-0.4,0.1v-0.1c0-0.1-0.2-0.2-0.3-0.2l0,0h-0.1c-0.2,0.1-0.3,0.2-0.2,0.4v0.1l-0.5,0.1
		l0.4-0.7c0-0.1,0.1-0.2,0-0.3s-0.1-0.2-0.2-0.2h-0.1h-0.1l0,0c-0.1,0-0.3,0.1-0.3,0.2l-0.8,1.4c0,0.1-0.1,0.2,0,0.3
		c0,0.1,0.1,0.2,0.2,0.2l1.4,0.8H21h0.1c0.1,0,0.2-0.1,0.3-0.2c0-0.1,0.1-0.2,0-0.3c0-0.1-0.1-0.2-0.2-0.2l-0.7-0.4l0.5-0.1v0.1
		c0,0.1,0.2,0.2,0.3,0.2l0,0h0.1c0.2-0.1,0.3-0.2,0.2-0.4v-0.1L22,44l0.7,0.4h0.1h0.1c0.1,0,0.2-0.1,0.3-0.2c0-0.1,0.1-0.2,0-0.3
		c0-0.1-0.1-0.2-0.2-0.2h-0.1l1.2-0.3L24,44.7l-0.1-0.1c-0.1-0.1-0.1-0.1-0.2-0.1l0,0c-0.1,0-0.2,0-0.2,0.1c-0.1,0.1-0.1,0.3,0,0.5
		l0.5,0.6v0.4h-0.1l0,0c-0.2,0-0.3,0.1-0.4,0.3c0,0.1,0,0.2,0.1,0.2c0.1,0.1,0.1,0.1,0.2,0.1h0.1v0.5l-0.5-0.6
		c-0.1-0.1-0.1-0.1-0.2-0.1l0,0c-0.1,0-0.2,0-0.2,0.1c-0.1,0.1-0.1,0.3,0,0.5l1.1,1.2c0.1,0.1,0.2,0.1,0.3,0.1c0.1,0,0.2,0,0.2-0.1
		l1.2-1.1c0.1-0.1,0.1-0.3,0-0.5c-0.1-0.1-0.1-0.1-0.2-0.1l0,0c-0.1,0-0.2,0-0.2,0.1L25,47.3v-0.5h0.1l0,0c0.2,0,0.3-0.1,0.4-0.3
		c0-0.1,0-0.2-0.1-0.2c-0.1-0.1-0.1-0.1-0.2-0.1h-0.1v-0.4l0.6-0.5c0.1-0.1,0.1-0.3,0-0.5c-0.1-0.1-0.1-0.1-0.2-0.1l0,0
		c-0.1,0-0.2,0-0.2,0.1l-0.1,0.1l0.1-1.3l1.2,0.5h-0.1c-0.1,0-0.1,0.1-0.2,0.2s0,0.2,0,0.3c0.1,0.1,0.2,0.2,0.3,0.2h0.1h0.1l0.7-0.3
		l0.4,0.2v0.1c-0.1,0.2,0,0.4,0.2,0.4l0,0h0.1c0.1,0,0.3-0.1,0.3-0.2v-0.1l0.4,0.2l-0.7,0.3c-0.1,0-0.1,0.1-0.2,0.2
		c0,0.1,0,0.2,0,0.3c0.1,0.1,0.2,0.2,0.3,0.2h0.1h0.1l1.4-0.7c0.1,0,0.1-0.1,0.2-0.2s0-0.2,0-0.3L29.3,43.2z"/>
	<path class="st1" d="M41.6,35.3L41.6,35.3h-0.2c-0.1,0-0.2,0.1-0.2,0.2c0,0.1,0,0.2,0,0.3l0.2,0.6l-0.3-0.2v-0.1
		c0.1-0.2,0-0.4-0.2-0.4l0,0h-0.1l0,0c-0.2,0-0.3,0.1-0.3,0.2V36l-0.3-0.2L40,35.1c0-0.1-0.1-0.2-0.3-0.2l0,0h-0.1
		c-0.1,0-0.2,0.1-0.2,0.2c0,0.1,0,0.2,0,0.3l0,0l-1-0.5L39,34l0,0c0,0.2,0.2,0.3,0.3,0.3c0.2,0,0.3-0.2,0.3-0.3v-0.7L40,33l0,0
		c0.1,0.1,0.1,0.1,0.2,0.1c0.1,0,0.2,0,0.2-0.1c0.1-0.1,0.1-0.1,0.1-0.2c0-0.1,0-0.2-0.1-0.2l0,0l0.3-0.3V33c0,0.2,0.2,0.3,0.3,0.3
		s0.2,0,0.2-0.1c0.1-0.1,0.1-0.1,0.1-0.2v-1.5c0-0.2-0.1-0.3-0.3-0.3l0,0h-0.1h-1.5c-0.2,0-0.3,0.2-0.3,0.3c0,0.2,0.2,0.3,0.3,0.3
		h0.7l-0.3,0.3l0,0c-0.1,0-0.1-0.1-0.2-0.1l0,0c-0.1,0-0.2,0-0.3,0.1c-0.1,0.1-0.1,0.3,0,0.5l0,0L39,32.9h-0.7c-0.1,0-0.2,0-0.2,0.1
		C38,33.1,38,33.1,38,33.2c0,0.2,0.2,0.3,0.3,0.3l0,0l-0.8,0.8l-0.5-1l0,0l0,0h0.1c0.1,0,0.3-0.1,0.3-0.2c0.1-0.2,0-0.4-0.2-0.4
		l-0.7-0.2l-0.2-0.3h0.1c0.2-0.1,0.2-0.3,0.1-0.5c-0.1-0.1-0.1-0.2-0.2-0.2l0,0c-0.1,0-0.1,0-0.2,0H36l-0.2-0.3l0.6,0.2l0,0h0.1
		c0.1,0,0.3-0.1,0.3-0.2s0-0.2,0-0.3c0-0.1-0.1-0.1-0.2-0.2l-1.4-0.4l0,0l0,0l0,0c-0.1,0-0.3,0.1-0.3,0.2L34.7,32c0,0.1,0,0.2,0,0.3
		s0.1,0.1,0.2,0.2l0,0H35c0.1,0,0.3-0.1,0.3-0.2l0.2-0.6l0.2,0.3h-0.1c-0.2,0.1-0.2,0.3-0.1,0.5c0.1,0.1,0.2,0.2,0.3,0.2h0.1H36h0.1
		l0.2,0.3L36,33.5c-0.1,0.2,0,0.4,0.2,0.4l0,0h0.1c0.1,0,0.3-0.1,0.3-0.2l0,0l0.5,1L36,34.9l0,0c0.1-0.1,0.1-0.2,0.1-0.3
		S36,34.4,36,34.4l0,0h-0.1l0,0c-0.1,0-0.2,0.1-0.3,0.1L35.1,35l-0.4,0.1V35c0-0.1-0.1-0.3-0.3-0.3l0,0h-0.1c-0.2,0-0.3,0.2-0.3,0.4
		v0.1l-0.4,0.1l0.4-0.5c0.1-0.1,0.1-0.2,0.1-0.3S34,34.3,34,34.3l0,0h-0.1l0,0c-0.1,0-0.2,0.1-0.3,0.1l-0.8,1.2
		c-0.1,0.1-0.1,0.2-0.1,0.3s0.1,0.2,0.1,0.2l1.2,0.8c0.1,0,0.1,0.1,0.2,0.1c0.1,0,0.2-0.1,0.3-0.1c0.1-0.1,0.1-0.2,0.1-0.3
		s-0.1-0.2-0.1-0.2L34,36l0.4-0.1V36c0,0.2,0.2,0.3,0.3,0.3l0,0l0,0c0.2,0,0.3-0.2,0.3-0.4v-0.1l0.4-0.1l0.6,0.4
		c0.1,0,0.1,0.1,0.2,0.1c0.1,0,0.2-0.1,0.3-0.1c0.1-0.1,0.1-0.2,0.1-0.3s-0.1-0.2-0.1-0.2l0,0l1.1-0.2l-0.2,1.1l0,0
		c-0.1-0.1-0.1-0.1-0.2-0.1l0,0c-0.1,0-0.2,0-0.2,0.1c-0.1,0.1-0.1,0.1-0.1,0.2s0,0.2,0.1,0.2l0.4,0.6l-0.1,0.4h-0.1l0,0
		c-0.2,0-0.3,0.1-0.4,0.3c0,0.2,0.1,0.4,0.3,0.4h0.1L37.1,39l-0.4-0.5c-0.1-0.1-0.1-0.1-0.2-0.1l0,0c-0.1,0-0.2,0-0.2,0.1
		c-0.1,0.1-0.1,0.1-0.1,0.2c0,0.1,0,0.2,0.1,0.2l0.9,1.2C36.8,40,36.9,40,37,40s0.1,0,0.2-0.1l1.2-0.9c0.1-0.1,0.2-0.3,0.1-0.5
		c-0.1-0.1-0.1-0.1-0.2-0.1l0,0c-0.1,0-0.2,0-0.2,0.1l-0.5,0.4l0.1-0.4h0.1l0,0c0.2,0,0.3-0.1,0.4-0.3c0-0.2-0.1-0.4-0.3-0.4h-0.1
		l0.1-0.4l0.6-0.4c0.1-0.1,0.1-0.1,0.1-0.2c0-0.1,0-0.2-0.1-0.2c-0.1-0.1-0.1-0.1-0.2-0.1l0,0c-0.1,0-0.2,0-0.2,0.1l0,0l0.2-1.1
		l1,0.5l0,0c-0.1,0-0.2,0.1-0.2,0.2c0,0.1,0,0.2,0,0.3s0.2,0.2,0.3,0.2l0,0h0.1l0.7-0.2l0.3,0.2v0.1c-0.1,0.2,0,0.4,0.2,0.4h0.1h0.1
		c0.1,0,0.2-0.1,0.3-0.2v-0.1l0.3,0.2l-0.6,0.2c-0.1,0-0.2,0.1-0.2,0.2c0,0.1,0,0.2,0,0.3S40.9,38,41,38l0,0h0.1l1.4-0.5
		c0.1,0,0.2-0.1,0.2-0.2c0-0.1,0-0.2,0-0.3l-0.5-1.4C41.8,35.4,41.7,35.3,41.6,35.3z"/>
	<path class="st1" d="M40.1,46.2L40.1,46.2L40.1,46.2c-0.2,0-0.2,0.1-0.3,0.2c0,0.1,0,0.1,0,0.2l-0.1-0.1l0,0h-0.1l0,0
		c-0.2,0-0.3,0.1-0.3,0.2L39,46.6l-0.2-0.5c0-0.1-0.1-0.2-0.3-0.2l0,0h-0.1c-0.1,0-0.1,0.1-0.2,0.2v0.1l-0.6-0.3l0.5-0.5
		c0,0.1,0.2,0.2,0.3,0.2s0.2,0,0.2-0.1c0.1-0.1,0.1-0.1,0.1-0.2v-0.5l0.2-0.2l0.1,0.1h0.1c0.1,0,0.2,0,0.2-0.1l0.1-0.1
		c0,0.2,0.1,0.3,0.3,0.3s0.3-0.1,0.3-0.3v-1.1c0-0.2-0.1-0.3-0.3-0.3l0,0l0,0h-1.1c-0.2,0-0.3,0.1-0.3,0.3s0.1,0.3,0.3,0.3
		c-0.1,0-0.1,0-0.1,0.1c-0.1,0.1-0.1,0.3,0,0.4l-0.2,0.2h-0.5c-0.1,0-0.2,0-0.2,0.1c-0.1,0.1-0.1,0.1-0.1,0.2c0,0.1,0.1,0.3,0.2,0.3
		l-0.5,0.5l-0.3-0.6c0.1,0,0.3-0.1,0.3-0.2c0-0.1,0-0.2,0-0.2c0-0.1-0.1-0.1-0.2-0.2l-0.5-0.2l-0.1-0.2c0.1,0,0.1-0.1,0.2-0.2
		c0-0.1,0-0.2,0-0.2l-0.1-0.1l0,0h0.1c0.1,0,0.3-0.1,0.3-0.2c0.1-0.2,0-0.3-0.2-0.4l-1.1-0.3l0,0h-0.1c-0.1,0-0.3,0.1-0.3,0.2
		l-0.3,1.1c0,0.1,0,0.2,0,0.2c0,0.1,0.1,0.1,0.2,0.2l0,0h0.1c0.1,0,0.3-0.1,0.3-0.2v0.1c0.1,0.1,0.2,0.2,0.3,0.2h0.1H36l0.1,0.2
		L35.9,45c0,0.1,0,0.2,0,0.2c0,0.1,0.1,0.1,0.2,0.2l0,0h0.1c0.1,0,0.2-0.1,0.3-0.1l0.3,0.6L36.1,46v-0.1c0-0.1-0.1-0.2-0.1-0.2l0,0
		h-0.1l0,0c-0.1,0-0.2,0-0.3,0.1L35.1,46h-0.2c0-0.1-0.1-0.2-0.3-0.3l0,0h-0.1c0,0-0.1,0-0.1,0.1c0-0.1,0.1-0.1,0-0.2
		c0-0.1-0.1-0.2-0.1-0.2l0,0h-0.1l0,0c-0.1,0-0.2,0-0.3,0.1l-0.7,0.9c0,0.1-0.1,0.2-0.1,0.2c0,0.1,0.1,0.2,0.1,0.2l0.9,0.7h0.1h0.1
		c0.1,0,0.2-0.1,0.3-0.1c0-0.1,0.1-0.2,0.1-0.2c0-0.1-0.1-0.1-0.1-0.2h0.1l0,0l0,0c0.2,0,0.3-0.2,0.3-0.4h0.2l0.4,0.3h0.1h0.1
		c0.1,0,0.2-0.1,0.3-0.1c0-0.1,0.1-0.2,0.1-0.2c0-0.1,0-0.1-0.1-0.1l0.7-0.1l-0.1,0.7c0,0-0.1,0-0.1-0.1l0,0c-0.1,0-0.2,0-0.2,0.1
		c-0.1,0.1-0.2,0.3-0.1,0.4l0.3,0.4v0.2l0,0c-0.2,0-0.3,0.1-0.3,0.3v0.1c-0.1-0.1-0.1-0.1-0.2-0.1l0,0c-0.1,0-0.2,0-0.2,0.1
		c-0.1,0.1-0.2,0.3-0.1,0.4l0.7,0.9c0.1,0.1,0.2,0.1,0.3,0.1h0.1l0.1-0.1l0.9-0.7c0.1-0.1,0.2-0.3,0.1-0.4c-0.1-0.1-0.1-0.1-0.2-0.1
		l0,0c-0.1,0-0.2,0-0.2,0.1l0.1-0.1c0-0.1,0-0.2-0.1-0.2c0-0.1-0.1-0.1-0.2-0.1v-0.2l0.4-0.3c0.1-0.1,0.1-0.1,0.1-0.2
		c0-0.1,0-0.2-0.1-0.2c-0.1-0.1-0.1-0.1-0.2-0.1l0,0c-0.1,0-0.1,0-0.1,0l0.1-0.7l0.6,0.3L38.1,47c0,0.1,0,0.2,0,0.2
		c0,0.1,0.2,0.2,0.3,0.2l0,0h0.1l0.5-0.2l0.2,0.1c-0.1,0.2,0,0.3,0.1,0.4h0.1h0.1l0,0c-0.1,0-0.1,0.1-0.2,0.2c0,0.1,0,0.2,0,0.2
		c0,0.1,0.2,0.2,0.3,0.2l0,0h0.1l1.1-0.4c0.1,0,0.1-0.1,0.2-0.2c0-0.1,0-0.2,0-0.2l-0.4-1.1C40.3,46.3,40.2,46.2,40.1,46.2z"/>
</g>
</svg>
