<?xml version="1.0" encoding="utf-8"?>
<!-- Generator: Adobe Illustrator 19.1.1, SVG Export Plug-In . SVG Version: 6.00 Build 0)  -->
<svg version="1.1" id="Calque_1" xmlns="http://www.w3.org/2000/svg" xmlns:xlink="http://www.w3.org/1999/xlink" x="0px" y="0px"
	 viewBox="0 0 60 60" style="enable-background:new 0 0 60 60;" xml:space="preserve">
<style type="text/css">
	.st0{fill:none;}
	.st1{fill:#FFFFFF;}
</style>
<rect class="st0" width="60" height="60"/>
<g>
	<path class="st1" d="M40.7,25.6c-0.1-0.2-0.3-0.2-0.4-0.2c-0.1,0-0.2,0-0.2,0.1c-0.1,0.1-0.2,0.2-0.2,0.3c0,0.1,0,0.3,0,0.4
		l1.5,2.7L38.7,28l0.2-0.7c0-0.1,0-0.3-0.1-0.4s-0.2-0.2-0.3-0.2h-0.1c-0.2,0-0.4,0.2-0.5,0.4l-0.2,0.7L36,27.3l-1.1-1.9
		c-0.1-0.2-0.3-0.2-0.4-0.2c-0.1,0-0.2,0-0.2,0.1c-0.1,0.1-0.2,0.2-0.2,0.3c0,0.1,0,0.3,0,0.4l0.6,1.1l-5-1.3l2.8-4.3l0.3,1.2
		c0,0.2,0.3,0.4,0.5,0.4h0.1c0.1,0,0.1,0,0.2-0.1c0.1-0.1,0.2-0.3,0.2-0.5l-0.5-2.2l1-1.5l0.6,0.4c0.1,0.1,0.2,0.1,0.3,0.1
		s0.2,0,0.3-0.1l0.1-0.1c0.1-0.2,0.1-0.5-0.1-0.7L34.9,18l1.5-2.3l0.6,3c0,0.2,0.3,0.4,0.5,0.4h0.1c0.1,0,0.1,0,0.2-0.1
		c0.1-0.1,0.2-0.3,0.2-0.5l-1-4.4c0-0.2-0.3-0.4-0.5-0.4h-0.1l-4.2,0.9c-0.1,0-0.2,0.1-0.3,0.2c-0.1,0.1-0.1,0.2-0.1,0.4
		s0.3,0.4,0.5,0.4h0.1l3-0.6l-1.5,2.3l-0.6-0.4c-0.1-0.1-0.2-0.1-0.3-0.1c-0.2,0-0.3,0.1-0.4,0.2c-0.1,0.2-0.1,0.5,0.1,0.7l0.6,0.4
		l-1,1.5l-2.2,0.5c-0.1,0-0.2,0.1-0.3,0.2c-0.1,0.1-0.1,0.2-0.1,0.4c0,0.2,0.3,0.4,0.5,0.4h0.1l1.2-0.3l-2.8,4.3l-3.2-4l1.2,0.1l0,0
		l0,0c0.1,0,0.2,0,0.3-0.1c0.1-0.1,0.2-0.2,0.2-0.3c0-0.1,0-0.3-0.1-0.4s-0.2-0.2-0.3-0.2l-2-0.2l-1.1-1.4l0.5-0.4
		c0.1-0.1,0.2-0.2,0.2-0.3c0-0.1,0-0.3-0.1-0.4s-0.2-0.2-0.4-0.2c-0.1,0-0.2,0-0.3,0.1L23,17.9l-1.7-2.1l3.1,0.3l0,0l0,0
		c0.1,0,0.2,0,0.3-0.1c0.1-0.1,0.2-0.2,0.2-0.3s0-0.3-0.1-0.4s-0.2-0.2-0.3-0.2l-4.3-0.4l0,0l0,0c-0.3,0-0.5,0.2-0.5,0.4l-0.4,4.3
		c0,0.3,0.2,0.5,0.4,0.5l0,0l0,0c0.1,0,0.2,0,0.3-0.1c0.1-0.1,0.2-0.2,0.2-0.3l0.3-3.1l1.7,2.1l-0.5,0.4c-0.2,0.2-0.2,0.5-0.1,0.7
		c0.1,0.1,0.2,0.2,0.4,0.2c0.1,0,0.2,0,0.3-0.1l0.5-0.4l1.1,1.4l-0.2,2.2c0,0.3,0.2,0.5,0.4,0.5l0,0l0,0c0.1,0,0.2,0,0.3-0.1
		c0.1-0.1,0.2-0.2,0.2-0.3l0.1-1.2l3.2,4l-4.8,1.8l0.5-1.1c0.1-0.1,0.1-0.3,0-0.4c0-0.1-0.1-0.2-0.3-0.3c-0.1,0-0.1,0-0.2,0
		c-0.2,0-0.4,0.1-0.5,0.3l-0.9,2L20,28.7l-0.2-0.6c-0.1-0.2-0.3-0.3-0.5-0.3c-0.1,0-0.1,0-0.2,0c-0.3,0.1-0.4,0.4-0.3,0.6L19,29
		l-2.6,1l1.2-2.8c0.1-0.1,0.1-0.3,0-0.4c0-0.1-0.1-0.2-0.3-0.3c-0.1,0-0.1,0-0.2,0c-0.2,0-0.4,0.1-0.5,0.3l-1.7,3.9
		c-0.1,0.1-0.1,0.3,0,0.4c0,0.1,0.1,0.2,0.3,0.3l3.9,1.7c0.1,0,0.1,0,0.2,0s0.2,0,0.3-0.1c0.1-0.1,0.1-0.1,0.1-0.2
		c0.1-0.1,0.1-0.3,0-0.4c0-0.1-0.1-0.2-0.3-0.3L17.2,31l2.6-1l0.2,0.6c0.1,0.2,0.3,0.3,0.5,0.3c0.1,0,0.1,0,0.2,0c0,0,0.1,0,0.1-0.1
		c0.2-0.1,0.2-0.4,0.1-0.6l-0.2-0.6l1.7-0.6l2,0.9c0.1,0,0.1,0,0.2,0s0.2,0,0.3-0.1c0.1-0.1,0.1-0.1,0.1-0.2c0.1-0.1,0.1-0.3,0-0.4
		c0-0.1-0.1-0.2-0.3-0.3l-1.1-0.5l4.8-1.8l0.3,5.1l-0.9-0.8c-0.1-0.1-0.2-0.1-0.3-0.1c-0.1,0-0.3,0.1-0.4,0.2
		c-0.2,0.2-0.2,0.5,0,0.7l1.7,1.5l0.1,1.8h-0.7c-0.3,0-0.5,0.2-0.5,0.5s0.2,0.5,0.5,0.5h0.7l0.1,2.7l-2.3-2.1
		c-0.1-0.1-0.2-0.1-0.3-0.1c-0.1,0-0.3,0.1-0.4,0.2c0,0.1,0,0.2,0,0.3s0.1,0.3,0.2,0.3l3.2,2.9c0.1,0.1,0.2,0.1,0.3,0.1
		c0.1,0,0.2,0,0.3-0.1l0,0l0,0l2.9-3.2c0.2-0.2,0.2-0.5,0-0.7c-0.1-0.1-0.2-0.1-0.3-0.1s-0.3,0.1-0.4,0.2l-2.1,2.3L30,35.9h0.7
		c0.1,0,0.2,0,0.3-0.1c0.1-0.1,0.2-0.3,0.2-0.4c0-0.3-0.2-0.5-0.5-0.5H30l-0.1-1.8l1.5-1.7c0.2-0.2,0.2-0.5,0-0.7
		c-0.1-0.1-0.2-0.1-0.3-0.1c-0.1,0-0.3,0.1-0.4,0.2l-0.8,0.9l-0.3-5.1l5,1.3l-1.1,0.6c-0.1,0.1-0.2,0.2-0.2,0.3s0,0.3,0.1,0.4
		c0.1,0.2,0.3,0.2,0.4,0.2c0.1,0,0.2,0,0.2-0.1l1.9-1.1l1.7,0.5l-0.2,0.7c-0.1,0.3,0.1,0.5,0.4,0.6h0.1c0.1,0,0.2,0,0.3-0.1
		s0.1-0.2,0.2-0.3l0.2-0.7l2.7,0.7l-2.7,1.5c-0.1,0.1-0.2,0.2-0.2,0.3c0,0.1,0,0.3,0,0.4c0.1,0.2,0.3,0.2,0.4,0.2
		c0.1,0,0.2,0,0.2-0.1l3.7-2.1l0,0l0,0c0.2-0.2,0.2-0.4,0.1-0.6L40.7,25.6z"/>
	<path class="st1" d="M58.2,21.7c0-0.1-0.1-0.2-0.2-0.2l-2.1-0.8l0,0h-0.1c-0.2,0-0.3,0.1-0.4,0.3c0,0.1,0,0.2,0,0.3
		c0,0.1,0.1,0.2,0.2,0.2l1.3,0.5l-1,0.5l-0.1-0.2c-0.1-0.1-0.2-0.2-0.3-0.2s-0.1,0-0.2,0c-0.2,0.1-0.3,0.3-0.2,0.5l0.1,0.2L54.5,23
		l-1.1-0.4l0,0h-0.1c-0.2,0-0.3,0.1-0.4,0.3c0,0.1,0,0.2,0,0.3c0,0.1,0.1,0.2,0.2,0.2l0.4,0.1l-2.1,1l-0.3-2.3l0.3,0.2
		c0.1,0.1,0.2,0.1,0.2,0.1c0.1,0,0.2-0.1,0.3-0.1c0.1-0.1,0.1-0.2,0.1-0.3c0-0.1-0.1-0.2-0.1-0.3L51,21.1l-0.1-0.8h0.2
		c0.1,0,0.2-0.1,0.3-0.1c0.1-0.1,0.1-0.2,0.1-0.3c0-0.2-0.2-0.3-0.4-0.3h-0.3l-0.1-1.1l1.1,0.8c0.1,0.1,0.2,0.1,0.2,0.1
		c0.1,0,0.2-0.1,0.3-0.1s0.1-0.2,0.1-0.3c0-0.1-0.1-0.2-0.1-0.3l-1.8-1.4c-0.1-0.1-0.2-0.1-0.2-0.1c-0.1,0-0.2,0.1-0.3,0.1l-1.4,1.8
		c-0.1,0.2-0.1,0.4,0.1,0.5c0.1,0.1,0.2,0.1,0.2,0.1c0.1,0,0.2-0.1,0.3-0.1l0.8-1.1l0.1,1.1h-0.2c-0.1,0-0.2,0.1-0.3,0.1
		s-0.1,0.2-0.1,0.3c0,0.2,0.2,0.3,0.4,0.3h0.3l0.1,0.8L49.6,22c-0.1,0.1-0.1,0.2-0.1,0.3c0,0.1,0.1,0.2,0.1,0.3
		c0.1,0.1,0.2,0.1,0.2,0.1c0.1,0,0.2-0.1,0.3-0.1l0.2-0.3l0.3,2.3l-2.3-0.4l0.3-0.2c0.1-0.1,0.1-0.1,0.2-0.2c0-0.1,0-0.2-0.1-0.3
		c-0.1-0.1-0.2-0.2-0.3-0.2s-0.1,0-0.2,0.1l-1,0.6l-0.8-0.2v-0.2c0-0.2-0.1-0.4-0.3-0.4l0,0l0,0c-0.2,0-0.3,0.1-0.4,0.3v0.2
		l-1.1-0.2l1.1-0.8c0.1-0.1,0.1-0.1,0.2-0.2c0-0.1,0-0.2-0.1-0.3c-0.1-0.1-0.2-0.2-0.3-0.2s-0.1,0-0.2,0.1l-1.9,1.3
		c-0.1,0.1-0.1,0.1-0.2,0.2c0,0.1,0,0.2,0.1,0.3l1.3,1.9c0.1,0.1,0.2,0.2,0.3,0.2s0.2,0,0.2-0.1c0.1-0.1,0.1-0.1,0.2-0.2
		c0-0.1,0-0.2-0.1-0.3l-0.8-1.1l1.1,0.2v0.2c0,0.2,0.1,0.4,0.3,0.4l0,0l0,0c0.2,0,0.3-0.1,0.4-0.3v-0.2l0.8,0.2l0.6,1
		c0.1,0.1,0.2,0.2,0.3,0.2s0.2,0,0.2-0.1c0.1-0.1,0.1-0.1,0.2-0.2c0-0.1,0-0.2-0.1-0.3L48,25.1l2.3,0.4l-1.1,2l-0.1-0.4
		c0-0.2-0.2-0.3-0.4-0.3l0,0h-0.1c-0.1,0-0.2,0.1-0.2,0.2s-0.1,0.2,0,0.3l0.3,1.1L48.4,29l-0.2-0.1c-0.1,0-0.1,0-0.2,0
		c-0.1,0-0.3,0.1-0.3,0.2s-0.1,0.2,0,0.3c0,0.1,0.1,0.2,0.2,0.2l0.2,0.1l-0.5,0.9l-0.4-1.3c0-0.2-0.2-0.3-0.4-0.3l0,0h-0.1
		c-0.2,0.1-0.3,0.3-0.3,0.5l0.6,2.2c0,0.2,0.2,0.3,0.4,0.3l0,0h0.1l2.2-0.6c0.1,0,0.2-0.1,0.2-0.2s0.1-0.2,0-0.3
		c0-0.2-0.2-0.3-0.4-0.3l0,0h-0.1L48.1,31l0.5-0.9l0.2,0.1c0.1,0,0.1,0,0.2,0c0.2,0,0.3-0.1,0.3-0.2c0.1-0.2,0-0.4-0.1-0.5L49,29.4
		l0.4-0.7l1.1-0.3c0.2-0.1,0.3-0.3,0.3-0.5s-0.2-0.3-0.4-0.3l0,0h-0.1L50,27.7l1.1-2l1.6,1.7h-0.4l0,0c-0.2,0-0.4,0.2-0.4,0.4
		c0,0.2,0.2,0.4,0.4,0.4h1.1l0.5,0.6L53.7,29c-0.1,0.1-0.1,0.2-0.1,0.3c0,0.1,0,0.2,0.1,0.3c0.1,0.1,0.2,0.1,0.3,0.1s0.2,0,0.3-0.1
		l0.2-0.2l0.7,0.8L53.9,30l0,0c-0.2,0-0.4,0.2-0.4,0.4c0,0.2,0.2,0.4,0.4,0.4l2.3,0.1l0,0l0,0c0.2,0,0.3-0.2,0.3-0.4l0.1-2.3
		c0-0.2-0.2-0.4-0.4-0.4l0,0c-0.2,0-0.4,0.2-0.4,0.4l-0.1,1.4L55,28.8l0.2-0.2c0.1-0.1,0.1-0.2,0.1-0.3c0-0.1,0-0.2-0.1-0.3
		c-0.1-0.1-0.2-0.1-0.3-0.1s-0.2,0-0.3,0.1l-0.2,0.2L54,27.6v-1.1c0-0.1,0-0.2-0.1-0.3s-0.2-0.1-0.3-0.1l0,0c-0.2,0-0.4,0.2-0.4,0.4
		v0.4l-1.6-1.7l2.1-1l-0.1,0.4c0,0.1,0,0.2,0,0.3c0,0.1,0.1,0.2,0.2,0.2l0,0h0.1c0.2,0,0.3-0.1,0.4-0.3l0.4-1.1l0.7-0.3l0.1,0.2
		c0.1,0.1,0.2,0.2,0.3,0.2s0.1,0,0.2,0c0.2-0.1,0.3-0.3,0.2-0.5l-0.1-0.2l1-0.5l-0.5,1.3c0,0.1,0,0.2,0,0.3c0,0.1,0.1,0.2,0.2,0.2
		l0,0h0.1c0.2,0,0.3-0.1,0.4-0.3l0.8-2.1C58.2,21.9,58.2,21.8,58.2,21.7z"/>
	<path class="st1" d="M8,23.2L8,23.2L8,23.2l-0.4,0.1l1.2-1.7l1.3,1.7H9.8l0,0l0,0c-0.2,0-0.3,0.1-0.4,0.3c0,0.2,0.1,0.4,0.3,0.4
		l1.1,0.1l0.4,0.6H11c-0.2,0.1-0.2,0.4-0.1,0.5c0.1,0.1,0.2,0.1,0.3,0.1s0.2,0,0.2-0.1l0.2-0.1l0.6,0.8L11,25.7l0,0l0,0
		c-0.2,0-0.3,0.1-0.4,0.3c0,0.2,0.1,0.4,0.3,0.4l2.1,0.3l0,0l0,0c0.2,0,0.3-0.1,0.4-0.3l0.3-2.1c0-0.2-0.1-0.4-0.3-0.4l0,0l0,0
		c-0.2,0-0.3,0.1-0.4,0.3l-0.2,1.2l-0.6-0.8l0.2-0.1c0.2-0.1,0.2-0.4,0.1-0.5c-0.1-0.1-0.2-0.1-0.3-0.1S12,23.9,12,24l-0.2,0.1
		l-0.4-0.6l0.1-1.1c0-0.2-0.1-0.4-0.3-0.4l0,0l0,0c-0.2,0-0.3,0.1-0.4,0.3v0.3l-1.3-1.7l2-0.7l-0.1,0.3c0,0.1,0,0.2,0,0.3
		s0.1,0.2,0.2,0.2c0.1,0,0.1,0,0.2,0c0.1,0,0.3-0.1,0.3-0.2l0.5-1l0.7-0.2l0.1,0.2c0.1,0.1,0.2,0.3,0.4,0.3l0,0h0.1
		c0.2-0.1,0.3-0.3,0.2-0.5L14,19.4l0.9-0.3l-0.5,1.1c0,0.1,0,0.2,0,0.3c0,0.1,0.1,0.2,0.2,0.2c0.1,0,0.1,0,0.2,0
		c0.1,0,0.3-0.1,0.3-0.2l0.9-1.9c0-0.1,0-0.2,0-0.3c0-0.1-0.1-0.2-0.2-0.2l-1.9-0.9c0,0-0.1,0-0.2,0c-0.1,0-0.3,0.1-0.3,0.2
		s0,0.2,0,0.3c0,0.1,0.1,0.2,0.2,0.2l1.1,0.5l-0.9,0.3l-0.1-0.2c-0.1-0.1-0.2-0.3-0.4-0.3l0,0h-0.1c-0.2,0.1-0.3,0.3-0.2,0.5
		l0.1,0.2l-0.7,0.2l-1-0.5c0,0-0.1,0-0.2,0c-0.1,0-0.3,0.1-0.3,0.2s0,0.2,0,0.3s0.1,0.2,0.2,0.2l0.3,0.1l-2,0.7V18l0.2,0.2
		c0.1,0.1,0.2,0.1,0.3,0.1s0.2,0,0.3-0.1s0.1-0.2,0.1-0.3c0-0.1,0-0.2-0.1-0.3l-0.8-0.7v-0.7h0.2c0.1,0,0.2,0,0.3-0.1
		s0.1-0.2,0.1-0.3c0-0.2-0.2-0.4-0.4-0.4H9.4v-0.9l0.9,0.9c0.1,0.1,0.2,0.1,0.3,0.1s0.2,0,0.3-0.1s0.1-0.4,0-0.5l-1.5-1.5
		c-0.1-0.1-0.2-0.1-0.3-0.1s-0.2,0-0.3,0.1l-1.5,1.5c-0.1,0.1-0.1,0.4,0,0.5s0.2,0.1,0.3,0.1c0.1,0,0.2,0,0.3-0.1l0.9-0.9v0.9H8.6
		c-0.1,0-0.2,0-0.3,0.1s-0.1,0.2-0.1,0.3c0,0.2,0.2,0.4,0.4,0.4h0.2v0.7L7.6,18c-0.1,0.1-0.1,0.4,0,0.5s0.2,0.1,0.3,0.1
		c0.1,0,0.2,0,0.3-0.1l0.2-0.2v2.1l-2-0.6l0.3-0.2c0.1,0,0.2-0.1,0.2-0.2s0-0.2,0-0.3c-0.1-0.1-0.2-0.2-0.3-0.2c-0.1,0-0.1,0-0.2,0
		l-0.9,0.5l-0.7-0.2L4.9,19c0.1-0.2-0.1-0.4-0.2-0.5l0,0H4.6c-0.2,0-0.3,0.1-0.4,0.3L4,19l-0.9-0.3l1.1-0.6c0.1,0,0.2-0.1,0.2-0.2
		s0-0.2,0-0.3c-0.1-0.1-0.2-0.2-0.3-0.2c-0.1,0-0.1,0-0.2,0l-1.9,1c-0.1,0-0.2,0.1-0.2,0.2s0,0.2,0,0.3l1,1.9
		C2.9,21,3,21.1,3.2,21.1c0.1,0,0.1,0,0.2,0c0.1,0,0.2-0.1,0.2-0.2s0-0.2,0-0.3L3,19.5l0.9,0.3L3.7,20c-0.1,0.2,0.1,0.4,0.2,0.5l0,0
		H4c0.2,0,0.3-0.1,0.4-0.3L4.5,20l0.7,0.2l0.5,0.9c0.1,0.1,0.2,0.2,0.3,0.2c0.1,0,0.1,0,0.2,0s0.2-0.1,0.2-0.2s0-0.2,0-0.3l-0.2-0.3
		l2,0.6L7,22.8v-0.3c0-0.2-0.2-0.3-0.4-0.3l0,0l0,0c-0.2,0-0.3,0.2-0.3,0.4l0.2,1L6,24.3l-0.2-0.1c-0.1,0-0.1-0.1-0.2-0.1
		s-0.2,0.1-0.3,0.2c-0.1,0.2-0.1,0.4,0.1,0.5l0.2,0.1L5,25.6l-0.2-1.2c0-0.2-0.2-0.3-0.4-0.3l0,0l0,0c-0.1,0-0.2,0.1-0.2,0.2
		c-0.1,0.1-0.1,0.2-0.1,0.3l0.4,2.1c0,0.2,0.2,0.3,0.4,0.3l0,0l0,0L7,26.6c0.2,0,0.3-0.2,0.3-0.4c0-0.2-0.2-0.3-0.4-0.3l0,0l0,0
		l-1.2,0.2l0.5-0.8l0.2,0.1c0.1,0,0.1,0.1,0.2,0.1s0.2-0.1,0.3-0.2c0-0.1,0.1-0.2,0-0.3c0-0.1-0.1-0.2-0.2-0.2l-0.2-0.1L7,24.1
		l1-0.2c0.2,0,0.3-0.2,0.3-0.4C8.3,23.3,8.2,23.2,8,23.2z"/>
	<path class="st1" d="M18,38.9L18,38.9h-0.1c-0.1,0-0.3,0.1-0.3,0.2c0,0.1,0,0.2,0,0.3s0.1,0.2,0.2,0.2l0.7,0.4L18,40v-0.1
		c0-0.1-0.2-0.2-0.3-0.2l0,0h-0.1c-0.2,0.1-0.3,0.3-0.2,0.4v0.1L17,40.4l-0.7-0.3h-0.1L16,40c-0.1,0-0.3,0.1-0.3,0.2
		c0,0.1,0,0.2,0,0.3s0.1,0.2,0.2,0.2H16l-1.3,0.5v-1.4l0.1,0.1C14.9,40,14.9,40,15,40c0.1,0,0.2,0,0.2-0.1c0.1-0.1,0.1-0.2,0.1-0.2
		c0-0.1,0-0.2-0.1-0.2l-0.6-0.6v-0.5h0.1c0.1,0,0.2,0,0.2-0.1C15,38.2,15,38.1,15,38c0-0.2-0.2-0.3-0.3-0.3h-0.1v-0.5l0.6,0.6
		c0.1,0.1,0.1,0.1,0.2,0.1c0.1,0,0.2,0,0.2-0.1c0.1-0.1,0.1-0.2,0.1-0.2s0-0.2-0.1-0.2l-1.2-1.1C14.3,36,14.3,36,14.2,36
		S14,36,14,36.1l-1.1,1.2c-0.1,0.1-0.1,0.4,0,0.5s0.1,0.1,0.2,0.1c0.1,0,0.2,0,0.2-0.1l0.6-0.6v0.5h-0.1c-0.2,0-0.3,0.2-0.3,0.4
		s0.2,0.3,0.3,0.3h0.1v0.5l-0.6,0.6c-0.1,0.1-0.1,0.2-0.1,0.2c0,0.1,0,0.2,0.1,0.2c0.1,0.1,0.1,0.1,0.2,0.1c0.1,0,0.2,0,0.2-0.1
		l0.1-0.1v1.4l-1.3-0.4l0.1-0.1c0.1,0,0.1-0.1,0.2-0.2c0-0.1,0-0.2,0-0.3c-0.1-0.1-0.2-0.2-0.3-0.2h-0.1h-0.1l-0.7,0.4l-0.5-0.1
		v-0.1c0.1-0.2,0-0.4-0.2-0.4l0,0h-0.1c-0.2,0-0.3,0.1-0.3,0.2v0.1L10,40l0.7-0.4c0.1,0,0.1-0.1,0.2-0.2c0-0.1,0-0.2,0-0.3
		c-0.1-0.1-0.2-0.2-0.3-0.2h-0.1h-0.1L9,39.8c-0.1,0-0.1,0.1-0.2,0.2c0,0.1,0,0.2,0,0.3l0.8,1.5C9.7,41.9,9.8,42,9.9,42H10h0.1
		c0.1,0,0.1-0.1,0.2-0.2c0-0.1,0-0.2,0-0.3l-0.4-0.7l0.5,0.2v0.1c-0.1,0.2,0,0.4,0.2,0.4l0,0h0.1c0.2,0,0.3-0.1,0.3-0.2v-0.1
		l0.5,0.1l0.4,0.7c0.1,0.1,0.2,0.2,0.3,0.2h0.1h0.1c0.1,0,0.1-0.1,0.2-0.2s0-0.2,0-0.3l-0.1-0.1l1.3,0.4l-0.9,1v-0.1
		c0-0.2-0.2-0.3-0.3-0.3l0,0l0,0c-0.1,0-0.2,0.1-0.2,0.1s-0.1,0.2-0.1,0.3l0.1,0.8l-0.3,0.4H12c-0.1,0-0.1-0.1-0.2-0.1
		c-0.1,0-0.2,0.1-0.3,0.1c-0.1,0.2-0.1,0.4,0.1,0.5l0.1,0.1l-0.3,0.4l-0.1-0.8c0-0.2-0.2-0.3-0.3-0.3l0,0l0,0
		c-0.1,0-0.2,0.1-0.2,0.1c-0.1,0.1-0.1,0.2-0.1,0.3l0.3,1.6c0,0.2,0.2,0.3,0.3,0.3l0,0l0,0l1.6-0.3c0.2,0,0.3-0.2,0.3-0.4
		s-0.2-0.3-0.3-0.3l0,0l0,0L12,45.6l0.3-0.4l0.1,0.1c0.1,0,0.1,0.1,0.2,0.1c0.1,0,0.2-0.1,0.3-0.1c0.1-0.2,0.1-0.4-0.1-0.5l-0.1-0.1
		l0.3-0.4l0.8-0.1c0.2,0,0.3-0.2,0.3-0.4s-0.2-0.3-0.3-0.3l0,0l0,0h-0.1l0.8-1.1l0.8,1.1h-0.1l0,0c-0.2,0-0.4,0.1-0.4,0.3
		c0,0.1,0,0.2,0.1,0.3s0.1,0.1,0.2,0.1l0.8,0.1l0.3,0.4l-0.1,0.1C16,44.9,16,44.9,16,45c0,0.1,0,0.2,0.1,0.3s0.2,0.1,0.3,0.1
		c0.1,0,0.1,0,0.2-0.1l0.1-0.1l0.3,0.4l-0.8-0.1l0,0c-0.2,0-0.4,0.1-0.4,0.3c0,0.1,0,0.2,0.1,0.3s0.1,0.1,0.2,0.1l1.6,0.2l0,0h0.1
		c0.2,0,0.3-0.1,0.3-0.3l0.2-1.6c0-0.2-0.1-0.4-0.3-0.4l0,0c-0.2,0-0.4,0.1-0.4,0.3l-0.1,0.8L17,44.7l0.1-0.1
		c0.2-0.1,0.2-0.3,0.1-0.5C17.1,44,17,44,16.9,44s-0.1,0-0.2,0.1l-0.1,0.1l-0.3-0.4l0.1-0.8c0-0.2-0.1-0.4-0.3-0.4l0,0
		c-0.2,0-0.4,0.1-0.4,0.3V43l-0.8-1.1l1.3-0.5v0.1c0,0.1,0,0.2,0,0.3s0.1,0.2,0.2,0.2h0.1h0.1c0.1,0,0.3-0.1,0.3-0.2l0.3-0.7
		l0.4-0.2V41c0,0.1,0.2,0.2,0.3,0.2l0,0H18c0.2-0.1,0.3-0.3,0.2-0.4v-0.1l0.5-0.2l-0.4,0.7c0,0.1,0,0.2,0,0.3s0.1,0.2,0.2,0.2h0.1
		h0.1c0.1,0,0.3-0.1,0.3-0.2l0.7-1.5c0-0.1,0-0.2,0-0.3s-0.1-0.2-0.2-0.2L18,38.9z"/>
</g>
</svg>
