<?xml version="1.0" encoding="utf-8"?>
<!-- Generator: Adobe Illustrator 19.1.1, SVG Export Plug-In . SVG Version: 6.00 Build 0)  -->
<svg version="1.1" id="Calque_1" xmlns="http://www.w3.org/2000/svg" xmlns:xlink="http://www.w3.org/1999/xlink" x="0px" y="0px"
	 viewBox="0 0 60 60" style="enable-background:new 0 0 60 60;" xml:space="preserve">
<style type="text/css">
	.st0{fill:none;}
	.st1{fill:#FFFFFF;}
</style>
<rect class="st0" width="60" height="60"/>
<path class="st1" d="M44.4,15.5c0.2-0.7,0.3-1.5,0.3-2.3c0-4.7-3.9-8.6-8.6-8.6c-1.9,0-3.7,0.6-5.2,1.8c-1.5-1.2-3.3-1.8-5.2-1.8
	c-4.7,0-8.6,3.9-8.6,8.6c0,0.6,0.1,1.3,0.2,1.9c-4.2,0.6-7.4,4.2-7.4,8.5c0,4.7,3.9,8.6,8.6,8.6c1.8,0,3.6-0.6,5.1-1.7
	c1,0.7,2.1,1.2,3.2,1.4l-4.3,8.6h5.2h4.8l-6.7,13L25,54.9l0.9,0.5L34,39.6h-6.3H24l3.7-7.4c0.3,0,0.6,0.1,0.8,0.1c0.1,0,0.1,0,0.2,0
	c2.5-0.1,4.8-1.2,6.4-3c1.6,1.9,4,3,6.6,3c4.7,0,8.6-3.9,8.6-8.6C50.3,20,47.9,16.7,44.4,15.5z M41.6,31.3c-2.4,0-4.7-1.2-6.2-3.1
	L35,27.6l-0.4,0.6c-1.4,1.9-3.5,3-5.8,3.1c-0.1,0-0.2,0-0.3,0c-0.1,0-0.2,0-0.4,0c-0.2,0-0.4,0-0.5,0c-0.2,0-0.4,0-0.5-0.1
	c-1.2-0.2-2.4-0.7-3.3-1.5l-0.3-0.3l-0.3,0.3c-1.4,1.1-3,1.7-4.8,1.7c-4.2,0-7.6-3.4-7.6-7.6c0-4,3.1-7.3,7.1-7.6h0.6l-0.2-0.6
	C18.1,14.7,18,14,18,13.3c0-4.2,3.4-7.6,7.6-7.6c1.8,0,3.5,0.6,4.9,1.8l0.3,0.3l0.3-0.3c1.4-1.2,3.1-1.8,4.9-1.8
	c4.2,0,7.6,3.4,7.6,7.6c0,0.8-0.1,1.6-0.4,2.4L43,16.2l0.5,0.1c3.3,0.9,5.6,3.9,5.6,7.3C49.3,27.9,45.8,31.3,41.6,31.3z"/>
</svg>
