<?xml version="1.0" encoding="utf-8"?>
<!-- Generator: Adobe Illustrator 19.1.1, SVG Export Plug-In . SVG Version: 6.00 Build 0)  -->
<svg version="1.1" id="Calque_1" xmlns="http://www.w3.org/2000/svg" xmlns:xlink="http://www.w3.org/1999/xlink" x="0px" y="0px"
	 viewBox="0 0 60 60" style="enable-background:new 0 0 60 60;" xml:space="preserve">
<style type="text/css">
	.st0{fill:none;}
	.st1{fill:#FFFFFF;}
</style>
<rect class="st0" width="60" height="60"/>
<g>
	<path class="st1" d="M44.4,18.9c0.2-0.7,0.3-1.5,0.3-2.3c0-4.7-3.9-8.6-8.6-8.6c-1.9,0-3.7,0.6-5.2,1.8C29.3,8.6,27.5,8,25.6,8
		c-4.7,0-8.6,3.9-8.6,8.6c0,0.6,0.1,1.3,0.2,1.9C13,19.1,9.8,22.7,9.8,27c0,4.7,3.9,8.6,8.6,8.6c1.9,0,3.6-0.6,5.1-1.7
		c1.5,1.1,3.3,1.7,5.1,1.7c2.5,0,4.9-1.1,6.6-3c1.6,1.9,4,3,6.6,3c4.7,0,8.6-3.9,8.6-8.6C50.3,23.3,47.9,20.1,44.4,18.9z M41.6,34.7
		c-2.4,0-4.7-1.2-6.2-3.1L35.1,31l-0.4,0.6c-1.4,2-3.7,3.1-6.2,3.1c-1.8,0-3.4-0.6-4.8-1.7l-0.3-0.3L23.1,33c-1.4,1.1-3,1.7-4.8,1.7
		c-4.2,0-7.6-3.4-7.6-7.6c0-4,3.1-7.3,7.1-7.6h0.6l-0.2-0.6c-0.2-0.7-0.3-1.5-0.3-2.2c0-4.2,3.4-7.6,7.6-7.6c1.8,0,3.5,0.6,4.9,1.8
		l0.3,0.3l0.3-0.3C32.5,9.6,34.3,9,36.1,9c4.2,0,7.6,3.4,7.6,7.6c0,0.8-0.1,1.6-0.4,2.4l-0.2,0.5l0.5,0.1c3.3,0.9,5.6,3.9,5.6,7.3
		C49.3,31.2,45.8,34.7,41.6,34.7z"/>
	<path class="st1" d="M20.5,37.5c-0.3-0.1-0.5,0-0.6,0.3l-2.5,7c-0.1,0.3,0,0.5,0.3,0.6c0.1,0,0.1,0,0.2,0c0.2,0,0.4-0.1,0.5-0.3
		l2.5-7C20.9,37.9,20.7,37.6,20.5,37.5z"/>
	<path class="st1" d="M30,44c-0.3-0.1-0.5,0-0.6,0.3l-2.5,7c-0.1,0.3,0,0.5,0.3,0.6c0.1,0,0.1,0,0.2,0c0.2,0,0.4-0.1,0.5-0.3l2.5-7
		C30.4,44.4,30.2,44.1,30,44z"/>
	<path class="st1" d="M40.5,38.5c-0.3-0.1-0.5,0-0.6,0.3l-2.5,7c-0.1,0.3,0,0.5,0.3,0.6c0.1,0,0.1,0,0.2,0c0.2,0,0.4-0.1,0.5-0.3
		l2.5-7C40.9,38.9,40.7,38.6,40.5,38.5z"/>
</g>
</svg>
