<?xml version="1.0" encoding="utf-8"?>
<!-- Generator: Adobe Illustrator 19.1.1, SVG Export Plug-In . SVG Version: 6.00 Build 0)  -->
<svg version="1.1" id="Calque_1" xmlns="http://www.w3.org/2000/svg" xmlns:xlink="http://www.w3.org/1999/xlink" x="0px" y="0px"
	 viewBox="0 0 60 60" style="enable-background:new 0 0 60 60;" xml:space="preserve">
<style type="text/css">
	.st0{fill:none;}
	.st1{fill:#FFFFFF;}
</style>
<rect class="st0" width="60" height="60"/>
<g>
	<path class="st1" d="M20.3,40c-0.2-0.2-0.3-0.5-0.4-0.8l-3.5,10.9c-0.1,0.3,0.1,0.5,0.3,0.6c0.1,0,0.1,0,0.2,0
		c0.2,0,0.4-0.1,0.5-0.3l3.3-10.1C20.5,40.2,20.4,40.1,20.3,40z"/>
	<path class="st1" d="M20.4,50.1c-0.1,0.3,0.1,0.5,0.3,0.6c0.1,0,0.1,0,0.2,0c0.2,0,0.4-0.1,0.5-0.3l2.9-8.8l-1-0.2L20.4,50.1z"/>
	<path class="st1" d="M27.6,42.1h-0.2H27l-2.6,8c-0.1,0.3,0.1,0.5,0.3,0.6c0.1,0,0.1,0,0.2,0c0.2,0,0.4-0.1,0.5-0.3l2.7-8.3H28H27.6
		z"/>
	<path class="st1" d="M51.4,21.1c0.2-0.7,0.3-1.5,0.3-2.3c0-4.7-3.9-8.6-8.6-8.6c-1.9,0-3.7,0.6-5.2,1.8c-1.5-1.2-3.3-1.8-5.2-1.8
		c-4.7,0-8.5,3.8-8.6,8.5c0.2,0,0.3,0.1,0.5,0.1c0.2,0.1,0.3,0.1,0.5,0.2c0-0.1,0-0.1,0-0.2c0-4.2,3.4-7.6,7.6-7.6
		c1.8,0,3.5,0.6,4.9,1.8l0.3,0.3l0.3-0.3c1.4-1.2,3.1-1.8,4.9-1.8c4.2,0,7.6,3.4,7.6,7.6c0,0.8-0.1,1.6-0.4,2.4l-0.2,0.5l0.5,0.1
		c3.3,0.9,5.6,3.9,5.6,7.3c0,1.8-0.6,3.4-1.7,4.8c-0.4,0.5-0.9,1-1.5,1.4c-1,0.7-2.1,1.2-3.4,1.3c-0.3,0-0.7,0.1-1,0.1l0,0
		c-1,0-1.9-0.2-2.8-0.6c-0.3-0.1-0.6-0.3-0.9-0.4c-0.9-0.5-1.7-1.2-2.3-2c0-0.1-0.1-0.1-0.1-0.2l-0.4-0.6l-0.4,0.6l-0.1,0.1
		c-1,1.3-2.3,2.2-3.8,2.7c-0.4,0.1-0.7,0.2-1.1,0.3c-0.4,0.1-0.7,0.1-1.1,0.1c-0.6,0-1.2-0.1-1.8-0.2c-0.3-0.1-0.6-0.2-1-0.3
		c-0.4-0.2-0.8-0.3-1.1-0.6l-0.1,0.5l-0.1,0.5c0.3,0.2,0.7,0.3,1,0.4l-4.1,12.8c-0.1,0.3,0.1,0.5,0.3,0.6c0.1,0,0.1,0,0.2,0
		c0.2,0,0.4-0.1,0.5-0.3l4.1-12.8c0.7,0.2,1.4,0.3,2.1,0.3c0.3,0,0.5,0,0.8,0l-4,12.2c-0.1,0.3,0.1,0.5,0.3,0.6c0.1,0,0.1,0,0.2,0
		c0.2,0,0.4-0.1,0.5-0.3l4.1-12.7c1.3-0.3,2.5-0.9,3.5-1.7l-4.6,14.1c-0.1,0.3,0.1,0.5,0.3,0.6c0.1,0,0.1,0,0.2,0
		c0.2,0,0.4-0.1,0.5-0.3l5-15.4c0.7,0.8,1.5,1.4,2.4,1.8l-4.3,13.2c-0.1,0.3,0.1,0.5,0.3,0.6c0.1,0,0.1,0,0.2,0
		c0.2,0,0.4-0.1,0.5-0.3l4.2-13.1c0.9,0.3,1.8,0.5,2.8,0.6l-4,12.2c-0.1,0.3,0.1,0.5,0.3,0.6c0.1,0,0.1,0,0.2,0
		c0.2,0,0.4-0.1,0.5-0.3l4.1-12.5c1.2-0.1,2.3-0.4,3.3-0.9l-4.3,13.2c-0.1,0.3,0.1,0.5,0.3,0.6c0.1,0,0.1,0,0.2,0
		c0.2,0,0.4-0.1,0.5-0.3l4.4-14c2-1.6,3.3-4,3.3-6.8C57.3,25.6,54.9,22.3,51.4,21.1z"/>
	<path class="st1" d="M20.5,35.9c0-0.1,0-0.1,0-0.2c0-0.2,0-0.3,0-0.5l-0.6-0.1l0,0c-0.4-0.1-0.7-0.2-1-0.4c0.4,0.5,1,1,1.5,1.4
		C20.4,36.1,20.4,36,20.5,35.9z"/>
	<path class="st1" d="M28.5,36.8l0.1-0.6L29,34c0-0.2-0.1-0.3-0.2-0.3l0,0c-0.1,0-0.3,0.1-0.3,0.2L28,36.5L27.9,37l-0.1,0.5
		l-0.1,0.6l-0.4-0.5L27,37.2l-0.3-0.4L26,35.9l-0.7-1l-0.1-0.1l0.1-0.1l0.7-0.5c0.1-0.1,0.2-0.3,0.1-0.4c-0.1-0.1-0.1-0.1-0.2-0.1
		s-0.1,0-0.2,0.1l-0.1,0.1l-0.8,0.6l-1.5-2l0.4-2.7c0-0.2-0.1-0.3-0.2-0.3l0,0c-0.1,0-0.3,0.1-0.3,0.2L23,31.3v0.3l-0.2-0.3
		l-3.9-5.4l6.7-2.2l-1,1.9c-0.1,0.1,0,0.3,0.1,0.4h0.1c0.1,0,0.2-0.1,0.3-0.2l1.2-2.4l2.4-0.8l0.3,1c0,0.1,0.2,0.2,0.3,0.2h0.1
		c0.2,0,0.2-0.2,0.2-0.4l-0.3-1l4-1.3l-2,3.9c-0.1,0.1,0,0.3,0.1,0.4h0.1c0.1,0,0.2-0.1,0.3-0.2l2.3-4.4c0.1-0.1,0-0.3-0.1-0.4
		l-4.4-2.3h-0.1c-0.1,0-0.2,0.1-0.3,0.2c-0.1,0.1,0,0.3,0.1,0.4l3.8,1.9l-4,1.3l-0.3-1c0-0.1-0.2-0.2-0.3-0.2h-0.1
		c-0.2,0-0.2,0.2-0.2,0.4l0.3,1l-2.4,0.8L24,21.8l-0.3-0.1h-0.1c-0.1,0-0.2,0.1-0.3,0.2c0,0.1,0,0.1,0,0.2s0.1,0.2,0.1,0.2l1.9,1
		L19,25.2l-0.3,0.1v-0.5V24v-5.7l1.5,1.5c0.1,0.1,0.1,0.1,0.2,0.1s0.1,0,0.2-0.1s0.1-0.3,0-0.4l-1.9-1.9V15h1.1
		c0.2,0,0.3-0.1,0.3-0.3s-0.1-0.3-0.3-0.3h-1.1v-4.2l3,3c0.1,0.1,0.1,0.1,0.2,0.1s0.1,0,0.2-0.1s0.1-0.3,0-0.4l-3.5-3.5
		c-0.1-0.1-0.1-0.1-0.2-0.1s-0.1,0-0.2,0.1l-3.5,3.5c-0.1,0.1-0.1,0.3,0,0.4c0.1,0.1,0.1,0.1,0.2,0.1c0.1,0,0.1,0,0.2-0.1l3-3v4.2
		H17c-0.2,0-0.3,0.1-0.3,0.3S16.8,15,17,15h1.1v2.5l-1.9,1.9c-0.1,0.1-0.1,0.3,0,0.4s0.1,0.1,0.2,0.1s0.1,0,0.2-0.1l1.5-1.5v6.5v0.5
		l-0.3-0.1l-6.5-2.1l1.9-1c0.1-0.1,0.2-0.2,0.1-0.4c-0.1-0.1-0.2-0.2-0.3-0.2h-0.1l-2.4,1.2l-2.4-0.8l0.3-1c0-0.2,0-0.3-0.2-0.4H8.1
		c-0.1,0-0.2,0.1-0.3,0.2l-0.3,1l-4-1.3l3.8-1.9c0.1-0.1,0.2-0.2,0.1-0.4c-0.1-0.1-0.2-0.2-0.3-0.2H7l-4.4,2.3
		c-0.1,0.1-0.2,0.2-0.1,0.4L5,25.3c0.1,0.1,0.2,0.2,0.3,0.2h0.1c0.1-0.1,0.2-0.2,0.1-0.4l-1.9-3.8l4,1.3l-0.3,1c0,0.2,0,0.3,0.2,0.4
		h0.1c0.1,0,0.2-0.1,0.3-0.2l0.3-1l2.4,0.8l1.2,2.4c0.1,0.1,0.2,0.2,0.3,0.2h0.1c0.1-0.1,0.2-0.2,0.1-0.4l-1-1.9l6.4,2.1l0.3,0.1
		l-0.8,1l-3.4,4.7l-0.3-2.1c0-0.1-0.1-0.2-0.3-0.2l0,0c-0.2,0-0.3,0.2-0.2,0.3l0.4,2.7l-1.5,2L11,33.9c-0.1,0-0.1-0.1-0.2-0.1
		c-0.1,0-0.2,0-0.2,0.1c-0.1,0.1-0.1,0.3,0.1,0.4l0.9,0.6L9,38.1l-0.7-4.2c0-0.1-0.1-0.2-0.3-0.2l0,0c-0.2,0-0.3,0.2-0.2,0.3
		l0.8,4.9c0,0.1,0.1,0.2,0.3,0.2l0,0l4.9-0.8c0.2,0,0.3-0.2,0.2-0.3c0-0.1-0.1-0.2-0.3-0.2l0,0l-4.2,0.7l2.5-3.4l0.9,0.6
		c0.1,0,0.1,0.1,0.2,0.1c0.1,0,0.2,0,0.2-0.1c0.1-0.1,0.1-0.3-0.1-0.4l-0.9-0.6l1.5-2l2.7-0.4c0.2,0,0.3-0.2,0.2-0.3
		c0-0.1-0.1-0.2-0.3-0.2l0,0l-2.1,0.3l2.7-3.7l0.7-0.9l0.8-1.1l0.1,0.1l3.9,5.4l0.2,0.2h-0.2l-1.9-0.3l0,0c-0.1,0-0.3,0.1-0.3,0.2
		c0,0.2,0.1,0.3,0.2,0.3l1.8,0.3l0.9,0.1l0.1,0.1l1.4,1.9l-0.9,0.6c-0.1,0.1-0.2,0.3-0.1,0.4c0.1,0.1,0.1,0.1,0.2,0.1s0.1,0,0.2-0.1
		l0.9-0.6l0.3,0.4l0.7,1l0.2,0.3l0.4,0.5l0.3,0.5l0.5,0.7l-1.9-0.3l-1-0.2L23,37.8l0,0c-0.1,0-0.3,0.1-0.3,0.2
		c0,0.2,0.1,0.3,0.2,0.3l1.2,0.2l1,0.2l2.7,0.4l0,0c0,0,0,0,0.1,0s0.2-0.1,0.2-0.2l0.2-1l0.1-0.6L28.5,36.8z"/>
</g>
</svg>
