<?xml version="1.0" encoding="utf-8"?>
<!-- Generator: Adobe Illustrator 19.1.1, SVG Export Plug-In . SVG Version: 6.00 Build 0)  -->
<svg version="1.1" id="Calque_1" xmlns="http://www.w3.org/2000/svg" xmlns:xlink="http://www.w3.org/1999/xlink" x="0px" y="0px"
	 viewBox="0 0 60 60" style="enable-background:new 0 0 60 60;" xml:space="preserve">
<style type="text/css">
	.st0{fill:none;}
	.st1{fill:#FFFFFF;}
</style>
<rect class="st0" width="60" height="60"/>
<path class="st1" d="M44.6,20.6c0.2-0.7,0.3-1.5,0.3-2.3c0-4.7-3.9-8.6-8.6-8.6c-1.9,0-3.7,0.6-5.2,1.8c-1.5-1.2-3.3-1.8-5.2-1.8
	c-4.7,0-8.6,3.9-8.6,8.6c0,0.6,0.1,1.3,0.2,1.9c-4.2,0.6-7.4,4.2-7.4,8.5c0,3,1.6,5.7,4,7.2L9.5,49.6c-0.1,0.3,0.1,0.5,0.3,0.6
	c0.1,0,0.1,0,0.2,0c0.2,0,0.4-0.1,0.5-0.3l4.3-13.4c0.8,0.4,1.7,0.7,2.7,0.8l-4,12.3c-0.1,0.3,0.1,0.5,0.3,0.6c0.1,0,0.1,0,0.2,0
	c0.2,0,0.4-0.1,0.5-0.3l4.1-12.5l0,0c1.1,0,2.1-0.2,3.1-0.6l-4.1,12.8c-0.1,0.3,0.1,0.5,0.3,0.6c0.1,0,0.1,0,0.2,0
	c0.2,0,0.4-0.1,0.5-0.3L23,36.2c0.2-0.1,0.5-0.3,0.7-0.5c0.6,0.5,1.3,0.8,2,1.1l-4.1,12.8c-0.1,0.3,0.1,0.5,0.3,0.6
	c0.1,0,0.1,0,0.2,0c0.2,0,0.4-0.1,0.5-0.3l4.1-12.8c0.7,0.2,1.4,0.3,2.1,0.3c0.3,0,0.5,0,0.8,0l-4,12.2c-0.1,0.3,0.1,0.5,0.3,0.6
	c0.1,0,0.1,0,0.2,0c0.2,0,0.4-0.1,0.5-0.3l4.1-12.7c1.3-0.3,2.5-0.9,3.5-1.7l-4.6,14.1c-0.1,0.3,0.1,0.5,0.3,0.6c0.1,0,0.1,0,0.2,0
	c0.2,0,0.4-0.1,0.5-0.3l5-15.4c0.7,0.8,1.5,1.4,2.4,1.8l-4.3,13.2c-0.1,0.3,0.1,0.5,0.3,0.6c0.1,0,0.1,0,0.2,0
	c0.2,0,0.4-0.1,0.5-0.3l4.2-13.1c0.9,0.3,1.8,0.5,2.8,0.6l-4,12.2c-0.1,0.3,0.1,0.5,0.3,0.6c0.1,0,0.1,0,0.2,0
	c0.2,0,0.4-0.1,0.5-0.3l4.1-12.5c1.2-0.1,2.3-0.4,3.3-0.9l-4.3,13.2c-0.1,0.3,0.1,0.5,0.3,0.6c0.1,0,0.1,0,0.2,0
	c0.2,0,0.4-0.1,0.5-0.3l4.6-14.3c2-1.6,3.3-4,3.3-6.8C50.5,25.1,48.1,21.8,44.6,20.6z M47.8,33.5c-0.4,0.5-0.9,1-1.5,1.4
	c-1,0.7-2.1,1.2-3.4,1.3c-0.3,0-0.7,0.1-1,0.1l0,0c-1,0-1.9-0.2-2.8-0.6c-0.3-0.1-0.6-0.3-0.9-0.4c-0.9-0.5-1.7-1.2-2.3-2
	c0-0.1-0.1-0.1-0.1-0.2l-0.4-0.6L35,33.1l-0.1,0.1c-1,1.3-2.3,2.2-3.8,2.7c-0.4,0.1-0.7,0.2-1.1,0.3s-0.7,0.1-1.1,0.1
	c-0.6,0-1.2-0.1-1.8-0.2c-0.3-0.1-0.6-0.2-1-0.3c-0.7-0.3-1.4-0.7-2-1.2l-0.3-0.3l-0.2,0.2l-0.1,0.1c-0.4,0.3-0.8,0.6-1.3,0.8
	c-1,0.5-2.1,0.8-3.2,0.9c-0.1,0-0.2,0-0.3,0c-0.3,0-0.5,0-0.8,0c-1-0.1-1.9-0.4-2.7-0.8c-0.3-0.2-0.6-0.3-0.9-0.5
	c-2-1.4-3.3-3.7-3.3-6.3c0-4,3.1-7.3,7.1-7.6h0.6l-0.2-0.6c-0.2-0.7-0.3-1.5-0.3-2.2c0-4.2,3.4-7.6,7.6-7.6c1.8,0,3.5,0.6,4.9,1.8
	l0.3,0.3l0.3-0.3c1.4-1.2,3.1-1.8,4.9-1.8c4.2,0,7.6,3.4,7.6,7.6c0,0.8-0.1,1.6-0.4,2.4l-0.2,0.5l0.5,0.1c3.3,0.9,5.6,3.9,5.6,7.3
	C49.5,30.6,48.8,32.2,47.8,33.5z"/>
</svg>
