<?xml version="1.0" encoding="utf-8"?>
<!-- Generator: Adobe Illustrator 19.1.1, SVG Export Plug-In . SVG Version: 6.00 Build 0)  -->
<svg version="1.1" id="Calque_1" xmlns="http://www.w3.org/2000/svg" xmlns:xlink="http://www.w3.org/1999/xlink" x="0px" y="0px"
	 viewBox="0 0 60 60" style="enable-background:new 0 0 60 60;" xml:space="preserve">
<style type="text/css">
	.st0{fill:none;}
	.st1{fill:#FFFFFF;}
</style>
<rect class="st0" width="60" height="60"/>
<g>
	<path class="st1" d="M50.7,19.1c0.2-0.7,0.3-1.5,0.3-2.3c0-4.7-3.9-8.6-8.6-8.6c-1.9,0-3.7,0.6-5.2,1.8c-1.5-1.2-3.3-1.8-5.2-1.8
		c-2.3,0-4.5,0.9-6,2.5c0,0.1,0,0.2,0,0.4c0,0.1,0,0.2,0,0.4c-0.1,0.7-0.4,1.4-0.9,2c-0.2,0.2-0.4,0.3-0.6,0.5
		c-0.2,0.1-0.4,0.2-0.6,0.3c-0.1,0-0.2,0.1-0.3,0.1c-0.1,0.2-0.2,0.4-0.4,0.6l0.4,0.4l0,0c0.2,0.2,0.3,0.3,0.4,0.5
		c0.2,0.3,0.3,0.5,0.4,0.8l0,0c0.1-4.1,3.5-7.4,7.6-7.4c1.8,0,3.5,0.6,4.9,1.8l0.3,0.3l0.3-0.3c1.4-1.2,3.1-1.8,4.9-1.8
		c4.2,0,7.6,3.4,7.6,7.6c0,0.8-0.1,1.6-0.4,2.4l-0.2,0.5l0.5,0.1c3.3,0.9,5.6,3.9,5.6,7.3c0,4.2-3.4,7.6-7.6,7.6
		c-2.4,0-4.7-1.2-6.2-3.1l-0.4-0.6L41,31.8c-1.4,2-3.7,3.1-6.2,3.1c-0.9,0-1.7-0.1-2.5-0.4V35l-0.1,0.5c0.9,0.3,1.8,0.4,2.7,0.4
		c2.5,0,4.9-1.1,6.6-3c1.6,1.9,4,3,6.6,3c4.7,0,8.6-3.9,8.6-8.6C56.6,23.6,54.2,20.3,50.7,19.1z"/>
	<path class="st1" d="M20.9,34.5c0.1-0.1,0.2-0.3,0.3-0.4c-0.7-0.4-1.4-0.9-1.9-1.5c0,0-0.1,0-0.1-0.1c-0.1,0.1-0.3,0.2-0.4,0.2
		c-0.2,0.1-0.3,0.2-0.5,0.2c0.7,0.8,1.5,1.4,2.4,1.9C20.7,34.7,20.8,34.6,20.9,34.5z"/>
	<path class="st1" d="M23.3,41.3c-0.3-0.1-0.5,0-0.6,0.3l-2.5,7c-0.1,0.3,0,0.5,0.3,0.6c0.1,0,0.1,0,0.2,0c0.2,0,0.4-0.1,0.5-0.3
		l2.5-7C23.7,41.6,23.6,41.4,23.3,41.3z"/>
	<path class="st1" d="M29.6,40l-1.5,4.1c-0.1,0.3,0,0.5,0.3,0.6c0.1,0,0.1,0,0.2,0c0.2,0,0.4-0.1,0.5-0.3l1.9-5.2
		C30.6,39.6,30.1,39.8,29.6,40z"/>
	<path class="st1" d="M33.3,43.8c-0.3-0.1-0.5,0-0.6,0.3l-2.5,7c-0.1,0.3,0,0.5,0.3,0.6c0.1,0,0.1,0,0.2,0c0.2,0,0.4-0.1,0.5-0.3
		l2.5-7C33.7,44.1,33.6,43.9,33.3,43.8z"/>
	<path class="st1" d="M40.8,38.3c-0.3-0.1-0.5,0-0.6,0.3l-2.5,7c-0.1,0.3,0,0.5,0.3,0.6c0.1,0,0.1,0,0.2,0c0.2,0,0.4-0.1,0.5-0.3
		l2.5-7C41.2,38.6,41.1,38.4,40.8,38.3z"/>
	<path class="st1" d="M44.8,44.8c-0.3-0.1-0.5,0-0.6,0.3l-2.5,7c-0.1,0.3,0,0.5,0.3,0.6c0.1,0,0.1,0,0.2,0c0.2,0,0.4-0.1,0.5-0.3
		l2.5-7C45.2,45.1,45.1,44.9,44.8,44.8z"/>
	<path class="st1" d="M51.3,38.8c-0.3-0.1-0.5,0-0.6,0.3l-2.5,7c-0.1,0.3,0,0.5,0.3,0.6c0.1,0,0.1,0,0.2,0c0.2,0,0.4-0.1,0.5-0.3
		l2.5-7C51.7,39.1,51.6,38.9,51.3,38.8z"/>
	<path class="st1" d="M28.6,37.2c0.1,0,0.3-0.1,0.3-0.2l0.4-2.4l0.1-0.6l0.1-0.7l0.2-1.2c0-0.2-0.1-0.3-0.2-0.3l0,0
		c-0.1,0-0.3,0.1-0.3,0.2l-0.3,1.7l-0.1,0.7L28.7,35l-0.2,1.2l-0.6-0.9l-0.3-0.4l-0.3-0.4L26,32.8l0.9-0.6c0.1-0.1,0.2-0.3,0.1-0.4
		s-0.1-0.1-0.2-0.1s-0.1,0-0.2,0.1l-0.9,0.6l-1.5-2l0.4-2.7c0-0.2-0.1-0.3-0.2-0.3l0,0c-0.1,0-0.3,0.1-0.3,0.2l-0.3,2.1L19.7,24
		l6.7-2.2l-1,1.9c-0.1,0.1,0,0.3,0.1,0.4h0.1c0.1,0,0.2-0.1,0.3-0.2l1.2-2.4l2.4-0.8l0.3,1c0,0.1,0.2,0.2,0.3,0.2h0.1
		c0.2,0,0.2-0.2,0.2-0.4l-0.3-1l4-1.3L32,23c-0.1,0.1,0,0.3,0.1,0.4h0.1c0.1,0,0.2-0.1,0.3-0.2l2.3-4.4c0.1-0.1,0-0.3-0.1-0.4
		l-4.4-2.3h-0.1c-0.1,0-0.2,0.1-0.3,0.2c-0.1,0.1,0,0.3,0.1,0.4l3.8,1.9l-4,1.3l-0.3-1c0-0.1-0.2-0.2-0.3-0.2h-0.1
		c-0.2,0-0.2,0.2-0.2,0.4l0.3,1l-2.4,0.8l-2.4-1.2l0,0h-0.1c-0.1,0-0.1,0-0.1,0l-0.1,0.1c-0.1,0.1,0,0.3,0.1,0.4l1.9,1l-6.7,2.2
		v-1.5v-0.7v-0.6v-4.2l1.5,1.5C21,18,21,18,21.1,18s0.1,0,0.2-0.1s0.1-0.3,0-0.4l-1.9-1.9V13h1.1c0.2,0,0.3-0.1,0.3-0.3
		s-0.1-0.3-0.3-0.3h-1.1V8.2l3,3c0.1,0.1,0.1,0.1,0.2,0.1s0.1,0,0.2-0.1s0.1-0.3,0-0.4l-3.5-3.5c-0.1-0.1-0.1-0.1-0.2-0.1
		s-0.1,0-0.2,0.1l-3.5,3.5c-0.1,0.1-0.1,0.3,0,0.4c0.1,0.1,0.1,0.1,0.2,0.1c0.1,0,0.1,0,0.2-0.1l3-3v4.2h-1.1
		c-0.2,0-0.3,0.1-0.3,0.3s0.1,0.3,0.3,0.3h1.1v2.5l-1.9,1.9c-0.1,0.1-0.1,0.3,0,0.4s0.1,0.1,0.2,0.1s0.1,0,0.2-0.1l1.5-1.5V21v0.7
		v0.8v0.9l-0.5-0.2L17.8,23l-0.5-0.2l-5.2-1.7l1.9-1c0.1-0.1,0.2-0.2,0.1-0.4c-0.1-0.1-0.2-0.2-0.3-0.2h-0.1l-2.4,1.2L9,20.2l0.3-1
		c0-0.2,0-0.3-0.2-0.4H9c-0.1,0-0.2,0.1-0.3,0.2l-0.3,1l-4-1.3l3.8-1.9c0.1-0.1,0.2-0.2,0.1-0.4c-0.1-0.1-0.2-0.2-0.3-0.2H7.9
		l-4.4,2.3c-0.1,0.1-0.2,0.2-0.1,0.4l2.3,4.4c0.1,0.1,0.2,0.2,0.3,0.2h0.1c0.1-0.1,0.2-0.2,0.1-0.4l-1.9-3.8l4,1.3l-0.3,1
		c0,0.2,0,0.3,0.2,0.4h0.1c0.1,0,0.2-0.1,0.3-0.2l0.3-1l2.4,0.8l1.2,2.4c0.1,0.1,0.2,0.2,0.3,0.2h0.1c0.1-0.1,0.2-0.2,0.1-0.4
		l-1-1.9l5.1,1.7l0.5,0.2l0.5,0.2l0.7,0.2l-1.5,2L16.7,27l-0.5,0.7l-1.6,2.2l-0.3-2.1c0-0.1-0.1-0.2-0.3-0.2l0,0
		c-0.2,0-0.3,0.2-0.2,0.3l0.4,2.7l-1.5,2L11.8,32c-0.1,0-0.1-0.1-0.2-0.1c-0.1,0-0.2,0-0.2,0.1c-0.1,0.1-0.1,0.3,0.1,0.4l0.9,0.6
		l-2.5,3.4l-0.7-4.2c0-0.1-0.1-0.2-0.3-0.2l0,0c-0.2,0-0.3,0.2-0.2,0.3l0.8,4.9c0,0.1,0.1,0.2,0.3,0.2l0,0l4.9-0.8
		c0.2,0,0.3-0.2,0.2-0.3c0-0.1-0.1-0.2-0.3-0.2l0,0l-4.2,0.7l2.5-3.4l0.9,0.6c0.1,0,0.1,0.1,0.2,0.1c0.1,0,0.2,0,0.2-0.1
		c0.1-0.1,0.1-0.3-0.1-0.4l-1.1-1l1.5-2l2.1-0.3l0.5-0.1h0.1c0.2,0,0.3-0.2,0.2-0.3c0-0.1-0.1-0.2-0.3-0.2l0,0h-0.2l-0.5,0.1
		L15,29.9l1.2-1.6l0.5-0.6l0.5-0.7l2-2.8l4.1,5.7l-2.1-0.3l0,0c-0.1,0-0.3,0.1-0.3,0.2c0,0.2,0.1,0.3,0.2,0.3l2.7,0.4l1.5,2
		l-0.9,0.6c-0.1,0.1-0.2,0.3-0.1,0.4c0.1,0.1,0.1,0.1,0.2,0.1s0.1,0,0.2-0.1l0.9-0.6l1.1,1.5l0.3,0.4l0.3,0.4l0.7,1l-3.7-0.6
		l-0.5-0.1l0,0h-0.1c-0.1,0-0.2,0.1-0.2,0.2c0,0.2,0.1,0.3,0.2,0.3L28.6,37.2L28.6,37.2z"/>
</g>
</svg>
