<?xml version="1.0" encoding="utf-8"?>
<!-- Generator: Adobe Illustrator 19.1.1, SVG Export Plug-In . SVG Version: 6.00 Build 0)  -->
<svg version="1.1" id="Calque_1" xmlns="http://www.w3.org/2000/svg" xmlns:xlink="http://www.w3.org/1999/xlink" x="0px" y="0px"
	 viewBox="0 0 60 60" style="enable-background:new 0 0 60 60;" xml:space="preserve">
<style type="text/css">
	.st0{fill:none;}
	.st1{fill:#FFFFFF;}
</style>
<rect class="st0" width="60" height="60"/>
<g>
	<path class="st1" d="M50.9,19.4c0.2-0.7,0.3-1.5,0.3-2.3c0-4.7-3.9-8.6-8.6-8.6c-1.9,0-3.7,0.6-5.2,1.8c-1.5-1.2-3.3-1.8-5.2-1.8
		c-2.6,0-4.9,1.2-6.5,3c0,0.4-0.1,0.8-0.2,1.1s-0.3,0.5-0.4,0.7c-0.1,0.1-0.2,0.2-0.3,0.3c-0.2,0.2-0.4,0.3-0.6,0.5
		c-0.3,0.2-0.6,0.3-1,0.4c-0.1,0.2-0.2,0.4-0.4,0.6l0.5,0.5c0.2,0.2,0.3,0.3,0.4,0.5c0.2,0.3,0.3,0.5,0.4,0.8l0,0l0,0
		c0.2,0,0.3,0,0.5,0.1c0.1-4.1,3.5-7.5,7.6-7.5c1.8,0,3.5,0.6,4.9,1.8l0.3,0.3l0.3-0.3c1.4-1.2,3.1-1.8,4.9-1.8
		c4.2,0,7.6,3.4,7.6,7.6c0,0.8-0.1,1.6-0.4,2.4L49.6,20l0.5,0.1c3.3,0.9,5.6,3.9,5.6,7.3c0,4.2-3.4,7.6-7.6,7.6
		c-2.4,0-4.7-1.2-6.2-3.1l-0.4-0.6L41.3,32c-1.4,2-3.7,3.1-6.2,3.1c-1,0-2-0.2-3-0.6V35L32,35.5c1,0.4,2,0.6,3.1,0.6
		c2.5,0,4.9-1.1,6.6-3c1.6,1.9,4,3,6.6,3c4.7,0,8.6-3.9,8.6-8.6C56.8,23.8,54.4,20.5,50.9,19.4z"/>
	<path class="st1" d="M20,33.3c-0.4-0.1-0.8-0.3-1.1-0.5h-0.1c-0.1,0.1-0.3,0.2-0.4,0.3c0.6,0.7,1.4,1.4,2.2,1.8
		c0.1-0.2,0.2-0.3,0.2-0.4c0.1-0.1,0.1-0.2,0.2-0.3v-0.1C20.6,33.8,20.3,33.6,20,33.3z"/>
	<path class="st1" d="M23.9,45.3c-0.1,0.3,0,0.5,0.3,0.6c0.1,0,0.1,0,0.2,0c0.2,0,0.4-0.1,0.5-0.3l2-5.5l-1-0.2L23.9,45.3z"/>
	<path class="st1" d="M36.5,44.5c-0.3-0.1-0.5,0-0.6,0.3l-2.5,7c-0.1,0.3,0,0.5,0.3,0.6c0.1,0,0.1,0,0.2,0c0.2,0,0.4-0.1,0.5-0.3
		l2.5-7C36.9,44.9,36.8,44.6,36.5,44.5z"/>
	<path class="st1" d="M47,39c-0.3-0.1-0.5,0-0.6,0.3l-2.5,7c-0.1,0.3,0,0.5,0.3,0.6c0.1,0,0.1,0,0.2,0c0.2,0,0.4-0.1,0.5-0.3l2.5-7
		C47.4,39.4,47.3,39.1,47,39z"/>
	<path class="st1" d="M32.3,23.6l2.3-4.4c0.1-0.1,0-0.3-0.1-0.4L30,16.5h-0.1c-0.1,0-0.2,0.1-0.3,0.2c-0.1,0.1,0,0.3,0.1,0.4
		l3.8,1.9l-4,1.3l-0.3-1c0-0.1-0.2-0.2-0.3-0.2h-0.1c-0.2,0-0.2,0.2-0.2,0.4l0.3,1l-2.4,0.8L24.3,20h-0.1h-0.1c-0.1,0-0.2,0-0.2,0.1
		c0,0,0,0,0,0.1c-0.1,0.1,0,0.3,0.1,0.4l1.9,1l-6.7,2.2v-1V22v-0.7v-4.6l1.5,1.5c0.1,0.1,0.1,0.1,0.2,0.1s0.1,0,0.2-0.1
		s0.1-0.3,0-0.4l-1.9-1.9v-2.5h1.1c0.2,0,0.3-0.1,0.3-0.3s-0.1-0.3-0.3-0.3h-1.1V8.5l3,3c0.1,0.1,0.1,0.1,0.2,0.1s0.1,0,0.2-0.1
		s0.1-0.3,0-0.4l-3.5-3.5C19,7.5,19,7.5,18.9,7.5s-0.1,0-0.2,0.1l-3.5,3.5c-0.1,0.1-0.1,0.3,0,0.4c0.1,0.1,0.1,0.1,0.2,0.1
		c0.1,0,0.1,0,0.2-0.1l3-3v4.2h-1.1c-0.2,0-0.3,0.1-0.3,0.3s0.1,0.3,0.3,0.3h1.1v2.5l-1.9,1.9c-0.1,0.1-0.1,0.3,0,0.4
		s0.1,0.1,0.2,0.1s0.1,0,0.2-0.1l1.5-1.5v5.2v0.8v0.9v0.2h-0.1L18,23.4l-0.5-0.2l-5.6-1.8l1.9-1c0.1-0.1,0.2-0.2,0.1-0.4
		c-0.1-0.1-0.2-0.2-0.3-0.2h-0.1L11.1,21l-2.4-0.8l0.3-1c0-0.2,0-0.3-0.2-0.4H8.7c-0.1,0-0.2,0.1-0.3,0.2l-0.3,1l-4-1.3L8,17
		c0.1-0.1,0.2-0.2,0.1-0.4c-0.1-0.1-0.2-0.2-0.3-0.2H7.7l-4.4,2.3c-0.1,0.1-0.2,0.2-0.1,0.4l2.3,4.4c0.1,0.1,0.2,0.2,0.3,0.2h0.1
		C6,23.6,6,23.4,6,23.3l-2-3.8l4,1.3l-0.3,1c0,0.2,0,0.3,0.2,0.4H8c0.1,0,0.2-0.1,0.3-0.2l0.3-1l2.4,0.8l1.2,2.4
		c0.1,0.1,0.2,0.2,0.3,0.2h0.1c0.1-0.1,0.2-0.2,0.1-0.4l-1-1.9l5.5,1.8l0.5,0.2l0.5,0.2l0.2,0.1l-0.7,0.9L17,26.2L16.4,27l-2.1,2.9
		L14,27.8c0-0.1-0.1-0.2-0.3-0.2l0,0c-0.2,0-0.3,0.2-0.2,0.3l0.4,2.7l-1.5,2L11.5,32c-0.1,0-0.1-0.1-0.2-0.1c-0.1,0-0.2,0-0.2,0.1
		c-0.1,0.1-0.1,0.3,0.1,0.4L12,33l-2.5,3.4l-0.7-4.2c0-0.1-0.1-0.2-0.3-0.2l0,0c-0.2,0-0.3,0.2-0.2,0.3l0.8,4.9
		c0,0.1,0.1,0.2,0.3,0.2l0,0l4.9-0.8c0.2,0,0.3-0.2,0.2-0.3c0-0.1-0.1-0.2-0.3-0.2l0,0L10,36.7l2.5-3.4l0.9,0.6
		c0.1,0,0.1,0.1,0.2,0.1c0.1,0,0.2,0,0.2-0.1c0.1-0.1,0.1-0.3-0.1-0.4l-0.9-0.6l1.5-2l2.6-0.4H17c0.2,0,0.3-0.2,0.2-0.3
		c0-0.1-0.1-0.2-0.3-0.2l0,0h-0.2l-1.9,0.3l1.6-2.2l0.5-0.7l0.6-0.8l1.5-2l4.1,5.7L21,30l0,0c-0.1,0-0.3,0.1-0.3,0.2
		c0,0.2,0.1,0.3,0.2,0.3l2.7,0.4l1.5,2l-0.9,0.6c-0.1,0.1-0.2,0.3-0.1,0.4c0.1,0.1,0.1,0.1,0.2,0.1s0.1,0,0.2-0.1l0.9-0.6l1.2,1.6
		l0.3,0.4l0.3,0.4l0.6,0.9l-4.2-0.7l0,0c-0.1,0-0.3,0.1-0.3,0.2c0,0.2,0.1,0.3,0.2,0.3l4.9,0.8l0,0c0.1,0,0.3-0.1,0.3-0.2l0.3-2
		l0.1-0.6l0.1-0.7l0.2-1.6c0-0.2-0.1-0.3-0.2-0.3l0,0c-0.1,0-0.3,0.1-0.3,0.2l-0.3,2.1l-0.1,0.6l-0.1,0.6l-0.2,1l-0.5-0.7l-0.3-0.4
		l-0.3-0.4L25.8,33l0.9-0.6c0.1-0.1,0.2-0.3,0.1-0.4c-0.1-0.1-0.1-0.1-0.2-0.1s-0.1,0-0.2,0.1l-0.9,0.6l-1.5-2l0.4-2.7
		c0-0.2-0.1-0.3-0.2-0.3l0,0c-0.1,0-0.3,0.1-0.3,0.2l-0.3,2.1l-4.1-5.7L26,22l-1,1.9c-0.1,0.1,0,0.3,0.1,0.4h0.1
		c0.1,0,0.2-0.1,0.3-0.2l1.2-2.4l2.4-0.8l0.3,1c0,0.1,0.2,0.2,0.3,0.2h0.1c0.2,0,0.2-0.2,0.2-0.4l-0.3-1l4-1.3l-1.9,3.8
		c-0.1,0.1,0,0.3,0.1,0.4H32C32.1,23.7,32.2,23.7,32.3,23.6z"/>
</g>
</svg>
