<?xml version="1.0" encoding="utf-8"?>
<!-- Generator: Adobe Illustrator 19.1.1, SVG Export Plug-In . SVG Version: 6.00 Build 0)  -->
<svg version="1.1" id="Calque_1" xmlns="http://www.w3.org/2000/svg" xmlns:xlink="http://www.w3.org/1999/xlink" x="0px" y="0px"
	 viewBox="0 0 60 60" style="enable-background:new 0 0 60 60;" xml:space="preserve">
<style type="text/css">
	.st0{fill:none;}
	.st1{fill:#FFFFFF;}
</style>
<rect class="st0" width="60" height="60"/>
<g>
	<path class="st1" d="M40.6,49.3L40.6,49.3L40.6,49.3c-0.2,0-0.3,0.1-0.3,0.2c0,0.1-0.1,0.2,0,0.3l0.2,0.7l-0.4-0.2v-0.1
		c0-0.1,0.1-0.2,0-0.3c0-0.1-0.1-0.2-0.2-0.2h-0.1h-0.1c-0.1,0-0.2,0.1-0.3,0.2V50L39,49.8L38.9,49c0-0.1-0.2-0.2-0.3-0.2l0,0h-0.1
		c-0.1,0-0.2,0.1-0.2,0.2c0,0.1-0.1,0.2,0,0.3v0.1l-1.1-0.6l0.9-0.9V48c0,0.1,0,0.2,0.1,0.2c0.1,0.1,0.1,0.1,0.2,0.1l0,0
		c0.2,0,0.3-0.1,0.3-0.3v-0.8l0.3-0.3l0.1,0.1c0.1,0.1,0.2,0.1,0.2,0.1c0.1,0,0.2,0,0.2-0.1c0.1-0.1,0.1-0.1,0.1-0.2s0-0.2-0.1-0.2
		l-0.1-0.1l0.3-0.3V47c0,0.1,0,0.2,0.1,0.2c0.1,0.1,0.1,0.1,0.2,0.1l0,0c0.2,0,0.3-0.1,0.3-0.3v-1.6c0-0.2-0.1-0.3-0.3-0.3h-1.6l0,0
		c-0.2,0-0.3,0.1-0.3,0.3c0,0.1,0,0.2,0.1,0.2c0.1,0.1,0.1,0.1,0.2,0.1h0.8L38.9,46l0.1-0.2c-0.1-0.1-0.2-0.1-0.2-0.1
		c-0.1,0-0.2,0-0.2,0.1c-0.1,0.1-0.1,0.3,0,0.5l0.1,0.1l-0.3,0.3h-0.8l0,0c-0.2,0-0.3,0.1-0.3,0.3c0,0.1,0,0.2,0.1,0.2
		c0.1,0.1,0.1,0.1,0.2,0.1h0.1l-0.9,0.9L36.1,47h0.1l0,0h0.1c0.1,0,0.3-0.1,0.3-0.2c0-0.1,0-0.2,0-0.3s-0.1-0.1-0.2-0.2L35.7,46
		l-0.2-0.4h0.1c0.2-0.1,0.2-0.3,0.2-0.5c-0.1-0.1-0.2-0.2-0.3-0.2h-0.1h-0.1h-0.1L35,44.7l0.7,0.3l0,0h0.1c0.1,0,0.3-0.1,0.3-0.2
		c0-0.1,0-0.2,0-0.3s-0.1-0.1-0.2-0.2l-1.5-0.5l0,0h-0.1c-0.1,0-0.3,0.1-0.3,0.2l-0.5,1.5c0,0.1,0,0.3,0.1,0.3l0,0h0.1h0.1
		c0.1,0,0.3-0.1,0.3-0.2l0.3-0.7l0.2,0.4h-0.1c-0.2,0.1-0.2,0.3-0.2,0.5l0,0v0.1c0.1,0.1,0.2,0.1,0.2,0.1h0.1h0.1h0.1l0.2,0.4
		l-0.3,0.7c0,0.1,0,0.3,0.1,0.3l0,0h0.1H35c0.1,0,0.3-0.1,0.3-0.2v-0.1l0.6,1.2l-1.3,0.2v-0.1c0.1-0.1,0.1-0.2,0.1-0.3
		s-0.1-0.2-0.1-0.2c-0.1,0-0.1-0.1-0.2-0.1c-0.1,0-0.2,0-0.3,0.1l-0.5,0.6l-0.4,0.1v-0.1c0-0.2-0.2-0.3-0.3-0.3s-0.2,0.1-0.3,0.1
		c-0.1,0.1-0.1,0.2-0.1,0.3v0.1L32.2,49l0.5-0.6c0.1-0.1,0.1-0.2,0.1-0.3s-0.1-0.2-0.1-0.2c-0.1,0-0.1-0.1-0.2-0.1
		c-0.1,0-0.2,0-0.3,0.1l-1,1.3c-0.1,0.1-0.1,0.3,0,0.4l0,0l0,0l1.3,1c0.1,0,0.1,0.1,0.2,0.1c0.1,0,0.2,0,0.3-0.1s0.1-0.2,0.1-0.3
		S33,50.1,33,50.1l-0.6-0.5l0.5-0.1v0.1c0,0.1,0,0.1,0.1,0.2c0.1,0.1,0.2,0.1,0.2,0.1c0.2,0,0.4-0.2,0.3-0.4v-0.1l0.4-0.1l0.6,0.5
		c0.1,0,0.1,0.1,0.2,0.1c0.1,0,0.2,0,0.3-0.1s0.1-0.2,0.1-0.3S35,49.3,35,49.3h-0.1l1.3-0.2L36,50.4v-0.1c-0.1-0.1-0.2-0.1-0.3-0.1
		s-0.1,0-0.2,0.1c-0.2,0.1-0.2,0.3-0.1,0.5l0.4,0.6l-0.1,0.4h-0.1l0,0l0,0c-0.2,0-0.3,0.1-0.3,0.3c0,0.1,0,0.2,0.1,0.3
		c0,0.1,0.1,0.1,0.2,0.1h0.1L35.6,53L35,52.3c-0.1-0.1-0.2-0.1-0.3-0.1s-0.1,0-0.2,0.1c-0.1,0.1-0.1,0.1-0.1,0.2
		c0,0.1,0,0.2,0.1,0.3l0.9,1.3l0,0l0,0c0.1,0.1,0.2,0.1,0.2,0.1c0.1,0,0.1,0,0.2-0.1l1.3-0.9c0.2-0.1,0.2-0.3,0.1-0.5
		c-0.1-0.1-0.2-0.1-0.3-0.1s-0.1,0-0.2,0.1L36.1,53l0.1-0.5h0.1l0,0l0,0c0.2,0,0.3-0.1,0.3-0.3s-0.1-0.4-0.3-0.4h-0.1l0.1-0.4L37,51
		c0.1-0.1,0.1-0.1,0.1-0.2c0-0.1,0-0.2-0.1-0.3s-0.2-0.1-0.3-0.1s-0.1,0-0.2,0.1h-0.1l0.2-1.3l1.1,0.6h-0.1c-0.1,0-0.2,0.1-0.2,0.2
		c0,0.1-0.1,0.2,0,0.3v0.1l0.1,0.1c0.1,0.1,0.2,0.1,0.2,0.1l0,0h0.1l0.7-0.2l0.4,0.2v0.1c-0.1,0.1,0,0.3,0.1,0.4l0,0h0.1
		c0,0,0.1,0,0.2,0c0.1,0,0.2-0.1,0.3-0.2v-0.1L40,51l-0.7,0.2c-0.1,0-0.2,0.1-0.2,0.2c0,0.1-0.1,0.2,0,0.3v0.1l0.1,0.1
		c0.1,0.1,0.2,0.1,0.2,0.1l0,0h0.1l1.5-0.5c0.1,0,0.2-0.1,0.2-0.2c0-0.1,0.1-0.2,0-0.3l-0.5-1.5C40.9,49.4,40.7,49.3,40.6,49.3z"/>
	<path class="st1" d="M25.4,46.5L25.4,46.5L25.4,46.5c-0.2,0-0.2,0.1-0.3,0.1S25,46.8,25,46.9l0.1,0.7l-0.3-0.2v-0.1
		c0-0.1,0.1-0.2,0.1-0.2c0-0.1-0.1-0.2-0.1-0.2h-0.1h-0.1c-0.1,0-0.2,0.1-0.3,0.1v0.1L24,46.7L23.8,46c0-0.2-0.2-0.3-0.3-0.3l0,0
		l0,0c-0.1,0-0.2,0.1-0.2,0.1c-0.1,0.1-0.1,0.2-0.1,0.3l0,0l-0.9-0.6l0.9-0.7l0,0c0,0.1,0,0.2,0.1,0.2c0.1,0.1,0.1,0.1,0.2,0.1l0,0
		c0.2,0,0.3-0.1,0.4-0.3l0.1-0.7l0.3-0.2V44c0.1,0.1,0.2,0.1,0.3,0.1c0.1,0,0.1,0,0.2-0.1s0.2-0.3,0.1-0.5v-0.1l0.3-0.2l-0.1,0.7
		c0,0.1,0,0.2,0.1,0.2c0.1,0.1,0.1,0.1,0.2,0.1l0,0c0.2,0,0.3-0.1,0.4-0.3l0.2-1.5c0-0.2-0.1-0.4-0.3-0.4L24,42.1l0,0
		c-0.2,0-0.3,0.1-0.4,0.3c0,0.1,0,0.2,0.1,0.2c0.1,0.1,0.1,0.1,0.2,0.1l0.7,0.1L24.3,43v-0.1c-0.1-0.1-0.2-0.1-0.3-0.1
		c-0.1,0-0.1,0-0.2,0.1s-0.2,0.3-0.1,0.5v0.1l-0.3,0.2l-0.7-0.1l0,0c-0.2,0-0.3,0.1-0.4,0.3c0,0.1,0,0.2,0.1,0.2
		c0.1,0.1,0.1,0.1,0.2,0.1l0,0L21.8,45l-0.4-1l0,0h0.1h0.1c0.1,0,0.2-0.1,0.3-0.2c0-0.1,0-0.2,0-0.3s-0.1-0.2-0.2-0.2L21.1,43
		L21,42.7h0.1c0.2-0.1,0.3-0.3,0.2-0.4c0-0.1-0.2-0.2-0.3-0.2l0,0h-0.1h-0.1l-0.1-0.4l0.6,0.3h0.1h0.1c0.1,0,0.2-0.1,0.3-0.2
		c0-0.1,0-0.2,0-0.3s-0.1-0.2-0.2-0.2l-1.3-0.6h-0.1h-0.1c-0.1,0-0.2,0.1-0.3,0.2l-0.6,1.3c-0.1,0.1,0,0.2,0,0.3l0,0l0.1,0.1h0.1
		c0.1,0,0.2-0.1,0.3-0.2l0.3-0.6l0.1,0.4H20c-0.2,0.1-0.3,0.3-0.2,0.4l0,0v0.1c0.1,0.1,0.2,0.1,0.3,0.1l0,0h0.1h0.1l0.1,0.4
		l-0.3,0.6c-0.1,0.1,0,0.2,0,0.3l0,0l0.1,0.1h0.1c0.1,0,0.2-0.1,0.3-0.2l0,0l0.4,1.1h-1.1l0,0C20,45,20,44.9,20,44.9
		c0-0.1,0-0.2-0.1-0.2c-0.1-0.1-0.1-0.1-0.2-0.1s-0.2,0-0.2,0.1L19,45.2h-0.4v-0.1c0-0.2-0.2-0.3-0.3-0.3c-0.1,0-0.2,0-0.2,0.1
		C18,45,18,45.1,18,45.1v0.1h-0.4l0.5-0.5c0.1-0.1,0.1-0.2,0.1-0.2c0-0.1,0-0.2-0.1-0.2c-0.1-0.1-0.1-0.1-0.2-0.1s-0.2,0-0.2,0.1
		l-1,1.1c-0.1,0.1-0.1,0.3,0,0.4l0,0l0,0l1.1,1c0.1,0.1,0.1,0.1,0.2,0.1s0.2,0,0.2-0.1c0.1-0.1,0.1-0.2,0.1-0.2c0-0.1,0-0.2-0.1-0.2
		l-0.5-0.5h0.4V46c0,0.1,0,0.1,0.1,0.2c0.1,0.1,0.2,0.1,0.3,0.1c0.2,0,0.3-0.2,0.3-0.3v-0.1h0.4l0.5,0.5c0.1,0.1,0.1,0.1,0.2,0.1
		s0.2,0,0.2-0.1c0.1-0.1,0.1-0.2,0.1-0.2c0-0.1,0-0.2-0.1-0.2l0,0h1.1l-0.3,1l0,0c-0.1-0.1-0.2-0.2-0.3-0.2h-0.1h-0.1
		c-0.2,0.1-0.2,0.3-0.1,0.5l0.3,0.6l-0.1,0.4h-0.1l0,0h-0.1c-0.1,0-0.3,0.1-0.3,0.2c0,0.1,0,0.2,0.1,0.3c0,0.1,0.1,0.1,0.2,0.1h0.1
		l-0.1,0.4L20,48.7c-0.1-0.1-0.2-0.2-0.3-0.2h-0.1h-0.1c-0.1,0-0.1,0.1-0.2,0.2s0,0.2,0,0.3l0.7,1.3l0,0l0,0
		c0.1,0.1,0.2,0.1,0.3,0.1h0.1h0.1l1.3-0.7c0.2-0.1,0.2-0.3,0.1-0.5c-0.1-0.1-0.2-0.2-0.3-0.2h-0.1h-0.1l-0.6,0.3l0.1-0.4H21l0,0
		h0.1c0.1,0,0.3-0.1,0.3-0.2c0.1-0.2-0.1-0.4-0.2-0.4h-0.1l0.1-0.4l0.6-0.3c0.1,0,0.1-0.1,0.2-0.2s0-0.2,0-0.3
		c-0.1-0.1-0.2-0.2-0.3-0.2h-0.1h-0.1l0,0l0.3-1.1l0.9,0.6l0,0c-0.1,0-0.2,0.1-0.2,0.1s-0.1,0.2-0.1,0.3v0.1l0.1,0.1
		c0.1,0.1,0.2,0.1,0.3,0.1l0,0l0,0l0.7-0.1l0.3,0.2v0.1c-0.1,0.1-0.1,0.3,0,0.4l0,0h0.1c0.1,0,0.1,0.1,0.2,0.1s0.2-0.1,0.3-0.1v-0.1
		l0.3,0.2L24,47.9c-0.1,0-0.2,0.1-0.2,0.1c-0.1,0.1-0.1,0.2-0.1,0.3v0.1l0.1,0.1c0.1,0.1,0.2,0.1,0.3,0.1l0,0l0,0l1.4-0.3
		c0.1,0,0.2-0.1,0.2-0.1c0.1-0.1,0.1-0.2,0.1-0.3L25.4,46.5C25.7,46.6,25.5,46.5,25.4,46.5z"/>
	<path class="st1" d="M31.4,39.5c-0.1,0.1-0.1,0.3,0,0.4l0,0l0,0c0,0,0.1,0,0.1,0.1c-0.1,0-0.1,0.1-0.2,0.1c0,0.1-0.1,0.2,0,0.2v0.1
		v0.1c0.1,0.1,0.2,0.1,0.2,0.1l0,0l0,0l1.1-0.2c0.1,0,0.2-0.1,0.2-0.1c0-0.1,0.1-0.2,0-0.2l0.2-1.2c0-0.1-0.2-0.3-0.3-0.3l0,0l0,0
		c-0.1,0-0.2,0.1-0.2,0.1c0,0.1-0.1,0.1-0.1,0.2l-0.1-0.1h-0.1h-0.1c-0.1,0-0.2,0.1-0.3,0.1l-0.2-0.1l-0.1-0.5
		c0-0.1-0.2-0.3-0.3-0.3l0,0l0,0c-0.1,0-0.2,0.1-0.2,0.1s0,0.1-0.1,0.1L30.3,38l0.5-0.4c0,0,0,0.1,0.1,0.1c0.1,0.1,0.1,0.1,0.2,0.1
		l0,0c0.2,0,0.3-0.1,0.3-0.3l0.1-0.5l0.2-0.1C31.8,37,31.9,37,32,37h0.1l0.1-0.1l0.1-0.1c0,0.1,0,0.2,0.1,0.2
		c0.1,0.1,0.1,0.1,0.2,0.1l0,0c0.2,0,0.3-0.1,0.3-0.3l0.1-1.1c0-0.2-0.1-0.3-0.3-0.4l-1.1-0.1l0,0c-0.2,0-0.3,0.1-0.3,0.3
		c0,0.1,0,0.2,0.1,0.2c0,0.1,0.1,0.1,0.2,0.1L31.4,36c-0.1,0.1-0.1,0.1-0.1,0.2c0,0.1,0,0.2,0.1,0.2l-0.2,0.1l-0.5-0.1l0,0
		c-0.2,0-0.3,0.1-0.3,0.3c0,0.1,0,0.2,0.1,0.2l0.1,0.1l-0.5,0.4l-0.2-0.6l0,0c0.1,0,0.2-0.1,0.3-0.2c0-0.1,0-0.2,0-0.2
		c0-0.1-0.1-0.1-0.2-0.2L29.5,36l-0.1-0.2c0.2-0.1,0.2-0.2,0.2-0.4c0,0,0-0.1-0.1-0.1l0,0h0.1c0.1,0,0.2-0.1,0.3-0.2
		c0-0.1,0-0.2,0-0.2c0-0.1-0.1-0.1-0.2-0.2l-1-0.5h-0.1h-0.1l0,0c-0.1,0-0.2,0.1-0.3,0.2l-0.5,1c-0.1,0.1,0,0.2,0,0.3l0,0h0.1h0.1
		c0.1,0,0.2-0.1,0.3-0.2v0.1l0,0l0,0c0.1,0.1,0.2,0.1,0.2,0.1l0,0h0.1l0.1,0.2l-0.2,0.5c-0.1,0.1,0,0.2,0,0.3l0,0h0.1h0.1
		c0.1,0,0.2,0,0.2-0.1l0.2,0.6h-0.7v-0.1V37l-0.1-0.1c-0.1-0.1-0.1-0.1-0.2-0.1s-0.2,0-0.2,0.1l-0.4,0.4h-0.2c0-0.2-0.1-0.3-0.3-0.3
		c-0.1,0-0.1,0-0.2,0c0.1-0.1,0.1-0.1,0.1-0.2v-0.1l-0.1-0.1C27,37,26.9,37,26.9,37c-0.1,0-0.2,0-0.2,0.1L25.9,38
		c-0.1,0.1-0.1,0.3,0,0.4l0,0l0,0l0.8,0.8l0.1,0.1h0.1c0.1,0,0.2,0,0.2-0.1c0.1-0.1,0.1-0.1,0.1-0.2v-0.1l-0.1-0.1h0.1
		c0.1,0,0.2,0,0.2-0.1c0.1-0.1,0.1-0.1,0.1-0.2h0.2l0.4,0.4l0.1,0.1h0.1c0.1,0,0.2,0,0.2-0.1c0.1-0.1,0.1-0.1,0.1-0.2v-0.1l0,0h0.7
		L29.2,39c-0.1,0-0.2-0.1-0.2-0.1h-0.1h-0.1c-0.2,0.1-0.2,0.3-0.1,0.4l0.3,0.5L28.9,40l0,0h-0.1c-0.1,0-0.3,0.1-0.3,0.2v0.1
		c-0.1-0.1-0.2-0.1-0.3-0.1h-0.1H28c-0.1,0-0.1,0.1-0.2,0.2c0,0.1,0,0.2,0,0.2l0.5,1l0,0l0,0c0.1,0.1,0.2,0.1,0.2,0.1h0.1h0.1l1-0.5
		c0.1,0,0.1-0.1,0.2-0.2c0-0.1,0-0.2,0-0.2c-0.1-0.1-0.2-0.2-0.3-0.2h-0.1h-0.1l0.1-0.1c0-0.2,0-0.3-0.2-0.4l0.1-0.2l0.5-0.3
		c0.2-0.1,0.2-0.3,0.1-0.4c-0.1-0.1-0.2-0.2-0.3-0.2h-0.1l0.2-0.7l0.6,0.4l-0.1,0.1c0,0.1-0.1,0.2,0,0.2v0.1v0.1
		c0.1,0.1,0.2,0.1,0.2,0.1l0,0l0,0l0.5-0.1L31.4,39.5z"/>
	<path class="st1" d="M44.4,16.8c0.2-0.7,0.3-1.5,0.3-2.3c0-4.7-3.9-8.6-8.6-8.6c-1.9,0-3.7,0.6-5.2,1.8c-1.5-1.2-3.3-1.8-5.2-1.8
		c-4.7,0-8.6,3.9-8.6,8.6c0,0.6,0.1,1.3,0.2,1.9C13,17,9.8,20.6,9.8,24.9c0,4.7,3.9,8.6,8.6,8.6c1.8,0,3.6-0.6,5.1-1.7
		c1.5,1.1,3.2,1.7,5.1,1.7c2.5,0,4.9-1.1,6.6-3c1.6,1.9,4,3,6.6,3c4.7,0,8.6-3.9,8.6-8.6C50.3,21.2,47.9,17.9,44.4,16.8z M41.6,32.5
		c-2.4,0-4.7-1.2-6.2-3.1L35,28.8l-0.4,0.6c-1.4,2-3.7,3.1-6.2,3.1c-1.8,0-3.4-0.6-4.8-1.7l-0.3-0.3L23,30.8c-1.4,1.1-3,1.7-4.8,1.7
		c-4.2,0-7.6-3.4-7.6-7.6c0-4,3.1-7.3,7.1-7.6h0.6l-0.2-0.6c0-0.7-0.1-1.5-0.1-2.2c0-4.2,3.4-7.6,7.6-7.6c1.8,0,3.5,0.6,4.9,1.8
		L30.8,9l0.3-0.3c1.4-1.2,3.1-1.8,4.9-1.8c4.2,0,7.6,3.4,7.6,7.6c0,0.8-0.1,1.6-0.4,2.4L43,17.4l0.5,0.1c3.3,0.9,5.6,3.9,5.6,7.3
		C49.3,29.1,45.8,32.5,41.6,32.5z"/>
	<path class="st1" d="M17.8,43.4c0.2,0,0.4-0.1,0.5-0.3l2.5-7c0.1-0.3,0-0.5-0.3-0.6s-0.5,0-0.6,0.3l-2.5,7c-0.1,0.3,0,0.5,0.3,0.6
		C17.7,43.4,17.7,43.4,17.8,43.4z"/>
	<path class="st1" d="M30,41.9c-0.3-0.1-0.5,0-0.6,0.3l-2.5,7c-0.1,0.3,0,0.5,0.3,0.6c0.1,0,0.1,0,0.2,0c0.2,0,0.4-0.1,0.5-0.3
		l2.5-7C30.4,42.3,30.2,42,30,41.9z"/>
	<path class="st1" d="M37.8,44.4c0.2,0,0.4-0.1,0.5-0.3l2.5-7c0.1-0.3,0-0.5-0.3-0.6s-0.5,0-0.6,0.3l-2.5,7
		C37.3,44.1,37.4,44.3,37.8,44.4C37.7,44.4,37.7,44.4,37.8,44.4z"/>
</g>
</svg>
