<?xml version="1.0" encoding="utf-8"?>
<!-- Generator: Adobe Illustrator 19.1.1, SVG Export Plug-In . SVG Version: 6.00 Build 0)  -->
<svg version="1.1" id="Calque_1" xmlns="http://www.w3.org/2000/svg" xmlns:xlink="http://www.w3.org/1999/xlink" x="0px" y="0px"
	 viewBox="0 0 60 60" style="enable-background:new 0 0 60 60;" xml:space="preserve">
<style type="text/css">
	.st0{fill:none;}
	.st1{fill:#FFFFFF;}
</style>
<rect class="st0" width="60" height="60"/>
<g>
	<path class="st1" d="M44.4,16.7c0.2-0.7,0.3-1.5,0.3-2.3c0-4.7-3.9-8.6-8.6-8.6c-1.9,0-3.7,0.6-5.2,1.8c-1.5-1.2-3.3-1.8-5.2-1.8
		c-4.7,0-8.6,3.9-8.6,8.6c0,0.6,0.1,1.3,0.2,1.9c-4.2,0.6-7.4,4.2-7.4,8.5c0,4.7,3.9,8.6,8.6,8.6c1.8,0,3.6-0.6,5.1-1.7
		c1.5,1.1,3.3,1.7,5.1,1.7c2.5,0,4.9-1.1,6.6-3c1.6,1.9,4,3,6.6,3c4.7,0,8.6-3.9,8.6-8.6C50.3,21.1,47.9,17.9,44.4,16.7z M35.5,29.3
		l-0.4-0.6l-0.4,0.6c-1.4,2-3.7,3.1-6.2,3.1c-1.8,0-3.4-0.6-4.8-1.7l-0.3-0.3l-0.3,0.3c-1.4,1.1-3,1.7-4.8,1.7
		c-4.2,0-7.6-3.4-7.6-7.6c0-4,3.1-7.3,7.1-7.6h0.6l-0.2-0.6c-0.2-0.7-0.3-1.5-0.3-2.2c0-4.2,3.4-7.6,7.6-7.6c1.8,0,3.5,0.6,4.9,1.8
		l0.3,0.3L31,8.6c1.4-1.2,3.1-1.8,4.9-1.8c4.2,0,7.6,3.4,7.6,7.6c0,0.8-0.1,1.6-0.4,2.4l-0.2,0.5l0.5,0.1c3.3,0.9,5.6,3.9,5.6,7.3
		c0,4.2-3.4,7.6-7.6,7.6C39.2,32.5,36.9,31.3,35.5,29.3z"/>
	<path class="st1" d="M27,41.3c-0.3-0.1-0.5,0-0.6,0.3l-1.9,5.3L23.8,47c-0.2,0-0.3,0.2-0.3,0.4c0,0.1,0.2,0.3,0.3,0.3l0,0l0,0
		l-0.1,0.1c-0.1,0.1-0.1,0.3,0.1,0.4l-0.1,0.2l-0.5,0.1c-0.1,0-0.2,0.1-0.2,0.1l-0.1,0.2c0,0.1,0.1,0.2,0.3,0.3l-0.4,0.6l-0.4-0.6
		c0.2,0,0.2-0.1,0.3-0.3v-0.1v-0.1c0-0.1-0.1-0.2-0.3-0.2l-0.5-0.1l-0.1-0.2c0.1-0.1,0.2-0.2,0.1-0.4l0,0v-0.1l-0.1-0.1
		c0.2,0,0.3-0.1,0.3-0.3v-0.1V47c0-0.1-0.1-0.2-0.3-0.2l-1.1-0.2l0,0c-0.2,0-0.3,0.1-0.4,0.3L20.1,48v0.1l0.1,0.1
		c0,0.1,0.1,0.1,0.2,0.1l0,0c0.2,0,0.3-0.1,0.3-0.2c0,0,0,0.1,0.1,0.1c0.1,0.1,0.2,0.1,0.3,0.1h0.1l0.1-0.1l0.1,0.2l-0.1,0.5V49
		l0.1,0.1c0,0.1,0.1,0.1,0.2,0.1l0,0c0.2,0,0.3-0.1,0.3-0.2l0.4,0.6l-0.7,0.2v-0.1c0-0.1-0.1-0.1-0.2-0.2h-0.1h-0.1
		c-0.1,0-0.2,0.1-0.3,0.2l-0.2,0.5l-0.2,0.1c0-0.1-0.2-0.2-0.3-0.2l0,0h-0.1c0,0-0.1,0-0.1,0.1c0-0.1,0-0.2,0-0.2
		c0-0.1-0.1-0.1-0.2-0.2h-0.1h-0.1c-0.1,0-0.2,0.1-0.3,0.2l-0.5,1c0,0.1,0,0.2,0,0.2c0,0.1,0.1,0.1,0.2,0.2l1,0.5h0.1h0.1
		c0.1,0,0.2-0.1,0.3-0.2c0-0.1,0-0.2,0-0.2c0-0.1-0.1-0.1-0.1-0.2l0,0l0,0h0.1c0.1,0,0.1-0.1,0.2-0.2c0-0.1,0-0.2,0-0.2l0.2-0.1
		l0.5,0.2h0.1h0.1c0.1,0,0.2-0.1,0.3-0.2c0-0.1,0-0.2,0-0.2s0-0.1-0.1-0.1l0.7-0.2V51h-0.1c-0.1,0-0.2,0-0.2,0.1
		C22,51.4,22,51.5,22,51.6s0,0.2,0.1,0.2l0.4,0.4v0.2c-0.2,0-0.3,0.1-0.3,0.3c0,0.1,0,0.1,0,0.1c-0.1-0.1-0.1-0.1-0.2-0.1
		s-0.2,0-0.2,0.1c-0.1,0.1-0.1,0.1-0.1,0.2c0,0.1,0,0.2,0.1,0.2l0.8,0.8c0.1,0.1,0.1,0.1,0.2,0.1s0.2,0,0.2-0.1l0.8-0.8
		c0.1-0.1,0.1-0.2,0.1-0.3v-0.1l-0.1-0.1c-0.1-0.1-0.1-0.1-0.2-0.1s-0.2,0-0.2,0.1v-0.1l0,0v-0.1c0-0.1-0.2-0.2-0.3-0.2v-0.2
		l0.4-0.4c0.1-0.1,0.1-0.2,0.1-0.3v-0.1l-0.1-0.1c-0.1-0.1-0.1-0.1-0.2-0.1s-0.1,0-0.1,0v-0.7l0.7,0.2l-0.1,0.1v0.1l0.1,0.1
		c0.1,0.1,0.2,0.2,0.3,0.2H24h0.1l0.5-0.2l0.2,0.1c-0.1,0.2,0,0.3,0.2,0.4l0,0h0.1l0,0c-0.1,0-0.1,0.1-0.1,0.2v0.1l0,0.3
		c0.1,0.1,0.2,0.2,0.3,0.2h0.1h0.1l1-0.5c0.1-0.1,0.2-0.2,0.2-0.4l0,0l0,0l-0.5-1C26,50,25.9,50,25.8,50h-0.1h-0.1
		c-0.1,0-0.1,0.1-0.2,0.2v0.1v0.1l-0.1-0.1l0,0h-0.1c-0.1,0-0.3,0.1-0.3,0.2l-0.2-0.1L24.5,50c-0.1-0.1-0.2-0.2-0.3-0.2h-0.1H24
		c0,0.1,0,0.2,0,0.3v0.1l0,0L23.3,50l0.4-0.6c0.1,0.1,0.2,0.2,0.3,0.2l0,0l0,0c0.1,0,0.2-0.1,0.2-0.1c0-0.1,0-0.1,0-0.2l0,0
		c0.2,0,0.4-0.1,0.5-0.3l0.2-0.5c0.1,0.1,0.1,0.1,0.2,0.1l0,0l0,0c0.1,0,0.2-0.1,0.2-0.1c0-0.1,0.1-0.2,0.1-0.2l-0.1-0.8l1.9-5.5
		C27.4,41.7,27.2,41.4,27,41.3z"/>
	<path class="st1" d="M38.5,42.3c-0.3-0.1-0.5,0-0.6,0.3l-1.1,3.1c-0.1,0-0.1,0.1-0.2,0.2c0,0.1,0,0.1,0,0.2l-0.1,0.2
		c0-0.1-0.1-0.1-0.2-0.2l0,0h-0.1c-0.1,0-0.3,0.1-0.3,0.2v0.1l-0.4-0.1l-0.3-0.6c-0.1-0.1-0.2-0.2-0.3-0.2h-0.1h-0.1
		c-0.1,0-0.1,0.1-0.2,0.2c0,0.1,0,0.2,0,0.3l0,0l-1.1-0.4l0.7-0.9l0,0c0,0.2,0.2,0.3,0.3,0.3l0,0l0,0c0.1,0,0.2-0.1,0.2-0.1l0.1-0.2
		l0.1-0.7l0.2-0.3h0.1c0.1,0,0.1,0.1,0.2,0.1c0.1,0,0.2-0.1,0.3-0.1c0.1-0.1,0.1-0.2,0-0.3c0-0.1-0.1-0.1-0.1-0.2h-0.1l0.2-0.3
		l0.1,0.7c0,0.2,0.2,0.3,0.3,0.3l0,0l0,0c0.1,0,0.2-0.1,0.2-0.1l0.1-0.2l-0.2-1.5l0,0l0,0c0-0.1-0.2-0.2-0.3-0.2l0,0l0,0l-1.5,0.2
		c-0.1,0-0.2,0.1-0.2,0.1C34,42,34,42.1,34,42.2c0,0.2,0.2,0.3,0.3,0.3l0,0l0,0l0.7-0.1l-0.2,0.3h-0.1c-0.1,0-0.1-0.1-0.2-0.1
		c-0.1,0-0.2,0.1-0.3,0.1c-0.1,0.1-0.1,0.4,0.1,0.5h0.1l-0.2,0.3l-0.7,0.1c-0.1,0-0.2,0.1-0.2,0.1c-0.1,0.1-0.1,0.2-0.1,0.2
		c0,0.2,0.2,0.3,0.3,0.3l0,0l0,0l0,0L33,45.3l-0.7-0.9l0,0l0,0l0,0c0.2,0,0.3-0.1,0.3-0.3V44v-0.1c0-0.1-0.1-0.2-0.3-0.2H32
		c0,0,0.1-0.1,0.1-0.2l2.5-7c0.1-0.3,0-0.5-0.3-0.6s-0.5,0-0.6,0.3L31.6,42h-0.1L30,41.8l0,0l0,0c-0.2,0-0.3,0.1-0.3,0.3l-0.2,1.5
		c0,0.1,0,0.2,0.1,0.2c0.1,0.1,0.1,0.1,0.2,0.1l0,0l0,0c0.2,0,0.3-0.1,0.3-0.3l0.1-0.7l0.2,0.3h-0.1c-0.1,0.1-0.1,0.1-0.1,0.2
		c0,0.1,0,0.2,0.1,0.2c0.1,0.1,0.2,0.1,0.3,0.1c0.1,0,0.1,0,0.2-0.1h0.1l0.2,0.3L31,44.6c0,0.1,0,0.2,0.1,0.2
		c0.1,0.1,0.1,0.1,0.2,0.1l0,0l0,0c0.2,0,0.3-0.1,0.3-0.3l0,0l0.7,0.9L31.4,46l0,0c0-0.1,0-0.2,0-0.3s-0.1-0.2-0.2-0.2h-0.1H31
		c-0.1,0-0.2,0.1-0.3,0.2l-0.3,0.6L30,46.4v-0.1c0-0.1-0.2-0.2-0.3-0.2l0,0h-0.1c-0.2,0.1-0.3,0.2-0.2,0.4v0.1L29,46.7l0.3-0.6
		c0-0.1,0-0.2,0-0.3s-0.1-0.2-0.2-0.2H29h-0.1c-0.1,0-0.2,0.1-0.3,0.2l-0.7,1.3c0,0.1,0,0.2,0,0.3s0.1,0.2,0.2,0.2l1.3,0.7h0.1h0.1
		c0.1,0,0.2-0.1,0.3-0.2c0-0.1,0-0.2,0-0.3s-0.1-0.2-0.2-0.2l-0.6-0.3l0.4-0.1v0.1c0,0.1,0.2,0.2,0.3,0.2l0,0h0.1
		c0.2-0.1,0.3-0.2,0.2-0.4V47l0.4-0.1l0.6,0.3h0.1h0.1c0.1,0,0.2-0.1,0.3-0.2c0-0.1,0-0.2,0-0.3s-0.1-0.2-0.2-0.2l0,0l1.1-0.4v1.1
		l0,0c-0.1-0.1-0.1-0.1-0.2-0.1c-0.1,0-0.2,0-0.2,0.1C32,47.3,32,47.3,32,47.4c0,0.1,0,0.2,0.1,0.2l0.5,0.5v0.4h-0.1
		c-0.2,0-0.3,0.2-0.3,0.3c0,0.2,0.2,0.3,0.3,0.3h0.1v0.4L32.1,49c-0.1-0.1-0.1-0.1-0.2-0.1s-0.2,0-0.2,0.1c-0.1,0.1-0.1,0.1-0.1,0.2
		c0,0.1,0,0.2,0.1,0.2l1,1c0.1,0.1,0.1,0.1,0.2,0.1c0.1,0,0.2,0,0.2-0.1l1-1c0.1-0.1,0.1-0.2,0.1-0.3V49l-0.1-0.1
		c-0.1-0.1-0.1-0.1-0.2-0.1c-0.1,0-0.2,0-0.2,0.1l-0.5,0.5V49h0.1c0.2,0,0.3-0.2,0.3-0.3l0,0v-0.1c0-0.1-0.2-0.2-0.3-0.2h-0.1V48
		l0.5-0.5c0.1-0.1,0.1-0.2,0.1-0.3v-0.1L33.7,47c-0.1-0.1-0.1-0.1-0.2-0.1c-0.1,0-0.2,0-0.2,0.1l0,0v-1.1l1.1,0.4l0,0
		c-0.1,0-0.1,0.1-0.2,0.2c0,0.1,0,0.2,0,0.3c0.1,0.1,0.2,0.2,0.3,0.2h0.1h0.1l0.6-0.3l0.4,0.1v0.1c-0.1,0.2,0,0.4,0.2,0.4l0,0H36
		h0.1L36,47.8l0,0l0,0l-0.6,1.7c-0.1,0.3,0,0.5,0.3,0.6c0.1,0,0.1,0,0.2,0c0.2,0,0.4-0.1,0.5-0.3l0.7-2l0.7-0.4
		c0.1-0.1,0.2-0.2,0.2-0.4l0,0l0,0l-0.3-0.7l1.3-3.5C38.9,42.7,38.7,42.4,38.5,42.3z"/>
	<path class="st1" d="M45,36.3c-0.3-0.1-0.5,0-0.6,0.3l-2.5,7c-0.1,0.3,0,0.5,0.3,0.6c0.1,0,0.1,0,0.2,0c0.2,0,0.4-0.1,0.5-0.3
		l2.5-7C45.4,36.7,45.2,36.4,45,36.3z"/>
	<path class="st1" d="M18.7,38.9L18.7,38.9l1.1-0.6l0.1,1.3l-0.1-0.1c-0.1,0-0.1-0.1-0.2-0.1s-0.2,0-0.3,0.1
		c-0.1,0.1-0.1,0.2-0.1,0.2c0,0.1,0.1,0.2,0.1,0.2l0.6,0.5v0.4L20,41c-0.2,0-0.3,0.2-0.3,0.4s0.2,0.3,0.3,0.3h0.1v0.5l-0.6-0.5
		c-0.1,0-0.1-0.1-0.2-0.1s-0.2,0-0.3,0.1c0,0.1,0,0.2,0,0.3s0.1,0.2,0.1,0.2l1.2,1c0.1,0,0.1,0.1,0.2,0.1s0.2,0,0.3-0.1l1-1.2
		c0.1,0.1,0.2,0.2,0.3,0.3c0.1,0,0.1,0,0.2,0c0.2,0,0.4-0.1,0.5-0.3l0.7-2l0,0c0.1,0.1,0.2,0.2,0.3,0.2c0.1,0,0.1,0,0.2-0.1l1.3-0.9
		c0.1-0.1,0.2-0.3,0.1-0.4l0,0l0,0l-0.9-1.3l-0.1-0.1l0.8-2.3c0.1-0.3,0-0.5-0.3-0.6s-0.5,0-0.6,0.3L23,38.3l-0.3-0.1l-0.4-0.6
		c-0.1-0.1-0.2-0.2-0.3-0.2c-0.1,0-0.1,0-0.2,0.1s-0.1,0.1-0.1,0.2c0,0.1,0,0.2,0,0.3v0.1l-1.3-0.3l0.7-1.1v0.1
		c0,0.1,0.2,0.3,0.3,0.3l0,0h0.1c0.1,0,0.2-0.1,0.2-0.2s0.1-0.2,0-0.3l-0.2-0.7l0.2-0.4h0.1h0.1H22c0.1,0,0.2-0.1,0.3-0.2
		c0.1-0.1,0.1-0.2,0-0.3c0-0.1-0.1-0.1-0.1-0.2h-0.1l0.2-0.4l0.2,0.7c0,0.1,0.2,0.3,0.3,0.3l0,0h0.1c0.1,0,0.2-0.1,0.2-0.2
		c0-0.1,0.1-0.2,0-0.3L23,33.3l0,0l0,0c-0.1-0.1-0.2-0.2-0.3-0.2l0,0h-0.1l-1.5,0.4c-0.1,0-0.2,0.1-0.2,0.2c0,0.1-0.1,0.2,0,0.3
		c0,0.1,0.2,0.3,0.3,0.3l0,0h0.1l0.7-0.2l-0.2,0.4h-0.1h-0.1h-0.1c-0.1,0-0.2,0.1-0.3,0.2c-0.1,0.2,0,0.4,0.1,0.5h0.1l-0.2,0.4
		l-0.7,0.2c-0.2,0-0.3,0.2-0.2,0.4c0,0.1,0.2,0.3,0.3,0.3l0,0h0.1h0.1L20,37.3l-0.9-1h0.1l0,0c0.2,0,0.3-0.1,0.4-0.3v-0.1v-0.1
		c-0.1-0.1-0.2-0.2-0.3-0.2h-0.8l-0.3-0.3l0.1-0.1c0.1-0.1,0.1-0.3,0.1-0.4l0,0v-0.1c-0.1-0.1-0.2-0.1-0.3-0.1c-0.1,0-0.2,0-0.2,0.1
		l-0.1,0.1l-0.3-0.4h0.8l0,0c0.2,0,0.3-0.1,0.4-0.3V34v-0.1c-0.1-0.1-0.2-0.2-0.3-0.2l-1.6-0.1l0,0c-0.2,0-0.3,0.1-0.4,0.3l-0.1,1.6
		c0,0.1,0,0.2,0.1,0.2c0.1,0.1,0.1,0.1,0.2,0.1l0,0c0.2,0,0.3-0.1,0.4-0.3v-0.8l0.3,0.4l-0.1,0.1c-0.1,0.1-0.1,0.1-0.1,0.2
		c0,0.1,0,0.2,0.1,0.2c0.1,0.1,0.2,0.1,0.3,0.1c0.1,0,0.2,0,0.2-0.1l0.1-0.1L18,36v0.8c0,0.1,0,0.2,0.1,0.2c0.1,0.1,0.1,0.1,0.2,0.1
		l0,0c0.2,0,0.3-0.1,0.4-0.3v-0.1l0.9,1l-1.2,0.5v-0.1c0-0.1,0-0.2,0-0.3s-0.1-0.1-0.2-0.2l0,0h-0.1c-0.1,0-0.3,0.1-0.3,0.2
		l-0.3,0.7L17,38.8v-0.1c-0.1-0.1-0.2-0.2-0.3-0.2h-0.1h-0.1c-0.1,0-0.1,0.1-0.2,0.2s0,0.2,0,0.3l0,0c0,0,0,0.1-0.1,0.1L16,39.3
		l0.3-0.7c0-0.1,0-0.2,0-0.3s-0.1-0.1-0.2-0.2l0,0H16c-0.1,0-0.3,0.1-0.3,0.2L15,39.8c-0.1,0.2,0,0.4,0.2,0.4l0.6,0.2l-2,5.7
		c-0.1,0.3,0,0.5,0.3,0.6c0.1,0,0.1,0,0.2,0c0.2,0,0.4-0.1,0.5-0.3l2-5.6l0,0c0.1,0,0.3-0.1,0.3-0.2c0-0.1,0-0.2,0-0.3
		S17,40.2,17,40.2l0.1-0.2l0,0h0.1c0.1,0,0.1-0.1,0.2-0.2c0-0.1,0-0.2,0-0.3v-0.1l0.4-0.2l0.7,0.3l0,0h0.1c0.1,0,0.3-0.1,0.3-0.2
		c0-0.1,0-0.2,0-0.3C18.8,39,18.8,38.9,18.7,38.9z"/>
</g>
</svg>
