<?xml version="1.0" encoding="utf-8"?>
<!-- Generator: Adobe Illustrator 19.1.1, SVG Export Plug-In . SVG Version: 6.00 Build 0)  -->
<svg version="1.1" id="Calque_1" xmlns="http://www.w3.org/2000/svg" xmlns:xlink="http://www.w3.org/1999/xlink" x="0px" y="0px"
	 viewBox="0 0 60 60" style="enable-background:new 0 0 60 60;" xml:space="preserve">
<style type="text/css">
	.st0{fill:none;}
	.st1{fill:#FFFFFF;}
</style>
<rect class="st0" width="60" height="60"/>
<path class="st1" d="M44.6,13.3c0.2-0.7,0.3-1.5,0.3-2.3c0-4.7-3.9-8.6-8.6-8.6c-1.9,0-3.7,0.6-5.2,1.8c-1.5-1.2-3.3-1.8-5.2-1.8
	c-4.7,0-8.6,3.9-8.6,8.6c0,0.6,0.1,1.3,0.2,1.9c-4.2,0.6-7.4,4.2-7.4,8.5c0,3,1.6,5.7,4,7.2L9.5,42.3c-0.1,0.3,0.1,0.5,0.3,0.6
	c0.1,0,0.1,0,0.2,0c0.2,0,0.4-0.1,0.5-0.3l4.3-13.4c0.8,0.4,1.7,0.7,2.7,0.8l-4,12.3c-0.1,0.3,0.1,0.5,0.3,0.6c0.1,0,0.1,0,0.2,0
	c0.2,0,0.4-0.1,0.5-0.3l4.1-12.5l0,0c1.1,0,2.1-0.2,3.1-0.6l-1.3,4l-0.8-0.1l0,0c-0.3,0-0.5,0.2-0.5,0.4l-0.4,4
	c0,0.2,0.1,0.3,0.2,0.4l-1.3,4.1c-0.1,0.3,0.1,0.5,0.3,0.6c0.1,0,0.1,0,0.2,0c0.2,0,0.4-0.1,0.5-0.3l2.2-6.6l0.9,1.1L21,37.4
	c-0.1,0.1-0.2,0.2-0.2,0.3s0,0.3,0.1,0.4c0.1,0.1,0.2,0.2,0.4,0.2c0.1,0,0.2,0,0.3-0.1l0.5-0.4l0.6,0.8l-1.2,3.7
	c-0.1,0.3,0.1,0.5,0.3,0.6c0.1,0,0.1,0,0.2,0c0.2,0,0.4-0.1,0.5-0.3l0.5-1.4c0,0.1,0,0.2,0.1,0.3s0.2,0.2,0.3,0.2l0,0
	c0.2,0,0.3,0,0.3-0.1c0.1-0.1,0.2-0.2,0.2-0.3l0.1-1.1l1.6,1.9l-0.1,0.2c-0.1,0.3,0.1,0.5,0.3,0.6c0.1,0,0.1,0,0.2,0s0.2,0,0.2-0.1
	l0.8,0.9l-4.4,1.7l0.5-1c0.1-0.1,0.1-0.2,0-0.4c0-0.1-0.1-0.2-0.3-0.3c-0.1,0-0.1,0-0.2,0c-0.2,0-0.4,0.1-0.4,0.3l-0.9,2l-1.5,0.6
	L19.6,46c-0.1-0.2-0.3-0.3-0.4-0.3s-0.1,0-0.2,0c-0.2,0.1-0.4,0.4-0.3,0.6l0.2,0.6l-2.3,0.9l1.2-2.6c0.1-0.1,0.1-0.2,0-0.4
	c0-0.1-0.1-0.2-0.3-0.3c-0.1,0-0.1,0-0.2,0c-0.2,0-0.4,0.1-0.4,0.3l-1.6,3.7c-0.1,0.1-0.1,0.2,0,0.4c0,0.1,0.1,0.2,0.3,0.3l3.7,1.6
	c0.1,0,0.1,0,0.2,0s0.2,0,0.3-0.1c0.1,0,0.1-0.1,0.1-0.2c0.1-0.1,0.1-0.2,0-0.4c0-0.1-0.1-0.2-0.3-0.3L17,48.6l2.3-0.9l0.2,0.6
	c0.1,0.2,0.3,0.3,0.4,0.3s0.1,0,0.2,0c0,0,0.1,0,0.1-0.1c0.2-0.1,0.2-0.4,0.1-0.5l-0.2-0.6l1.5-0.6l1.9,0.8c0.1,0,0.1,0,0.2,0
	s0.2,0,0.3-0.1c0.1,0,0.1-0.1,0.1-0.2c0.1-0.1,0.1-0.2,0-0.4c0-0.1-0.1-0.2-0.3-0.3l-1-0.5l4.4-1.7l0.3,4.7l-0.8-0.8
	c-0.1-0.1-0.2-0.1-0.3-0.1c-0.1,0-0.3,0.1-0.4,0.2c-0.2,0.2-0.2,0.5,0,0.7l1.6,1.4l0.1,1.7h-0.6c-0.3,0-0.5,0.2-0.5,0.5
	s0.2,0.5,0.5,0.5h0.6l0.1,2.5L25.9,54c-0.1-0.1-0.2-0.1-0.3-0.1c-0.1,0-0.3,0.1-0.4,0.2c-0.1,0.1-0.1,0.2-0.1,0.3s0.1,0.2,0.2,0.3
	l3,2.7c0.1,0.1,0.2,0.1,0.3,0.1c0.1,0,0.2,0,0.3-0.1l0,0l0,0l2.7-3c0.2-0.2,0.2-0.5,0-0.7c-0.1-0.1-0.2-0.1-0.3-0.1
	c-0.1,0-0.3,0.1-0.4,0.2L29,55.9l-0.1-2.5h0.6c0.1,0,0.2,0,0.3-0.1c0.1-0.1,0.2-0.2,0.2-0.4c0-0.3-0.2-0.5-0.5-0.5h-0.6l-0.1-1.7
	l1.4-1.6c0.1-0.1,0.1-0.2,0.1-0.3s-0.1-0.2-0.2-0.3s-0.2-0.1-0.3-0.1c-0.1,0-0.3,0.1-0.4,0.2l-0.8,0.8l-0.3-4.7l4.6,1.2l-1,0.6
	c-0.1,0.1-0.2,0.2-0.2,0.3s0,0.3,0,0.4c0.1,0.1,0.2,0.2,0.4,0.2c0.1,0,0.2,0,0.2-0.1l1.8-1l1.6,0.4l-0.2,0.6c0,0.1,0,0.3,0,0.4
	c0.1,0.1,0.2,0.2,0.3,0.2h0.1c0.1,0,0.2,0,0.3-0.1s0.1-0.2,0.2-0.2l0.2-0.6l2.4,0.6L36.7,49c-0.1,0.1-0.2,0.2-0.2,0.3s0,0.3,0,0.4
	c0.1,0.1,0.2,0.2,0.4,0.2c0.1,0,0.2,0,0.2-0.1l3.5-2l0,0l0,0c0.2-0.1,0.2-0.4,0.1-0.6l-2-3.5c-0.1-0.1-0.2-0.2-0.4-0.2
	c-0.1,0-0.2,0-0.2,0.1c-0.1,0.1-0.2,0.2-0.2,0.3s0,0.3,0,0.4l1.4,2.5L37,46l0.2-0.6c0-0.1,0-0.3,0-0.4c-0.1-0.1-0.2-0.2-0.3-0.2
	h-0.1c-0.2,0-0.4,0.1-0.5,0.4l-0.2,0.6l-1.6-0.4l-1-1.8c-0.1-0.1-0.2-0.2-0.4-0.2c-0.1,0-0.2,0-0.2,0.1c-0.1,0.1-0.2,0.2-0.2,0.3
	s0,0.3,0,0.4l0.6,1L28.7,44l1-1.6v0.1c-0.1,0.3,0.1,0.5,0.3,0.6c0.1,0,0.1,0,0.2,0c0.2,0,0.4-0.1,0.5-0.3l0.8-2.3l0.1,0.6
	c0,0.2,0.2,0.4,0.5,0.4l0,0h0.1c0.1,0,0.1,0,0.2-0.1c0.1-0.1,0.2-0.3,0.2-0.5l-0.4-2l0.9-1.4l0.5,0.3c0.1,0.1,0.2,0.1,0.3,0.1
	s0.2,0,0.3-0.1l0.1-0.1c0.1-0.2,0.1-0.5-0.1-0.7l-0.5-0.3l1.4-2.1l0.6,2.7L34,42.6c-0.1,0.3,0.1,0.5,0.3,0.6c0.1,0,0.1,0,0.2,0
	c0.2,0,0.4-0.1,0.5-0.3l4.2-13.1c0.9,0.3,1.8,0.5,2.8,0.6l-4,12.2c-0.1,0.3,0.1,0.5,0.3,0.6c0.1,0,0.1,0,0.2,0
	c0.2,0,0.4-0.1,0.5-0.3l4.1-12.5c1.2-0.1,2.3-0.4,3.3-0.9l-4.3,13.2c-0.1,0.3,0.1,0.5,0.3,0.6c0.1,0,0.1,0,0.2,0
	c0.2,0,0.4-0.1,0.5-0.3l4.6-14.3c2-1.6,3.3-4,3.3-6.8C50.5,17.8,48.1,14.5,44.6,13.3z M46.3,27.7c-1,0.7-2.1,1.2-3.4,1.3
	c-0.3,0-0.7,0.1-1,0.1l0,0c-1,0-1.9-0.2-2.8-0.6c-0.3-0.1-0.6-0.3-0.9-0.4c-0.9-0.5-1.7-1.2-2.3-2c0-0.1-0.1-0.1-0.1-0.2l-0.4-0.6
	L34.9,26l-0.1,0.1c-1,1.3-2.3,2.2-3.8,2.7c-0.4,0.1-0.7,0.2-1.1,0.3c-0.4,0.1-0.7,0.1-1.1,0.1c-0.6,0-1.2-0.1-1.8-0.2
	c-0.3-0.1-0.6-0.2-1-0.3c-0.7-0.3-1.4-0.7-2-1.2l-0.3-0.3l-0.2,0.2l-0.1,0.1c-0.4,0.3-0.8,0.6-1.3,0.8c-1,0.5-2.1,0.8-3.2,0.9
	c-0.1,0-0.2,0-0.3,0c-0.3,0-0.5,0-0.8,0c-1-0.1-1.9-0.4-2.7-0.8c-0.3-0.2-0.6-0.3-0.9-0.5c-2-1.4-3.3-3.7-3.3-6.3
	c0-4,3.1-7.3,7.1-7.6h0.6l-0.2-0.6c-0.2-0.7-0.3-1.5-0.3-2.2c0-4.2,3.4-7.6,7.6-7.6c1.8,0,3.5,0.6,4.9,1.8L31,5.5l0.3-0.3
	c1.4-1.2,3.1-1.8,4.9-1.8c4.2,0,7.6,3.4,7.6,7.6c0,0.8-0.1,1.6-0.4,2.4L43.3,14l0.5,0.1c3.3,0.9,5.6,3.9,5.6,7.3
	c0,1.8-0.6,3.4-1.7,4.8C47.4,26.8,46.9,27.3,46.3,27.7z M28.8,30.1c0.3,0,0.5,0,0.8,0L26,41l-1.2-1.5l1.1,0.1l0,0
	c0.2,0,0.3,0,0.3-0.1c0.1-0.1,0.2-0.2,0.2-0.3s0-0.3-0.1-0.4s-0.2-0.2-0.3-0.2l-2.1-0.2l-0.1-0.1l2.8-8.6C27.3,30,28,30.1,28.8,30.1
	z M33.9,33.8l-1,1.6l0.5-1.5L33.9,33.8z M23.1,37.5l-0.2-0.3l0.4-0.4L23.1,37.5z M30.9,33.4c-0.1,0-0.2,0.1-0.3,0.2
	c-0.1,0.1-0.1,0.2-0.1,0.4s0.2,0.4,0.5,0.4l0,0h0.1l1.1-0.2l-0.4,1.4l0,0c-0.2,0-0.3,0.1-0.4,0.2c-0.1,0.2-0.1,0.5,0.1,0.7l0,0
	l-0.6,1.8L29,38.5c-0.1,0-0.2,0.1-0.3,0.2c-0.1,0.1-0.1,0.2-0.1,0.4s0.2,0.4,0.5,0.4l0,0h0.1l1.1-0.2l-2.6,4l-1-1.3l3.9-12
	c1.3-0.3,2.5-0.9,3.5-1.7l-1.6,4.9L30.9,33.4z M22.9,28.9c0.2-0.1,0.5-0.3,0.7-0.4c0.6,0.5,1.3,0.8,2,1.1l-2.2,6.7
	c0-0.1,0-0.1-0.1-0.1c-0.1-0.1-0.2-0.2-0.4-0.2c-0.1,0-0.2,0-0.3,0.1l-0.5,0.4L21,34.9l0.1-0.3l2.4,0.2l0,0c0.2,0,0.3,0,0.3-0.1
	c0.1-0.1,0.2-0.2,0.2-0.3c0-0.3-0.2-0.5-0.4-0.5l-2.2-0.2L22.9,28.9z M35.9,35.2L35.4,33c0-0.2-0.2-0.4-0.5-0.4l0,0h-0.1l-1.1,0.2
	l1.8-5.6c0.7,0.8,1.5,1.4,2.4,1.8L35.9,35.2z"/>
</svg>
