<?xml version="1.0" encoding="utf-8"?>
<!-- Generator: Adobe Illustrator 19.1.1, SVG Export Plug-In . SVG Version: 6.00 Build 0)  -->
<svg version="1.1" id="Calque_1" xmlns="http://www.w3.org/2000/svg" xmlns:xlink="http://www.w3.org/1999/xlink" x="0px" y="0px"
	 viewBox="0 0 60 60" style="enable-background:new 0 0 60 60;" xml:space="preserve">
<style type="text/css">
	.st0{fill:#FFFFFF;}
	.st1{fill:none;}
</style>
<g>
	<path class="st0" d="M30,15.6c-8,0-14.5,6.5-14.5,14.5S22,44.6,30,44.6s14.5-6.5,14.5-14.5S38,15.6,30,15.6z M16.5,30.1
		c0-7.4,6-13.5,13.5-13.5c7.4,0,13.5,6,13.5,13.5s-6,13.5-13.5,13.5C22.6,43.6,16.5,37.5,16.5,30.1z"/>
	<path class="st0" d="M30,13.2c0.3,0,0.5-0.2,0.5-0.5V1.3c0-0.3-0.2-0.5-0.5-0.5S29.5,1,29.5,1.3v11.4C29.5,13,29.7,13.2,30,13.2z"
		/>
	<path class="st0" d="M17.4,18.1c0.1,0.1,0.2,0.1,0.4,0.1s0.3,0,0.4-0.1c0.2-0.2,0.2-0.5,0-0.7L10,9.3c-0.2-0.2-0.5-0.2-0.7,0
		s-0.2,0.5,0,0.7L17.4,18.1z"/>
	<path class="st0" d="M13.2,30c0-0.3-0.2-0.5-0.5-0.5H1.3c-0.3,0-0.5,0.2-0.5,0.5s0.2,0.5,0.5,0.5h11.4C13,30.5,13.2,30.3,13.2,30z"
		/>
	<path class="st0" d="M17.4,41.9L9.3,50c-0.2,0.2-0.2,0.5,0,0.7c0.1,0.1,0.2,0.1,0.4,0.1s0.3,0,0.4-0.1l8.1-8.1
		c0.2-0.2,0.2-0.5,0-0.7S17.6,41.7,17.4,41.9z"/>
	<path class="st0" d="M30,46.8c-0.3,0-0.5,0.2-0.5,0.5v11.4c0,0.3,0.2,0.5,0.5,0.5s0.5-0.2,0.5-0.5V47.3C30.5,47,30.3,46.8,30,46.8z
		"/>
	<path class="st0" d="M42.6,41.9c-0.2-0.2-0.5-0.2-0.7,0s-0.2,0.5,0,0.7l8.1,8.1c0.1,0.1,0.2,0.1,0.4,0.1s0.3,0,0.4-0.1
		c0.2-0.2,0.2-0.5,0-0.7L42.6,41.9z"/>
	<path class="st0" d="M58.8,29.5H47.3c-0.3,0-0.5,0.2-0.5,0.5s0.2,0.5,0.5,0.5h11.4c0.3,0,0.5-0.2,0.5-0.5S59,29.5,58.8,29.5z"/>
	<path class="st0" d="M42.2,18.3c0.1,0,0.3,0,0.4-0.1l8.1-8.1c0.2-0.2,0.2-0.5,0-0.7s-0.5-0.2-0.7,0l-8.1,8.1
		c-0.2,0.2-0.2,0.5,0,0.7C42,18.2,42.1,18.3,42.2,18.3z"/>
</g>
<rect class="st1" width="60" height="60"/>
</svg>
