<?xml version="1.0" encoding="utf-8"?>
<!-- Generator: Adobe Illustrator 19.1.1, SVG Export Plug-In . SVG Version: 6.00 Build 0)  -->
<svg version="1.1" id="Calque_1" xmlns="http://www.w3.org/2000/svg" xmlns:xlink="http://www.w3.org/1999/xlink" x="0px" y="0px"
	 viewBox="0 0 60 60" style="enable-background:new 0 0 60 60;" xml:space="preserve">
<style type="text/css">
	.st0{fill:none;}
	.st1{fill:#FFFFFF;}
</style>
<rect class="st0" width="60" height="60"/>
<g>
	<path class="st1" d="M30,13.2c0.3,0,0.5-0.2,0.5-0.5V1.3c0-0.3-0.2-0.5-0.5-0.5S29.5,1,29.5,1.3v11.4C29.5,13,29.7,13.2,30,13.2z"
		/>
	<path class="st1" d="M17.4,18.1c0.1,0.1,0.2,0.1,0.4,0.1s0.3,0,0.4-0.1c0.2-0.2,0.2-0.5,0-0.7L10,9.3c-0.2-0.2-0.5-0.2-0.7,0
		s-0.2,0.5,0,0.7L17.4,18.1z"/>
	<path class="st1" d="M30,46.8c-0.3,0-0.5,0.2-0.5,0.5v11.4c0,0.3,0.2,0.5,0.5,0.5s0.5-0.2,0.5-0.5V47.3C30.5,47,30.3,46.8,30,46.8z
		"/>
	<path class="st1" d="M58.8,29.5h-0.3V25h-15c-0.4-1.2-1-2.3-1.7-3.3h16.7v-3H39c-2.5-2-5.6-3.1-9-3.1s-6.5,1.2-9,3.1H1.5v3h16.7
		c-0.7,1-1.3,2.1-1.7,3.3h-15v4.5H1.3c-0.3,0-0.5,0.2-0.5,0.5s0.2,0.5,0.5,0.5h0.3v0.7h14.1c0.1,1.1,0.3,2.2,0.6,3.3H1.5v10h13.3
		L9.3,50c-0.2,0.2-0.2,0.5,0,0.7c0.1,0.1,0.2,0.1,0.4,0.1s0.3,0,0.4-0.1l6.2-6.2h12.4c0.4,0,0.9,0.1,1.3,0.1s0.9,0,1.3-0.1h12.5
		l6.2,6.2c0.1,0.1,0.2,0.1,0.4,0.1s0.3,0,0.4-0.1c0.2-0.2,0.2-0.5,0-0.7l-5.5-5.5h13.3v-10H43.8c0.3-1,0.5-2.1,0.6-3.3h14.1v-0.8
		h0.3c0.3,0,0.5-0.2,0.5-0.5S59,29.5,58.8,29.5z M57.5,30.3H46.9h-2.4H44h-0.5h-27H16h-0.5h-2.4H2.5v-0.7V26h13.6h0.5h0.5h25.7h0.5
		h0.5h13.6v3.5L57.5,30.3L57.5,30.3z M57.5,43.5H44.2h-1.4h-7.4h-1.5h-2.6h-2.7H26h-1.5h-7.3h-1.4H2.5v-8h14.1h0.5h0.6h24.7H43h0.5
		h14.1L57.5,43.5L57.5,43.5z M17.3,34.5c-0.4-1-0.6-2.1-0.7-3.3h26.8c-0.1,1.1-0.3,2.2-0.7,3.3H17.3z M2.5,19.8h17.4h0.7h0.8h17.3
		h0.8h0.7h17.4v1H41h-0.7h-0.7H20.3h-0.7h-0.7H2.5V19.8z M30,16.6c2.7,0,5.2,0.8,7.3,2.1H22.7C24.8,17.4,27.3,16.6,30,16.6z
		 M40.6,21.8c0.8,1,1.4,2.1,1.9,3.3h-25c0.5-1.2,1.1-2.3,1.9-3.3H40.6z"/>
	<path class="st1" d="M42.2,18.3c0.1,0,0.3,0,0.4-0.1l8.1-8.1c0.2-0.2,0.2-0.5,0-0.7s-0.5-0.2-0.7,0l-8.1,8.1
		c-0.2,0.2-0.2,0.5,0,0.7C42,18.2,42.1,18.3,42.2,18.3z"/>
</g>
</svg>
